G04 #@! TF.FileFunction,Soldermask,Bot*
%FSLAX46Y46*%
G04 Gerber Fmt 4.6, Leading zero omitted, Abs format (unit mm)*
G04 Created by KiCad (PCBNEW 4.0.2-1.fc23-product) date Sun 04 Sep 2016 23:35:13 BST*
%MOMM*%
G01*
G04 APERTURE LIST*
%ADD10C,0.150000*%
%ADD11C,13.000000*%
%ADD12C,0.500000*%
%ADD13C,1.100000*%
G04 APERTURE END LIST*
D10*
D11*
X139500000Y-95000000D02*
G75*
G03X139500000Y-95000000I-34500000J0D01*
G01*
X229500000Y-95000000D02*
G75*
G03X229500000Y-95000000I-34500000J0D01*
G01*
D10*
G36*
X126231895Y-133689785D02*
X128804920Y-138070372D01*
X114823595Y-143221348D01*
X113939589Y-138218495D01*
X126231895Y-133689785D01*
X126231895Y-133689785D01*
G37*
G36*
X96060411Y-138218495D02*
X95176405Y-143221348D01*
X81195080Y-138070372D01*
X83768105Y-133689785D01*
X96060411Y-138218495D01*
X96060411Y-138218495D01*
G37*
G36*
X107898467Y-136201432D02*
X109293140Y-136079414D01*
X109389011Y-137175228D01*
X107994338Y-137297246D01*
X107898467Y-136201432D01*
X107898467Y-136201432D01*
G37*
G36*
X108050989Y-137944772D02*
X109445662Y-137822754D01*
X109541533Y-138918568D01*
X108146860Y-139040586D01*
X108050989Y-137944772D01*
X108050989Y-137944772D01*
G37*
G36*
X100706860Y-136079414D02*
X102101533Y-136201432D01*
X102005662Y-137297246D01*
X100610989Y-137175228D01*
X100706860Y-136079414D01*
X100706860Y-136079414D01*
G37*
G36*
X100554338Y-137822754D02*
X101949011Y-137944772D01*
X101853140Y-139040586D01*
X100458467Y-138918568D01*
X100554338Y-137822754D01*
X100554338Y-137822754D01*
G37*
D12*
X133110000Y-123110000D03*
X133817107Y-122402893D03*
X134524214Y-121695786D03*
X132402893Y-123817107D03*
X131695786Y-124524214D03*
X141720000Y-110210000D03*
X142102683Y-109286120D03*
X142485367Y-108362241D03*
X141337317Y-111133880D03*
X140954633Y-112057759D03*
X144750000Y-95000000D03*
X144750000Y-94000000D03*
X144750000Y-93000000D03*
X144750000Y-96000000D03*
X144750000Y-97000000D03*
X141720000Y-79790000D03*
X141337317Y-78866120D03*
X140954633Y-77942241D03*
X142102683Y-80713880D03*
X142485367Y-81637759D03*
X133110000Y-66890000D03*
X132402893Y-66182893D03*
X131695786Y-65475786D03*
X133817107Y-67597107D03*
X134524214Y-68304214D03*
X120210000Y-58280000D03*
X119286120Y-57897317D03*
X118362241Y-57514633D03*
X121133880Y-58662683D03*
X122057759Y-59045367D03*
X105000000Y-55250000D03*
X104000000Y-55250000D03*
X103000000Y-55250000D03*
X106000000Y-55250000D03*
X107000000Y-55250000D03*
X89790000Y-58280000D03*
X88866120Y-58662683D03*
X87942241Y-59045367D03*
X90713880Y-57897317D03*
X91637759Y-57514633D03*
X76890000Y-66890000D03*
X76182893Y-67597107D03*
X75475786Y-68304214D03*
X77597107Y-66182893D03*
X78304214Y-65475786D03*
X68280000Y-79790000D03*
X67897317Y-80713880D03*
X67514633Y-81637759D03*
X68662683Y-78866120D03*
X69045367Y-77942241D03*
X65250000Y-95000000D03*
X65250000Y-96000000D03*
X65250000Y-97000000D03*
X65250000Y-94000000D03*
X65250000Y-93000000D03*
X68280000Y-110210000D03*
X68662683Y-111133880D03*
X69045367Y-112057759D03*
X67897317Y-109286120D03*
X67514633Y-108362241D03*
X76890000Y-123110000D03*
X77597107Y-123817107D03*
X78304214Y-124524214D03*
X76182893Y-122402893D03*
X75475786Y-121695786D03*
X85960000Y-140960000D03*
X86883880Y-141342683D03*
X87807759Y-141725367D03*
X85036120Y-140577317D03*
X84112241Y-140194633D03*
X105000000Y-144750000D03*
X106000000Y-144750000D03*
X107000000Y-144750000D03*
X104000000Y-144750000D03*
X103000000Y-144750000D03*
X124040000Y-140960000D03*
X124963880Y-140577317D03*
X125887759Y-140194633D03*
X123116120Y-141342683D03*
X122192241Y-141725367D03*
D10*
G36*
X216231895Y-133689785D02*
X218804920Y-138070372D01*
X204823595Y-143221348D01*
X203939589Y-138218495D01*
X216231895Y-133689785D01*
X216231895Y-133689785D01*
G37*
G36*
X186060411Y-138218495D02*
X185176405Y-143221348D01*
X171195080Y-138070372D01*
X173768105Y-133689785D01*
X186060411Y-138218495D01*
X186060411Y-138218495D01*
G37*
G36*
X197898467Y-136201432D02*
X199293140Y-136079414D01*
X199389011Y-137175228D01*
X197994338Y-137297246D01*
X197898467Y-136201432D01*
X197898467Y-136201432D01*
G37*
G36*
X198050989Y-137944772D02*
X199445662Y-137822754D01*
X199541533Y-138918568D01*
X198146860Y-139040586D01*
X198050989Y-137944772D01*
X198050989Y-137944772D01*
G37*
G36*
X190706860Y-136079414D02*
X192101533Y-136201432D01*
X192005662Y-137297246D01*
X190610989Y-137175228D01*
X190706860Y-136079414D01*
X190706860Y-136079414D01*
G37*
G36*
X190554338Y-137822754D02*
X191949011Y-137944772D01*
X191853140Y-139040586D01*
X190458467Y-138918568D01*
X190554338Y-137822754D01*
X190554338Y-137822754D01*
G37*
D12*
X223110000Y-123110000D03*
X223817107Y-122402893D03*
X224524214Y-121695786D03*
X222402893Y-123817107D03*
X221695786Y-124524214D03*
X231720000Y-110210000D03*
X232102683Y-109286120D03*
X232485367Y-108362241D03*
X231337317Y-111133880D03*
X230954633Y-112057759D03*
X234750000Y-95000000D03*
X234750000Y-94000000D03*
X234750000Y-93000000D03*
X234750000Y-96000000D03*
X234750000Y-97000000D03*
X231720000Y-79790000D03*
X231337317Y-78866120D03*
X230954633Y-77942241D03*
X232102683Y-80713880D03*
X232485367Y-81637759D03*
X223110000Y-66890000D03*
X222402893Y-66182893D03*
X221695786Y-65475786D03*
X223817107Y-67597107D03*
X224524214Y-68304214D03*
X210210000Y-58280000D03*
X209286120Y-57897317D03*
X208362241Y-57514633D03*
X211133880Y-58662683D03*
X212057759Y-59045367D03*
X195000000Y-55250000D03*
X194000000Y-55250000D03*
X193000000Y-55250000D03*
X196000000Y-55250000D03*
X197000000Y-55250000D03*
X179790000Y-58280000D03*
X178866120Y-58662683D03*
X177942241Y-59045367D03*
X180713880Y-57897317D03*
X181637759Y-57514633D03*
X166890000Y-66890000D03*
X166182893Y-67597107D03*
X165475786Y-68304214D03*
X167597107Y-66182893D03*
X168304214Y-65475786D03*
X158280000Y-79790000D03*
X157897317Y-80713880D03*
X157514633Y-81637759D03*
X158662683Y-78866120D03*
X159045367Y-77942241D03*
X155250000Y-95000000D03*
X155250000Y-96000000D03*
X155250000Y-97000000D03*
X155250000Y-94000000D03*
X155250000Y-93000000D03*
X158280000Y-110210000D03*
X158662683Y-111133880D03*
X159045367Y-112057759D03*
X157897317Y-109286120D03*
X157514633Y-108362241D03*
X166890000Y-123110000D03*
X167597107Y-123817107D03*
X168304214Y-124524214D03*
X166182893Y-122402893D03*
X165475786Y-121695786D03*
X175960000Y-140960000D03*
X176883880Y-141342683D03*
X177807759Y-141725367D03*
X175036120Y-140577317D03*
X174112241Y-140194633D03*
X195000000Y-144750000D03*
X196000000Y-144750000D03*
X197000000Y-144750000D03*
X194000000Y-144750000D03*
X193000000Y-144750000D03*
X214040000Y-140960000D03*
X214963880Y-140577317D03*
X215887759Y-140194633D03*
X213116120Y-141342683D03*
X212192241Y-141725367D03*
D13*
X105000000Y-127000000D03*
X195000000Y-127000000D03*
M02*
