M48
;DRILL file {KiCad 4.0.2-1.fc23-product} date Sun 04 Sep 2016 23:35:24 BST
;FORMAT={-:-/ absolute / metric / decimal}
FMAT,2
METRIC,TZ
T1C0.500
T2C3.500
%
G90
G05
M71
T1
X65.25Y-93.
X65.25Y-94.
X65.25Y-95.
X65.25Y-96.
X65.25Y-97.
X67.515Y-81.638
X67.515Y-108.362
X67.897Y-80.714
X67.897Y-109.286
X68.28Y-79.79
X68.28Y-110.21
X68.663Y-78.866
X68.663Y-111.134
X69.045Y-77.942
X69.045Y-112.058
X75.476Y-68.304
X75.476Y-121.696
X76.183Y-67.597
X76.183Y-122.403
X76.89Y-66.89
X76.89Y-123.11
X77.597Y-66.183
X77.597Y-123.817
X78.304Y-65.476
X78.304Y-124.524
X84.112Y-140.195
X85.036Y-140.577
X85.96Y-140.96
X86.884Y-141.343
X87.808Y-141.725
X87.942Y-59.045
X88.866Y-58.663
X89.79Y-58.28
X90.714Y-57.897
X91.638Y-57.515
X103.Y-55.25
X103.Y-144.75
X104.Y-55.25
X104.Y-144.75
X105.Y-55.25
X105.Y-144.75
X106.Y-55.25
X106.Y-144.75
X107.Y-55.25
X107.Y-144.75
X118.362Y-57.515
X119.286Y-57.897
X120.21Y-58.28
X121.134Y-58.663
X122.058Y-59.045
X122.192Y-141.725
X123.116Y-141.343
X124.04Y-140.96
X124.964Y-140.577
X125.888Y-140.195
X131.696Y-65.476
X131.696Y-124.524
X132.403Y-66.183
X132.403Y-123.817
X133.11Y-66.89
X133.11Y-123.11
X133.817Y-67.597
X133.817Y-122.403
X134.524Y-68.304
X134.524Y-121.696
X140.955Y-77.942
X140.955Y-112.058
X141.337Y-78.866
X141.337Y-111.134
X141.72Y-79.79
X141.72Y-110.21
X142.103Y-80.714
X142.103Y-109.286
X142.485Y-81.638
X142.485Y-108.362
X144.75Y-93.
X144.75Y-94.
X144.75Y-95.
X144.75Y-96.
X144.75Y-97.
X155.25Y-93.
X155.25Y-94.
X155.25Y-95.
X155.25Y-96.
X155.25Y-97.
X157.515Y-81.638
X157.515Y-108.362
X157.897Y-80.714
X157.897Y-109.286
X158.28Y-79.79
X158.28Y-110.21
X158.663Y-78.866
X158.663Y-111.134
X159.045Y-77.942
X159.045Y-112.058
X165.476Y-68.304
X165.476Y-121.696
X166.183Y-67.597
X166.183Y-122.403
X166.89Y-66.89
X166.89Y-123.11
X167.597Y-66.183
X167.597Y-123.817
X168.304Y-65.476
X168.304Y-124.524
X174.112Y-140.195
X175.036Y-140.577
X175.96Y-140.96
X176.884Y-141.343
X177.808Y-141.725
X177.942Y-59.045
X178.866Y-58.663
X179.79Y-58.28
X180.714Y-57.897
X181.638Y-57.515
X193.Y-55.25
X193.Y-144.75
X194.Y-55.25
X194.Y-144.75
X195.Y-55.25
X195.Y-144.75
X196.Y-55.25
X196.Y-144.75
X197.Y-55.25
X197.Y-144.75
X208.362Y-57.515
X209.286Y-57.897
X210.21Y-58.28
X211.134Y-58.663
X212.058Y-59.045
X212.192Y-141.725
X213.116Y-141.343
X214.04Y-140.96
X214.964Y-140.577
X215.888Y-140.195
X221.696Y-65.476
X221.696Y-124.524
X222.403Y-66.183
X222.403Y-123.817
X223.11Y-66.89
X223.11Y-123.11
X223.817Y-67.597
X223.817Y-122.403
X224.524Y-68.304
X224.524Y-121.696
X230.955Y-77.942
X230.955Y-112.058
X231.337Y-78.866
X231.337Y-111.134
X231.72Y-79.79
X231.72Y-110.21
X232.103Y-80.714
X232.103Y-109.286
X232.485Y-81.638
X232.485Y-108.362
X234.75Y-93.
X234.75Y-94.
X234.75Y-95.
X234.75Y-96.
X234.75Y-97.
T2
X65.Y-55.
X65.Y-145.
X235.Y-55.
X235.Y-145.
T0
M30
