G04 #@! TF.FileFunction,Legend,Bot*
%FSLAX46Y46*%
G04 Gerber Fmt 4.6, Leading zero omitted, Abs format (unit mm)*
G04 Created by KiCad (PCBNEW 4.0.2-1.fc23-product) date Sun 04 Sep 2016 23:35:13 BST*
%MOMM*%
G01*
G04 APERTURE LIST*
%ADD10C,0.150000*%
%ADD11C,0.200000*%
%ADD12C,0.300000*%
%ADD13C,13.000000*%
%ADD14C,0.500000*%
%ADD15C,1.100000*%
G04 APERTURE END LIST*
D10*
D11*
X105000000Y-57000000D02*
X105000000Y-55000000D01*
X105000000Y-64000000D02*
X105000000Y-66000000D01*
X107680000Y-57090000D02*
X107820000Y-55100000D01*
X107190000Y-64080000D02*
X107050000Y-66070000D01*
X110350000Y-57380000D02*
X110630000Y-55400000D01*
X109360000Y-64310000D02*
X109080000Y-66290000D01*
X112990000Y-57850000D02*
X113410000Y-55890000D01*
X111520000Y-64690000D02*
X111100000Y-66650000D01*
X115590000Y-58510000D02*
X116150000Y-56580000D01*
X113640000Y-65230000D02*
X113080000Y-67150000D01*
X118140000Y-59340000D02*
X118830000Y-57470000D01*
X115720000Y-65910000D02*
X115030000Y-67790000D01*
X120620000Y-60360000D02*
X121440000Y-58540000D01*
X117740000Y-66740000D02*
X116920000Y-68560000D01*
X123020000Y-61550000D02*
X123970000Y-59790000D01*
X119700000Y-67710000D02*
X118760000Y-69470000D01*
X125340000Y-62900000D02*
X126410000Y-61210000D01*
X121590000Y-68810000D02*
X120520000Y-70500000D01*
X127550000Y-64420000D02*
X128740000Y-62810000D01*
X123400000Y-70050000D02*
X122210000Y-71660000D01*
X129650000Y-66080000D02*
X130950000Y-64560000D01*
X125110000Y-71410000D02*
X123810000Y-72930000D01*
X131630000Y-67890000D02*
X133030000Y-66470000D01*
X126730000Y-72890000D02*
X125320000Y-74310000D01*
X133480000Y-69840000D02*
X134980000Y-68520000D01*
X128230000Y-74470000D02*
X126730000Y-75800000D01*
X135180000Y-71910000D02*
X136770000Y-70700000D01*
X129620000Y-76160000D02*
X128030000Y-77380000D01*
X136730000Y-74100000D02*
X138410000Y-73000000D01*
X130890000Y-77950000D02*
X129220000Y-79050000D01*
X138130000Y-76390000D02*
X139870000Y-75410000D01*
X132030000Y-79820000D02*
X130280000Y-80800000D01*
X139360000Y-78770000D02*
X141170000Y-77920000D01*
X133030000Y-81760000D02*
X131220000Y-82620000D01*
X140420000Y-81240000D02*
X142280000Y-80510000D01*
X133890000Y-83770000D02*
X132030000Y-84500000D01*
X141300000Y-83770000D02*
X143210000Y-83180000D01*
X134620000Y-85840000D02*
X132700000Y-86430000D01*
X142000000Y-86360000D02*
X143950000Y-85900000D01*
X135190000Y-87950000D02*
X133240000Y-88400000D01*
X142520000Y-88990000D02*
X144500000Y-88670000D01*
X135610000Y-90100000D02*
X133630000Y-90410000D01*
X142850000Y-91650000D02*
X144840000Y-91470000D01*
X135880000Y-92270000D02*
X133890000Y-92440000D01*
X142990000Y-94330000D02*
X144990000Y-94290000D01*
X136000000Y-94450000D02*
X134000000Y-94490000D01*
X142950000Y-97010000D02*
X144940000Y-97120000D01*
X135960000Y-96640000D02*
X133960000Y-96530000D01*
X142710000Y-99680000D02*
X144700000Y-99930000D01*
X135760000Y-98820000D02*
X133780000Y-98570000D01*
X142290000Y-102330000D02*
X144250000Y-102720000D01*
X135420000Y-100980000D02*
X133460000Y-100590000D01*
X141680000Y-104940000D02*
X143610000Y-105470000D01*
X134920000Y-103110000D02*
X132990000Y-102590000D01*
X140880000Y-107510000D02*
X142770000Y-108160000D01*
X134270000Y-105200000D02*
X132380000Y-104540000D01*
X139910000Y-110010000D02*
X141750000Y-110800000D01*
X133480000Y-107240000D02*
X131640000Y-106450000D01*
X138770000Y-112430000D02*
X140540000Y-113350000D01*
X132550000Y-109220000D02*
X130770000Y-108300000D01*
X137450000Y-114770000D02*
X139160000Y-115810000D01*
X131470000Y-111130000D02*
X129770000Y-110090000D01*
X135980000Y-117010000D02*
X137610000Y-118170000D01*
X130270000Y-112950000D02*
X128640000Y-111800000D01*
X134350000Y-119140000D02*
X135890000Y-120410000D01*
X128940000Y-114690000D02*
X127400000Y-113420000D01*
X132570000Y-121150000D02*
X134020000Y-122530000D01*
X127490000Y-116330000D02*
X126040000Y-114960000D01*
X130660000Y-123030000D02*
X132010000Y-124500000D01*
X125930000Y-117870000D02*
X124580000Y-116390000D01*
X128620000Y-124770000D02*
X129860000Y-126340000D01*
X124270000Y-119290000D02*
X123020000Y-117720000D01*
X126460000Y-126360000D02*
X127590000Y-128010000D01*
X122510000Y-120580000D02*
X121380000Y-118930000D01*
X124190000Y-127800000D02*
X125200000Y-129520000D01*
X120660000Y-121760000D02*
X119650000Y-120030000D01*
X121830000Y-129070000D02*
X122720000Y-130860000D01*
X118730000Y-122790000D02*
X117850000Y-121000000D01*
X119390000Y-130170000D02*
X120140000Y-132020000D01*
X116740000Y-123690000D02*
X115980000Y-121840000D01*
X116870000Y-131100000D02*
X117490000Y-133000000D01*
X114680000Y-124450000D02*
X114060000Y-122550000D01*
X114290000Y-131850000D02*
X114780000Y-133790000D01*
X112580000Y-125060000D02*
X112090000Y-123120000D01*
X111670000Y-132410000D02*
X112020000Y-134380000D01*
X110440000Y-125520000D02*
X110090000Y-123550000D01*
X109020000Y-132790000D02*
X109230000Y-134780000D01*
X108280000Y-125830000D02*
X108070000Y-123840000D01*
X106340000Y-132980000D02*
X106410000Y-134980000D01*
X106090000Y-125980000D02*
X106020000Y-123980000D01*
X103660000Y-132980000D02*
X103590000Y-134980000D01*
X103910000Y-125980000D02*
X103980000Y-123980000D01*
X100980000Y-132790000D02*
X100770000Y-134780000D01*
X101720000Y-125830000D02*
X101930000Y-123840000D01*
X98330000Y-132410000D02*
X97980000Y-134380000D01*
X99560000Y-125520000D02*
X99910000Y-123550000D01*
X95710000Y-131850000D02*
X95220000Y-133790000D01*
X97420000Y-125060000D02*
X97910000Y-123120000D01*
X93130000Y-131100000D02*
X92510000Y-133000000D01*
X95320000Y-124450000D02*
X95940000Y-122550000D01*
X90610000Y-130170000D02*
X89860000Y-132020000D01*
X93260000Y-123690000D02*
X94020000Y-121840000D01*
X88170000Y-129070000D02*
X87280000Y-130860000D01*
X91270000Y-122790000D02*
X92150000Y-121000000D01*
X85810000Y-127800000D02*
X84800000Y-129520000D01*
X89340000Y-121760000D02*
X90350000Y-120030000D01*
X83540000Y-126360000D02*
X82410000Y-128010000D01*
X87490000Y-120580000D02*
X88620000Y-118930000D01*
X81380000Y-124770000D02*
X80140000Y-126340000D01*
X85730000Y-119290000D02*
X86980000Y-117720000D01*
X79340000Y-123030000D02*
X77990000Y-124500000D01*
X84070000Y-117870000D02*
X85420000Y-116390000D01*
X77430000Y-121150000D02*
X75980000Y-122530000D01*
X82510000Y-116330000D02*
X83960000Y-114960000D01*
X75650000Y-119140000D02*
X74110000Y-120410000D01*
X81060000Y-114690000D02*
X82600000Y-113420000D01*
X74020000Y-117010000D02*
X72390000Y-118170000D01*
X79730000Y-112950000D02*
X81360000Y-111800000D01*
X72550000Y-114770000D02*
X70840000Y-115810000D01*
X78530000Y-111130000D02*
X80230000Y-110090000D01*
X71230000Y-112430000D02*
X69460000Y-113350000D01*
X77450000Y-109220000D02*
X79230000Y-108300000D01*
X70090000Y-110010000D02*
X68250000Y-110800000D01*
X76520000Y-107240000D02*
X78360000Y-106450000D01*
X69120000Y-107510000D02*
X67230000Y-108160000D01*
X75730000Y-105200000D02*
X77620000Y-104540000D01*
X68320000Y-104940000D02*
X66390000Y-105470000D01*
X75080000Y-103110000D02*
X77010000Y-102590000D01*
X67710000Y-102330000D02*
X65750000Y-102720000D01*
X74580000Y-100980000D02*
X76540000Y-100590000D01*
X67290000Y-99680000D02*
X65300000Y-99930000D01*
X74240000Y-98820000D02*
X76220000Y-98570000D01*
X67050000Y-97010000D02*
X65060000Y-97120000D01*
X74040000Y-96640000D02*
X76040000Y-96530000D01*
X67010000Y-94330000D02*
X65010000Y-94290000D01*
X74000000Y-94450000D02*
X76000000Y-94490000D01*
X67150000Y-91650000D02*
X65160000Y-91470000D01*
X74120000Y-92270000D02*
X76110000Y-92440000D01*
X67480000Y-88990000D02*
X65500000Y-88670000D01*
X74390000Y-90100000D02*
X76370000Y-90410000D01*
X68000000Y-86360000D02*
X66050000Y-85900000D01*
X74810000Y-87950000D02*
X76760000Y-88400000D01*
X68700000Y-83770000D02*
X66790000Y-83180000D01*
X75380000Y-85840000D02*
X77300000Y-86430000D01*
X69580000Y-81240000D02*
X67720000Y-80510000D01*
X76110000Y-83770000D02*
X77970000Y-84500000D01*
X70640000Y-78770000D02*
X68830000Y-77920000D01*
X76970000Y-81760000D02*
X78780000Y-82620000D01*
X71870000Y-76390000D02*
X70130000Y-75410000D01*
X77970000Y-79820000D02*
X79720000Y-80800000D01*
X73270000Y-74100000D02*
X71590000Y-73000000D01*
X79110000Y-77950000D02*
X80780000Y-79050000D01*
X74820000Y-71910000D02*
X73230000Y-70700000D01*
X80380000Y-76160000D02*
X81970000Y-77380000D01*
X76520000Y-69840000D02*
X75020000Y-68520000D01*
X81770000Y-74470000D02*
X83270000Y-75800000D01*
X78370000Y-67890000D02*
X76970000Y-66470000D01*
X83270000Y-72890000D02*
X84680000Y-74310000D01*
X80350000Y-66080000D02*
X79050000Y-64560000D01*
X84890000Y-71410000D02*
X86190000Y-72930000D01*
X82450000Y-64420000D02*
X81260000Y-62810000D01*
X86600000Y-70050000D02*
X87790000Y-71660000D01*
X84660000Y-62900000D02*
X83590000Y-61210000D01*
X88410000Y-68810000D02*
X89480000Y-70500000D01*
X86980000Y-61550000D02*
X86030000Y-59790000D01*
X90300000Y-67710000D02*
X91240000Y-69470000D01*
X89380000Y-60360000D02*
X88560000Y-58540000D01*
X92260000Y-66740000D02*
X93080000Y-68560000D01*
X91860000Y-59340000D02*
X91170000Y-57470000D01*
X94280000Y-65910000D02*
X94970000Y-67790000D01*
X94410000Y-58510000D02*
X93850000Y-56580000D01*
X96360000Y-65230000D02*
X96920000Y-67150000D01*
X97010000Y-57850000D02*
X96590000Y-55890000D01*
X98480000Y-64690000D02*
X98900000Y-66650000D01*
X99650000Y-57380000D02*
X99370000Y-55400000D01*
X100640000Y-64310000D02*
X100920000Y-66290000D01*
X102320000Y-57090000D02*
X102180000Y-55100000D01*
X102810000Y-64080000D02*
X102950000Y-66070000D01*
D12*
X110821429Y-142678571D02*
X110821429Y-141178571D01*
X109964286Y-142678571D02*
X110607143Y-141821429D01*
X109964286Y-141178571D02*
X110821429Y-142035714D01*
X109035715Y-141178571D02*
X108750001Y-141178571D01*
X108607143Y-141250000D01*
X108464286Y-141392857D01*
X108392858Y-141678571D01*
X108392858Y-142178571D01*
X108464286Y-142464286D01*
X108607143Y-142607143D01*
X108750001Y-142678571D01*
X109035715Y-142678571D01*
X109178572Y-142607143D01*
X109321429Y-142464286D01*
X109392858Y-142178571D01*
X109392858Y-141678571D01*
X109321429Y-141392857D01*
X109178572Y-141250000D01*
X109035715Y-141178571D01*
X109178572Y-140678571D02*
X109107143Y-140750000D01*
X109178572Y-140821429D01*
X109250001Y-140750000D01*
X109178572Y-140678571D01*
X109178572Y-140821429D01*
X108607143Y-140678571D02*
X108535715Y-140750000D01*
X108607143Y-140821429D01*
X108678572Y-140750000D01*
X108607143Y-140678571D01*
X108607143Y-140821429D01*
X107750000Y-142678571D02*
X107750000Y-141178571D01*
X106892857Y-142678571D01*
X106892857Y-141178571D01*
X106178571Y-142678571D02*
X106178571Y-141178571D01*
X105321428Y-142678571D01*
X105321428Y-141178571D01*
X104607142Y-141178571D02*
X104607142Y-142392857D01*
X104535714Y-142535714D01*
X104464285Y-142607143D01*
X104321428Y-142678571D01*
X104035714Y-142678571D01*
X103892856Y-142607143D01*
X103821428Y-142535714D01*
X103749999Y-142392857D01*
X103749999Y-141178571D01*
X103035713Y-142678571D02*
X103035713Y-141178571D01*
X102678570Y-141178571D01*
X102464285Y-141250000D01*
X102321427Y-141392857D01*
X102249999Y-141535714D01*
X102178570Y-141821429D01*
X102178570Y-142035714D01*
X102249999Y-142321429D01*
X102321427Y-142464286D01*
X102464285Y-142607143D01*
X102678570Y-142678571D01*
X103035713Y-142678571D01*
X103249999Y-141892857D02*
X102678570Y-141892857D01*
X101535713Y-141178571D02*
X101535713Y-142392857D01*
X101464285Y-142535714D01*
X101392856Y-142607143D01*
X101249999Y-142678571D01*
X100964285Y-142678571D01*
X100821427Y-142607143D01*
X100749999Y-142535714D01*
X100678570Y-142392857D01*
X100678570Y-141178571D01*
X99107141Y-142678571D02*
X99607141Y-141964286D01*
X99964284Y-142678571D02*
X99964284Y-141178571D01*
X99392856Y-141178571D01*
X99249998Y-141250000D01*
X99178570Y-141321429D01*
X99107141Y-141464286D01*
X99107141Y-141678571D01*
X99178570Y-141821429D01*
X99249998Y-141892857D01*
X99392856Y-141964286D01*
X99964284Y-141964286D01*
D11*
X195000000Y-57000000D02*
X195000000Y-55000000D01*
X195000000Y-64000000D02*
X195000000Y-66000000D01*
X197680000Y-57090000D02*
X197820000Y-55100000D01*
X197190000Y-64080000D02*
X197050000Y-66070000D01*
X200350000Y-57380000D02*
X200630000Y-55400000D01*
X199360000Y-64310000D02*
X199080000Y-66290000D01*
X202990000Y-57850000D02*
X203410000Y-55890000D01*
X201520000Y-64690000D02*
X201100000Y-66650000D01*
X205590000Y-58510000D02*
X206150000Y-56580000D01*
X203640000Y-65230000D02*
X203080000Y-67150000D01*
X208140000Y-59340000D02*
X208830000Y-57470000D01*
X205720000Y-65910000D02*
X205030000Y-67790000D01*
X210620000Y-60360000D02*
X211440000Y-58540000D01*
X207740000Y-66740000D02*
X206920000Y-68560000D01*
X213020000Y-61550000D02*
X213970000Y-59790000D01*
X209700000Y-67710000D02*
X208760000Y-69470000D01*
X215340000Y-62900000D02*
X216410000Y-61210000D01*
X211590000Y-68810000D02*
X210520000Y-70500000D01*
X217550000Y-64420000D02*
X218740000Y-62810000D01*
X213400000Y-70050000D02*
X212210000Y-71660000D01*
X219650000Y-66080000D02*
X220950000Y-64560000D01*
X215110000Y-71410000D02*
X213810000Y-72930000D01*
X221630000Y-67890000D02*
X223030000Y-66470000D01*
X216730000Y-72890000D02*
X215320000Y-74310000D01*
X223480000Y-69840000D02*
X224980000Y-68520000D01*
X218230000Y-74470000D02*
X216730000Y-75800000D01*
X225180000Y-71910000D02*
X226770000Y-70700000D01*
X219620000Y-76160000D02*
X218030000Y-77380000D01*
X226730000Y-74100000D02*
X228410000Y-73000000D01*
X220890000Y-77950000D02*
X219220000Y-79050000D01*
X228130000Y-76390000D02*
X229870000Y-75410000D01*
X222030000Y-79820000D02*
X220280000Y-80800000D01*
X229360000Y-78770000D02*
X231170000Y-77920000D01*
X223030000Y-81760000D02*
X221220000Y-82620000D01*
X230420000Y-81240000D02*
X232280000Y-80510000D01*
X223890000Y-83770000D02*
X222030000Y-84500000D01*
X231300000Y-83770000D02*
X233210000Y-83180000D01*
X224620000Y-85840000D02*
X222700000Y-86430000D01*
X232000000Y-86360000D02*
X233950000Y-85900000D01*
X225190000Y-87950000D02*
X223240000Y-88400000D01*
X232520000Y-88990000D02*
X234500000Y-88670000D01*
X225610000Y-90100000D02*
X223630000Y-90410000D01*
X232850000Y-91650000D02*
X234840000Y-91470000D01*
X225880000Y-92270000D02*
X223890000Y-92440000D01*
X232990000Y-94330000D02*
X234990000Y-94290000D01*
X226000000Y-94450000D02*
X224000000Y-94490000D01*
X232950000Y-97010000D02*
X234940000Y-97120000D01*
X225960000Y-96640000D02*
X223960000Y-96530000D01*
X232710000Y-99680000D02*
X234700000Y-99930000D01*
X225760000Y-98820000D02*
X223780000Y-98570000D01*
X232290000Y-102330000D02*
X234250000Y-102720000D01*
X225420000Y-100980000D02*
X223460000Y-100590000D01*
X231680000Y-104940000D02*
X233610000Y-105470000D01*
X224920000Y-103110000D02*
X222990000Y-102590000D01*
X230880000Y-107510000D02*
X232770000Y-108160000D01*
X224270000Y-105200000D02*
X222380000Y-104540000D01*
X229910000Y-110010000D02*
X231750000Y-110800000D01*
X223480000Y-107240000D02*
X221640000Y-106450000D01*
X228770000Y-112430000D02*
X230540000Y-113350000D01*
X222550000Y-109220000D02*
X220770000Y-108300000D01*
X227450000Y-114770000D02*
X229160000Y-115810000D01*
X221470000Y-111130000D02*
X219770000Y-110090000D01*
X225980000Y-117010000D02*
X227610000Y-118170000D01*
X220270000Y-112950000D02*
X218640000Y-111800000D01*
X224350000Y-119140000D02*
X225890000Y-120410000D01*
X218940000Y-114690000D02*
X217400000Y-113420000D01*
X222570000Y-121150000D02*
X224020000Y-122530000D01*
X217490000Y-116330000D02*
X216040000Y-114960000D01*
X220660000Y-123030000D02*
X222010000Y-124500000D01*
X215930000Y-117870000D02*
X214580000Y-116390000D01*
X218620000Y-124770000D02*
X219860000Y-126340000D01*
X214270000Y-119290000D02*
X213020000Y-117720000D01*
X216460000Y-126360000D02*
X217590000Y-128010000D01*
X212510000Y-120580000D02*
X211380000Y-118930000D01*
X214190000Y-127800000D02*
X215200000Y-129520000D01*
X210660000Y-121760000D02*
X209650000Y-120030000D01*
X211830000Y-129070000D02*
X212720000Y-130860000D01*
X208730000Y-122790000D02*
X207850000Y-121000000D01*
X209390000Y-130170000D02*
X210140000Y-132020000D01*
X206740000Y-123690000D02*
X205980000Y-121840000D01*
X206870000Y-131100000D02*
X207490000Y-133000000D01*
X204680000Y-124450000D02*
X204060000Y-122550000D01*
X204290000Y-131850000D02*
X204780000Y-133790000D01*
X202580000Y-125060000D02*
X202090000Y-123120000D01*
X201670000Y-132410000D02*
X202020000Y-134380000D01*
X200440000Y-125520000D02*
X200090000Y-123550000D01*
X199020000Y-132790000D02*
X199230000Y-134780000D01*
X198280000Y-125830000D02*
X198070000Y-123840000D01*
X196340000Y-132980000D02*
X196410000Y-134980000D01*
X196090000Y-125980000D02*
X196020000Y-123980000D01*
X193660000Y-132980000D02*
X193590000Y-134980000D01*
X193910000Y-125980000D02*
X193980000Y-123980000D01*
X190980000Y-132790000D02*
X190770000Y-134780000D01*
X191720000Y-125830000D02*
X191930000Y-123840000D01*
X188330000Y-132410000D02*
X187980000Y-134380000D01*
X189560000Y-125520000D02*
X189910000Y-123550000D01*
X185710000Y-131850000D02*
X185220000Y-133790000D01*
X187420000Y-125060000D02*
X187910000Y-123120000D01*
X183130000Y-131100000D02*
X182510000Y-133000000D01*
X185320000Y-124450000D02*
X185940000Y-122550000D01*
X180610000Y-130170000D02*
X179860000Y-132020000D01*
X183260000Y-123690000D02*
X184020000Y-121840000D01*
X178170000Y-129070000D02*
X177280000Y-130860000D01*
X181270000Y-122790000D02*
X182150000Y-121000000D01*
X175810000Y-127800000D02*
X174800000Y-129520000D01*
X179340000Y-121760000D02*
X180350000Y-120030000D01*
X173540000Y-126360000D02*
X172410000Y-128010000D01*
X177490000Y-120580000D02*
X178620000Y-118930000D01*
X171380000Y-124770000D02*
X170140000Y-126340000D01*
X175730000Y-119290000D02*
X176980000Y-117720000D01*
X169340000Y-123030000D02*
X167990000Y-124500000D01*
X174070000Y-117870000D02*
X175420000Y-116390000D01*
X167430000Y-121150000D02*
X165980000Y-122530000D01*
X172510000Y-116330000D02*
X173960000Y-114960000D01*
X165650000Y-119140000D02*
X164110000Y-120410000D01*
X171060000Y-114690000D02*
X172600000Y-113420000D01*
X164020000Y-117010000D02*
X162390000Y-118170000D01*
X169730000Y-112950000D02*
X171360000Y-111800000D01*
X162550000Y-114770000D02*
X160840000Y-115810000D01*
X168530000Y-111130000D02*
X170230000Y-110090000D01*
X161230000Y-112430000D02*
X159460000Y-113350000D01*
X167450000Y-109220000D02*
X169230000Y-108300000D01*
X160090000Y-110010000D02*
X158250000Y-110800000D01*
X166520000Y-107240000D02*
X168360000Y-106450000D01*
X159120000Y-107510000D02*
X157230000Y-108160000D01*
X165730000Y-105200000D02*
X167620000Y-104540000D01*
X158320000Y-104940000D02*
X156390000Y-105470000D01*
X165080000Y-103110000D02*
X167010000Y-102590000D01*
X157710000Y-102330000D02*
X155750000Y-102720000D01*
X164580000Y-100980000D02*
X166540000Y-100590000D01*
X157290000Y-99680000D02*
X155300000Y-99930000D01*
X164240000Y-98820000D02*
X166220000Y-98570000D01*
X157050000Y-97010000D02*
X155060000Y-97120000D01*
X164040000Y-96640000D02*
X166040000Y-96530000D01*
X157010000Y-94330000D02*
X155010000Y-94290000D01*
X164000000Y-94450000D02*
X166000000Y-94490000D01*
X157150000Y-91650000D02*
X155160000Y-91470000D01*
X164120000Y-92270000D02*
X166110000Y-92440000D01*
X157480000Y-88990000D02*
X155500000Y-88670000D01*
X164390000Y-90100000D02*
X166370000Y-90410000D01*
X158000000Y-86360000D02*
X156050000Y-85900000D01*
X164810000Y-87950000D02*
X166760000Y-88400000D01*
X158700000Y-83770000D02*
X156790000Y-83180000D01*
X165380000Y-85840000D02*
X167300000Y-86430000D01*
X159580000Y-81240000D02*
X157720000Y-80510000D01*
X166110000Y-83770000D02*
X167970000Y-84500000D01*
X160640000Y-78770000D02*
X158830000Y-77920000D01*
X166970000Y-81760000D02*
X168780000Y-82620000D01*
X161870000Y-76390000D02*
X160130000Y-75410000D01*
X167970000Y-79820000D02*
X169720000Y-80800000D01*
X163270000Y-74100000D02*
X161590000Y-73000000D01*
X169110000Y-77950000D02*
X170780000Y-79050000D01*
X164820000Y-71910000D02*
X163230000Y-70700000D01*
X170380000Y-76160000D02*
X171970000Y-77380000D01*
X166520000Y-69840000D02*
X165020000Y-68520000D01*
X171770000Y-74470000D02*
X173270000Y-75800000D01*
X168370000Y-67890000D02*
X166970000Y-66470000D01*
X173270000Y-72890000D02*
X174680000Y-74310000D01*
X170350000Y-66080000D02*
X169050000Y-64560000D01*
X174890000Y-71410000D02*
X176190000Y-72930000D01*
X172450000Y-64420000D02*
X171260000Y-62810000D01*
X176600000Y-70050000D02*
X177790000Y-71660000D01*
X174660000Y-62900000D02*
X173590000Y-61210000D01*
X178410000Y-68810000D02*
X179480000Y-70500000D01*
X176980000Y-61550000D02*
X176030000Y-59790000D01*
X180300000Y-67710000D02*
X181240000Y-69470000D01*
X179380000Y-60360000D02*
X178560000Y-58540000D01*
X182260000Y-66740000D02*
X183080000Y-68560000D01*
X181860000Y-59340000D02*
X181170000Y-57470000D01*
X184280000Y-65910000D02*
X184970000Y-67790000D01*
X184410000Y-58510000D02*
X183850000Y-56580000D01*
X186360000Y-65230000D02*
X186920000Y-67150000D01*
X187010000Y-57850000D02*
X186590000Y-55890000D01*
X188480000Y-64690000D02*
X188900000Y-66650000D01*
X189650000Y-57380000D02*
X189370000Y-55400000D01*
X190640000Y-64310000D02*
X190920000Y-66290000D01*
X192320000Y-57090000D02*
X192180000Y-55100000D01*
X192810000Y-64080000D02*
X192950000Y-66070000D01*
D12*
X200821429Y-142678571D02*
X200821429Y-141178571D01*
X199964286Y-142678571D02*
X200607143Y-141821429D01*
X199964286Y-141178571D02*
X200821429Y-142035714D01*
X199035715Y-141178571D02*
X198750001Y-141178571D01*
X198607143Y-141250000D01*
X198464286Y-141392857D01*
X198392858Y-141678571D01*
X198392858Y-142178571D01*
X198464286Y-142464286D01*
X198607143Y-142607143D01*
X198750001Y-142678571D01*
X199035715Y-142678571D01*
X199178572Y-142607143D01*
X199321429Y-142464286D01*
X199392858Y-142178571D01*
X199392858Y-141678571D01*
X199321429Y-141392857D01*
X199178572Y-141250000D01*
X199035715Y-141178571D01*
X199178572Y-140678571D02*
X199107143Y-140750000D01*
X199178572Y-140821429D01*
X199250001Y-140750000D01*
X199178572Y-140678571D01*
X199178572Y-140821429D01*
X198607143Y-140678571D02*
X198535715Y-140750000D01*
X198607143Y-140821429D01*
X198678572Y-140750000D01*
X198607143Y-140678571D01*
X198607143Y-140821429D01*
X197750000Y-142678571D02*
X197750000Y-141178571D01*
X196892857Y-142678571D01*
X196892857Y-141178571D01*
X196178571Y-142678571D02*
X196178571Y-141178571D01*
X195321428Y-142678571D01*
X195321428Y-141178571D01*
X194607142Y-141178571D02*
X194607142Y-142392857D01*
X194535714Y-142535714D01*
X194464285Y-142607143D01*
X194321428Y-142678571D01*
X194035714Y-142678571D01*
X193892856Y-142607143D01*
X193821428Y-142535714D01*
X193749999Y-142392857D01*
X193749999Y-141178571D01*
X193035713Y-142678571D02*
X193035713Y-141178571D01*
X192678570Y-141178571D01*
X192464285Y-141250000D01*
X192321427Y-141392857D01*
X192249999Y-141535714D01*
X192178570Y-141821429D01*
X192178570Y-142035714D01*
X192249999Y-142321429D01*
X192321427Y-142464286D01*
X192464285Y-142607143D01*
X192678570Y-142678571D01*
X193035713Y-142678571D01*
X193249999Y-141892857D02*
X192678570Y-141892857D01*
X191535713Y-141178571D02*
X191535713Y-142392857D01*
X191464285Y-142535714D01*
X191392856Y-142607143D01*
X191249999Y-142678571D01*
X190964285Y-142678571D01*
X190821427Y-142607143D01*
X190749999Y-142535714D01*
X190678570Y-142392857D01*
X190678570Y-141178571D01*
X189107141Y-142678571D02*
X189607141Y-141964286D01*
X189964284Y-142678571D02*
X189964284Y-141178571D01*
X189392856Y-141178571D01*
X189249998Y-141250000D01*
X189178570Y-141321429D01*
X189107141Y-141464286D01*
X189107141Y-141678571D01*
X189178570Y-141821429D01*
X189249998Y-141892857D01*
X189392856Y-141964286D01*
X189964284Y-141964286D01*
D10*
X109590429Y-137182701D02*
X109477126Y-135887648D01*
X109477126Y-135887648D02*
X107683976Y-136044529D01*
X107683976Y-136044529D02*
X107797278Y-137339582D01*
X107849571Y-137937299D02*
X107962874Y-139232352D01*
X107962874Y-139232352D02*
X109756024Y-139075471D01*
X109756024Y-139075471D02*
X109642722Y-137780418D01*
X102202722Y-137339582D02*
X102316024Y-136044529D01*
X102316024Y-136044529D02*
X100522874Y-135887648D01*
X100522874Y-135887648D02*
X100409571Y-137182701D01*
X100357278Y-137780418D02*
X100243976Y-139075471D01*
X100243976Y-139075471D02*
X102037126Y-139232352D01*
X102037126Y-139232352D02*
X102150429Y-137937299D01*
X199590429Y-137182701D02*
X199477126Y-135887648D01*
X199477126Y-135887648D02*
X197683976Y-136044529D01*
X197683976Y-136044529D02*
X197797278Y-137339582D01*
X197849571Y-137937299D02*
X197962874Y-139232352D01*
X197962874Y-139232352D02*
X199756024Y-139075471D01*
X199756024Y-139075471D02*
X199642722Y-137780418D01*
X192202722Y-137339582D02*
X192316024Y-136044529D01*
X192316024Y-136044529D02*
X190522874Y-135887648D01*
X190522874Y-135887648D02*
X190409571Y-137182701D01*
X190357278Y-137780418D02*
X190243976Y-139075471D01*
X190243976Y-139075471D02*
X192037126Y-139232352D01*
X192037126Y-139232352D02*
X192150429Y-137937299D01*
%LPC*%
D13*
X139500000Y-95000000D02*
G75*
G03X139500000Y-95000000I-34500000J0D01*
G01*
X229500000Y-95000000D02*
G75*
G03X229500000Y-95000000I-34500000J0D01*
G01*
D10*
G36*
X126231895Y-133689785D02*
X128804920Y-138070372D01*
X114823595Y-143221348D01*
X113939589Y-138218495D01*
X126231895Y-133689785D01*
X126231895Y-133689785D01*
G37*
G36*
X96060411Y-138218495D02*
X95176405Y-143221348D01*
X81195080Y-138070372D01*
X83768105Y-133689785D01*
X96060411Y-138218495D01*
X96060411Y-138218495D01*
G37*
G36*
X107898467Y-136201432D02*
X109293140Y-136079414D01*
X109389011Y-137175228D01*
X107994338Y-137297246D01*
X107898467Y-136201432D01*
X107898467Y-136201432D01*
G37*
G36*
X108050989Y-137944772D02*
X109445662Y-137822754D01*
X109541533Y-138918568D01*
X108146860Y-139040586D01*
X108050989Y-137944772D01*
X108050989Y-137944772D01*
G37*
G36*
X100706860Y-136079414D02*
X102101533Y-136201432D01*
X102005662Y-137297246D01*
X100610989Y-137175228D01*
X100706860Y-136079414D01*
X100706860Y-136079414D01*
G37*
G36*
X100554338Y-137822754D02*
X101949011Y-137944772D01*
X101853140Y-139040586D01*
X100458467Y-138918568D01*
X100554338Y-137822754D01*
X100554338Y-137822754D01*
G37*
D14*
X133110000Y-123110000D03*
X133817107Y-122402893D03*
X134524214Y-121695786D03*
X132402893Y-123817107D03*
X131695786Y-124524214D03*
X141720000Y-110210000D03*
X142102683Y-109286120D03*
X142485367Y-108362241D03*
X141337317Y-111133880D03*
X140954633Y-112057759D03*
X144750000Y-95000000D03*
X144750000Y-94000000D03*
X144750000Y-93000000D03*
X144750000Y-96000000D03*
X144750000Y-97000000D03*
X141720000Y-79790000D03*
X141337317Y-78866120D03*
X140954633Y-77942241D03*
X142102683Y-80713880D03*
X142485367Y-81637759D03*
X133110000Y-66890000D03*
X132402893Y-66182893D03*
X131695786Y-65475786D03*
X133817107Y-67597107D03*
X134524214Y-68304214D03*
X120210000Y-58280000D03*
X119286120Y-57897317D03*
X118362241Y-57514633D03*
X121133880Y-58662683D03*
X122057759Y-59045367D03*
X105000000Y-55250000D03*
X104000000Y-55250000D03*
X103000000Y-55250000D03*
X106000000Y-55250000D03*
X107000000Y-55250000D03*
X89790000Y-58280000D03*
X88866120Y-58662683D03*
X87942241Y-59045367D03*
X90713880Y-57897317D03*
X91637759Y-57514633D03*
X76890000Y-66890000D03*
X76182893Y-67597107D03*
X75475786Y-68304214D03*
X77597107Y-66182893D03*
X78304214Y-65475786D03*
X68280000Y-79790000D03*
X67897317Y-80713880D03*
X67514633Y-81637759D03*
X68662683Y-78866120D03*
X69045367Y-77942241D03*
X65250000Y-95000000D03*
X65250000Y-96000000D03*
X65250000Y-97000000D03*
X65250000Y-94000000D03*
X65250000Y-93000000D03*
X68280000Y-110210000D03*
X68662683Y-111133880D03*
X69045367Y-112057759D03*
X67897317Y-109286120D03*
X67514633Y-108362241D03*
X76890000Y-123110000D03*
X77597107Y-123817107D03*
X78304214Y-124524214D03*
X76182893Y-122402893D03*
X75475786Y-121695786D03*
X85960000Y-140960000D03*
X86883880Y-141342683D03*
X87807759Y-141725367D03*
X85036120Y-140577317D03*
X84112241Y-140194633D03*
X105000000Y-144750000D03*
X106000000Y-144750000D03*
X107000000Y-144750000D03*
X104000000Y-144750000D03*
X103000000Y-144750000D03*
X124040000Y-140960000D03*
X124963880Y-140577317D03*
X125887759Y-140194633D03*
X123116120Y-141342683D03*
X122192241Y-141725367D03*
D10*
G36*
X216231895Y-133689785D02*
X218804920Y-138070372D01*
X204823595Y-143221348D01*
X203939589Y-138218495D01*
X216231895Y-133689785D01*
X216231895Y-133689785D01*
G37*
G36*
X186060411Y-138218495D02*
X185176405Y-143221348D01*
X171195080Y-138070372D01*
X173768105Y-133689785D01*
X186060411Y-138218495D01*
X186060411Y-138218495D01*
G37*
G36*
X197898467Y-136201432D02*
X199293140Y-136079414D01*
X199389011Y-137175228D01*
X197994338Y-137297246D01*
X197898467Y-136201432D01*
X197898467Y-136201432D01*
G37*
G36*
X198050989Y-137944772D02*
X199445662Y-137822754D01*
X199541533Y-138918568D01*
X198146860Y-139040586D01*
X198050989Y-137944772D01*
X198050989Y-137944772D01*
G37*
G36*
X190706860Y-136079414D02*
X192101533Y-136201432D01*
X192005662Y-137297246D01*
X190610989Y-137175228D01*
X190706860Y-136079414D01*
X190706860Y-136079414D01*
G37*
G36*
X190554338Y-137822754D02*
X191949011Y-137944772D01*
X191853140Y-139040586D01*
X190458467Y-138918568D01*
X190554338Y-137822754D01*
X190554338Y-137822754D01*
G37*
D14*
X223110000Y-123110000D03*
X223817107Y-122402893D03*
X224524214Y-121695786D03*
X222402893Y-123817107D03*
X221695786Y-124524214D03*
X231720000Y-110210000D03*
X232102683Y-109286120D03*
X232485367Y-108362241D03*
X231337317Y-111133880D03*
X230954633Y-112057759D03*
X234750000Y-95000000D03*
X234750000Y-94000000D03*
X234750000Y-93000000D03*
X234750000Y-96000000D03*
X234750000Y-97000000D03*
X231720000Y-79790000D03*
X231337317Y-78866120D03*
X230954633Y-77942241D03*
X232102683Y-80713880D03*
X232485367Y-81637759D03*
X223110000Y-66890000D03*
X222402893Y-66182893D03*
X221695786Y-65475786D03*
X223817107Y-67597107D03*
X224524214Y-68304214D03*
X210210000Y-58280000D03*
X209286120Y-57897317D03*
X208362241Y-57514633D03*
X211133880Y-58662683D03*
X212057759Y-59045367D03*
X195000000Y-55250000D03*
X194000000Y-55250000D03*
X193000000Y-55250000D03*
X196000000Y-55250000D03*
X197000000Y-55250000D03*
X179790000Y-58280000D03*
X178866120Y-58662683D03*
X177942241Y-59045367D03*
X180713880Y-57897317D03*
X181637759Y-57514633D03*
X166890000Y-66890000D03*
X166182893Y-67597107D03*
X165475786Y-68304214D03*
X167597107Y-66182893D03*
X168304214Y-65475786D03*
X158280000Y-79790000D03*
X157897317Y-80713880D03*
X157514633Y-81637759D03*
X158662683Y-78866120D03*
X159045367Y-77942241D03*
X155250000Y-95000000D03*
X155250000Y-96000000D03*
X155250000Y-97000000D03*
X155250000Y-94000000D03*
X155250000Y-93000000D03*
X158280000Y-110210000D03*
X158662683Y-111133880D03*
X159045367Y-112057759D03*
X157897317Y-109286120D03*
X157514633Y-108362241D03*
X166890000Y-123110000D03*
X167597107Y-123817107D03*
X168304214Y-124524214D03*
X166182893Y-122402893D03*
X165475786Y-121695786D03*
X175960000Y-140960000D03*
X176883880Y-141342683D03*
X177807759Y-141725367D03*
X175036120Y-140577317D03*
X174112241Y-140194633D03*
X195000000Y-144750000D03*
X196000000Y-144750000D03*
X197000000Y-144750000D03*
X194000000Y-144750000D03*
X193000000Y-144750000D03*
X214040000Y-140960000D03*
X214963880Y-140577317D03*
X215887759Y-140194633D03*
X213116120Y-141342683D03*
X212192241Y-141725367D03*
D15*
X105000000Y-127000000D03*
X195000000Y-127000000D03*
M02*
