G04 #@! TF.FileFunction,Profile,NP*
%FSLAX46Y46*%
G04 Gerber Fmt 4.6, Leading zero omitted, Abs format (unit mm)*
G04 Created by KiCad (PCBNEW 4.0.2-1.fc23-product) date Sun 04 Sep 2016 23:35:13 BST*
%MOMM*%
G01*
G04 APERTURE LIST*
%ADD10C,0.150000*%
%ADD11C,0.100000*%
G04 APERTURE END LIST*
D10*
D11*
X78730000Y-125150000D02*
G75*
G03X77410000Y-126670000I-660000J-760000D01*
G01*
X73340000Y-122590000D02*
G75*
G03X74840000Y-121270000I750000J660000D01*
G01*
X74840000Y-121270000D02*
X74810000Y-121240000D01*
X74810000Y-121240000D02*
X74360000Y-120710000D01*
X74360000Y-120710000D02*
X73910000Y-120170000D01*
X73910000Y-120170000D02*
X73480000Y-119630000D01*
X73480000Y-119630000D02*
X73050000Y-119070000D01*
X73050000Y-119070000D02*
X72640000Y-118510000D01*
X72640000Y-118510000D02*
X72230000Y-117940000D01*
X72230000Y-117940000D02*
X71840000Y-117370000D01*
X71840000Y-117370000D02*
X71450000Y-116790000D01*
X71450000Y-116790000D02*
X71080000Y-116200000D01*
X71080000Y-116200000D02*
X70710000Y-115600000D01*
X70710000Y-115600000D02*
X70360000Y-115000000D01*
X70360000Y-115000000D02*
X70020000Y-114390000D01*
X70020000Y-114390000D02*
X69680000Y-113780000D01*
X69680000Y-113780000D02*
X69360000Y-113160000D01*
X69360000Y-113160000D02*
X69180000Y-112810000D01*
X73330000Y-122590000D02*
X73300000Y-122550000D01*
X73300000Y-122550000D02*
X72830000Y-122000000D01*
X72830000Y-122000000D02*
X72360000Y-121430000D01*
X72360000Y-121430000D02*
X71900000Y-120860000D01*
X71900000Y-120860000D02*
X71460000Y-120280000D01*
X71460000Y-120280000D02*
X71020000Y-119690000D01*
X71020000Y-119690000D02*
X70600000Y-119090000D01*
X70600000Y-119090000D02*
X70180000Y-118490000D01*
X70180000Y-118490000D02*
X69780000Y-117870000D01*
X69780000Y-117870000D02*
X69380000Y-117260000D01*
X69380000Y-117260000D02*
X69000000Y-116630000D01*
X69000000Y-116630000D02*
X68630000Y-116000000D01*
X68630000Y-116000000D02*
X68270000Y-115360000D01*
X68270000Y-115360000D02*
X67920000Y-114720000D01*
X67920000Y-114720000D02*
X67580000Y-114070000D01*
X67580000Y-114070000D02*
X67390000Y-113700000D01*
X69190000Y-112820000D02*
G75*
G03X67390000Y-113700000I-900000J-440000D01*
G01*
X65180000Y-108370000D02*
G75*
G03X67080000Y-107730000I950000J320000D01*
G01*
X67080000Y-107730000D02*
X66960000Y-107360000D01*
X66960000Y-107360000D02*
X66750000Y-106690000D01*
X66750000Y-106690000D02*
X66550000Y-106030000D01*
X66550000Y-106030000D02*
X66360000Y-105350000D01*
X66360000Y-105350000D02*
X66190000Y-104680000D01*
X66190000Y-104680000D02*
X66030000Y-104000000D01*
X66030000Y-104000000D02*
X65870000Y-103320000D01*
X65870000Y-103320000D02*
X65730000Y-102630000D01*
X65730000Y-102630000D02*
X65610000Y-101950000D01*
X65610000Y-101950000D02*
X65490000Y-101260000D01*
X65490000Y-101260000D02*
X65390000Y-100570000D01*
X65390000Y-100570000D02*
X65300000Y-99870000D01*
X65300000Y-99870000D02*
X65220000Y-99180000D01*
X65220000Y-99180000D02*
X65150000Y-98490000D01*
X65150000Y-98490000D02*
X65100000Y-97790000D01*
X65100000Y-97790000D02*
X65090000Y-97750000D01*
X65180000Y-108370000D02*
X65060000Y-107980000D01*
X65060000Y-107980000D02*
X64840000Y-107280000D01*
X64840000Y-107280000D02*
X64630000Y-106580000D01*
X64630000Y-106580000D02*
X64430000Y-105870000D01*
X64430000Y-105870000D02*
X64250000Y-105160000D01*
X64250000Y-105160000D02*
X64080000Y-104450000D01*
X64080000Y-104450000D02*
X63920000Y-103730000D01*
X63920000Y-103730000D02*
X63770000Y-103010000D01*
X63770000Y-103010000D02*
X63640000Y-102290000D01*
X63640000Y-102290000D02*
X63520000Y-101570000D01*
X63520000Y-101570000D02*
X63410000Y-100850000D01*
X63410000Y-100850000D02*
X63310000Y-100120000D01*
X63310000Y-100120000D02*
X63230000Y-99390000D01*
X63230000Y-99390000D02*
X63160000Y-98660000D01*
X63160000Y-98660000D02*
X63100000Y-97930000D01*
X63100000Y-97930000D02*
X63100000Y-97890000D01*
X65100000Y-97750000D02*
G75*
G03X63100000Y-97890000I-1000000J-70000D01*
G01*
X63110000Y-92110000D02*
G75*
G03X65090000Y-92250000I990000J-70000D01*
G01*
X65090000Y-92250000D02*
X65100000Y-92210000D01*
X65100000Y-92210000D02*
X65150000Y-91510000D01*
X65150000Y-91510000D02*
X65220000Y-90820000D01*
X65220000Y-90820000D02*
X65300000Y-90130000D01*
X65300000Y-90130000D02*
X65390000Y-89430000D01*
X65390000Y-89430000D02*
X65490000Y-88740000D01*
X65490000Y-88740000D02*
X65610000Y-88050000D01*
X65610000Y-88050000D02*
X65730000Y-87370000D01*
X65730000Y-87370000D02*
X65870000Y-86680000D01*
X65870000Y-86680000D02*
X66030000Y-86000000D01*
X66030000Y-86000000D02*
X66190000Y-85320000D01*
X66190000Y-85320000D02*
X66360000Y-84650000D01*
X66360000Y-84650000D02*
X66550000Y-83970000D01*
X66550000Y-83970000D02*
X66750000Y-83310000D01*
X66750000Y-83310000D02*
X66960000Y-82640000D01*
X66960000Y-82640000D02*
X67080000Y-82270000D01*
X63100000Y-92110000D02*
X63100000Y-92070000D01*
X63100000Y-92070000D02*
X63160000Y-91340000D01*
X63160000Y-91340000D02*
X63230000Y-90610000D01*
X63230000Y-90610000D02*
X63310000Y-89880000D01*
X63310000Y-89880000D02*
X63410000Y-89150000D01*
X63410000Y-89150000D02*
X63520000Y-88430000D01*
X63520000Y-88430000D02*
X63640000Y-87710000D01*
X63640000Y-87710000D02*
X63770000Y-86990000D01*
X63770000Y-86990000D02*
X63920000Y-86270000D01*
X63920000Y-86270000D02*
X64080000Y-85550000D01*
X64080000Y-85550000D02*
X64250000Y-84840000D01*
X64250000Y-84840000D02*
X64430000Y-84130000D01*
X64430000Y-84130000D02*
X64630000Y-83420000D01*
X64630000Y-83420000D02*
X64840000Y-82720000D01*
X64840000Y-82720000D02*
X65060000Y-82020000D01*
X65060000Y-82020000D02*
X65180000Y-81630000D01*
X67080000Y-82270000D02*
G75*
G03X65180000Y-81630000I-950000J320000D01*
G01*
X67400000Y-76290000D02*
G75*
G03X69180000Y-77190000I890000J-450000D01*
G01*
X69180000Y-77190000D02*
X69360000Y-76840000D01*
X69360000Y-76840000D02*
X69680000Y-76220000D01*
X69680000Y-76220000D02*
X70020000Y-75610000D01*
X70020000Y-75610000D02*
X70360000Y-75000000D01*
X70360000Y-75000000D02*
X70710000Y-74400000D01*
X70710000Y-74400000D02*
X71080000Y-73800000D01*
X71080000Y-73800000D02*
X71450000Y-73210000D01*
X71450000Y-73210000D02*
X71840000Y-72630000D01*
X71840000Y-72630000D02*
X72230000Y-72060000D01*
X72230000Y-72060000D02*
X72640000Y-71490000D01*
X72640000Y-71490000D02*
X73050000Y-70930000D01*
X73050000Y-70930000D02*
X73480000Y-70370000D01*
X73480000Y-70370000D02*
X73910000Y-69830000D01*
X73910000Y-69830000D02*
X74360000Y-69290000D01*
X74360000Y-69290000D02*
X74810000Y-68760000D01*
X74810000Y-68760000D02*
X74840000Y-68730000D01*
X67390000Y-76300000D02*
X67580000Y-75930000D01*
X67580000Y-75930000D02*
X67920000Y-75280000D01*
X67920000Y-75280000D02*
X68270000Y-74640000D01*
X68270000Y-74640000D02*
X68630000Y-74000000D01*
X68630000Y-74000000D02*
X69000000Y-73370000D01*
X69000000Y-73370000D02*
X69380000Y-72740000D01*
X69380000Y-72740000D02*
X69780000Y-72130000D01*
X69780000Y-72130000D02*
X70180000Y-71510000D01*
X70180000Y-71510000D02*
X70600000Y-70910000D01*
X70600000Y-70910000D02*
X71020000Y-70310000D01*
X71020000Y-70310000D02*
X71460000Y-69720000D01*
X71460000Y-69720000D02*
X71900000Y-69140000D01*
X71900000Y-69140000D02*
X72360000Y-68570000D01*
X72360000Y-68570000D02*
X72830000Y-68000000D01*
X72830000Y-68000000D02*
X73300000Y-67450000D01*
X73300000Y-67450000D02*
X73330000Y-67410000D01*
X74850000Y-68730000D02*
G75*
G03X73330000Y-67410000I-760000J660000D01*
G01*
X77410000Y-63340000D02*
G75*
G03X78730000Y-64840000I660000J-750000D01*
G01*
X78730000Y-64840000D02*
X78760000Y-64810000D01*
X78760000Y-64810000D02*
X79290000Y-64360000D01*
X79290000Y-64360000D02*
X79830000Y-63910000D01*
X79830000Y-63910000D02*
X80370000Y-63480000D01*
X80370000Y-63480000D02*
X80930000Y-63050000D01*
X80930000Y-63050000D02*
X81490000Y-62640000D01*
X81490000Y-62640000D02*
X82060000Y-62230000D01*
X82060000Y-62230000D02*
X82630000Y-61840000D01*
X82630000Y-61840000D02*
X83210000Y-61450000D01*
X83210000Y-61450000D02*
X83800000Y-61080000D01*
X83800000Y-61080000D02*
X84400000Y-60710000D01*
X84400000Y-60710000D02*
X85000000Y-60360000D01*
X85000000Y-60360000D02*
X85610000Y-60020000D01*
X85610000Y-60020000D02*
X86220000Y-59680000D01*
X86220000Y-59680000D02*
X86840000Y-59360000D01*
X86840000Y-59360000D02*
X87190000Y-59180000D01*
X77410000Y-63330000D02*
X77450000Y-63300000D01*
X77450000Y-63300000D02*
X78000000Y-62830000D01*
X78000000Y-62830000D02*
X78570000Y-62360000D01*
X78570000Y-62360000D02*
X79140000Y-61900000D01*
X79140000Y-61900000D02*
X79720000Y-61460000D01*
X79720000Y-61460000D02*
X80310000Y-61020000D01*
X80310000Y-61020000D02*
X80910000Y-60600000D01*
X80910000Y-60600000D02*
X81510000Y-60180000D01*
X81510000Y-60180000D02*
X82130000Y-59780000D01*
X82130000Y-59780000D02*
X82740000Y-59380000D01*
X82740000Y-59380000D02*
X83370000Y-59000000D01*
X83370000Y-59000000D02*
X84000000Y-58630000D01*
X84000000Y-58630000D02*
X84640000Y-58270000D01*
X84640000Y-58270000D02*
X85280000Y-57920000D01*
X85280000Y-57920000D02*
X85930000Y-57580000D01*
X85930000Y-57580000D02*
X86300000Y-57390000D01*
X87180000Y-59190000D02*
G75*
G03X86300000Y-57390000I-440000J900000D01*
G01*
X91630000Y-55180000D02*
G75*
G03X92270000Y-57080000I320000J-950000D01*
G01*
X92270000Y-57080000D02*
X92640000Y-56960000D01*
X92640000Y-56960000D02*
X93310000Y-56750000D01*
X93310000Y-56750000D02*
X93970000Y-56550000D01*
X93970000Y-56550000D02*
X94650000Y-56360000D01*
X94650000Y-56360000D02*
X95320000Y-56190000D01*
X95320000Y-56190000D02*
X96000000Y-56030000D01*
X96000000Y-56030000D02*
X96680000Y-55870000D01*
X96680000Y-55870000D02*
X97370000Y-55730000D01*
X97370000Y-55730000D02*
X98050000Y-55610000D01*
X98050000Y-55610000D02*
X98740000Y-55490000D01*
X98740000Y-55490000D02*
X99430000Y-55390000D01*
X99430000Y-55390000D02*
X100130000Y-55300000D01*
X100130000Y-55300000D02*
X100820000Y-55220000D01*
X100820000Y-55220000D02*
X101510000Y-55150000D01*
X101510000Y-55150000D02*
X102210000Y-55100000D01*
X102210000Y-55100000D02*
X102250000Y-55090000D01*
X91630000Y-55180000D02*
X92020000Y-55060000D01*
X92020000Y-55060000D02*
X92720000Y-54840000D01*
X92720000Y-54840000D02*
X93420000Y-54630000D01*
X93420000Y-54630000D02*
X94130000Y-54430000D01*
X94130000Y-54430000D02*
X94840000Y-54250000D01*
X94840000Y-54250000D02*
X95550000Y-54080000D01*
X95550000Y-54080000D02*
X96270000Y-53920000D01*
X96270000Y-53920000D02*
X96990000Y-53770000D01*
X96990000Y-53770000D02*
X97710000Y-53640000D01*
X97710000Y-53640000D02*
X98430000Y-53520000D01*
X98430000Y-53520000D02*
X99150000Y-53410000D01*
X99150000Y-53410000D02*
X99880000Y-53310000D01*
X99880000Y-53310000D02*
X100610000Y-53230000D01*
X100610000Y-53230000D02*
X101340000Y-53160000D01*
X101340000Y-53160000D02*
X102070000Y-53100000D01*
X102070000Y-53100000D02*
X102110000Y-53100000D01*
X102250000Y-55100000D02*
G75*
G03X102110000Y-53100000I-70000J1000000D01*
G01*
X107890000Y-53110000D02*
G75*
G03X107750000Y-55090000I-70000J-990000D01*
G01*
X107750000Y-55090000D02*
X107790000Y-55100000D01*
X107790000Y-55100000D02*
X108490000Y-55150000D01*
X108490000Y-55150000D02*
X109180000Y-55220000D01*
X109180000Y-55220000D02*
X109870000Y-55300000D01*
X109870000Y-55300000D02*
X110570000Y-55390000D01*
X110570000Y-55390000D02*
X111260000Y-55490000D01*
X111260000Y-55490000D02*
X111950000Y-55610000D01*
X111950000Y-55610000D02*
X112630000Y-55730000D01*
X112630000Y-55730000D02*
X113320000Y-55870000D01*
X113320000Y-55870000D02*
X114000000Y-56030000D01*
X114000000Y-56030000D02*
X114680000Y-56190000D01*
X114680000Y-56190000D02*
X115350000Y-56360000D01*
X115350000Y-56360000D02*
X116030000Y-56550000D01*
X116030000Y-56550000D02*
X116690000Y-56750000D01*
X116690000Y-56750000D02*
X117360000Y-56960000D01*
X117360000Y-56960000D02*
X117730000Y-57080000D01*
X107890000Y-53100000D02*
X107930000Y-53100000D01*
X107930000Y-53100000D02*
X108660000Y-53160000D01*
X108660000Y-53160000D02*
X109390000Y-53230000D01*
X109390000Y-53230000D02*
X110120000Y-53310000D01*
X110120000Y-53310000D02*
X110850000Y-53410000D01*
X110850000Y-53410000D02*
X111570000Y-53520000D01*
X111570000Y-53520000D02*
X112290000Y-53640000D01*
X112290000Y-53640000D02*
X113010000Y-53770000D01*
X113010000Y-53770000D02*
X113730000Y-53920000D01*
X113730000Y-53920000D02*
X114450000Y-54080000D01*
X114450000Y-54080000D02*
X115160000Y-54250000D01*
X115160000Y-54250000D02*
X115870000Y-54430000D01*
X115870000Y-54430000D02*
X116580000Y-54630000D01*
X116580000Y-54630000D02*
X117280000Y-54840000D01*
X117280000Y-54840000D02*
X117980000Y-55060000D01*
X117980000Y-55060000D02*
X118370000Y-55180000D01*
X117730000Y-57080000D02*
G75*
G03X118370000Y-55180000I320000J950000D01*
G01*
X123710000Y-57400000D02*
G75*
G03X122810000Y-59180000I-450000J-890000D01*
G01*
X122810000Y-59180000D02*
X123160000Y-59360000D01*
X123160000Y-59360000D02*
X123780000Y-59680000D01*
X123780000Y-59680000D02*
X124390000Y-60020000D01*
X124390000Y-60020000D02*
X125000000Y-60360000D01*
X125000000Y-60360000D02*
X125600000Y-60710000D01*
X125600000Y-60710000D02*
X126200000Y-61080000D01*
X126200000Y-61080000D02*
X126790000Y-61450000D01*
X126790000Y-61450000D02*
X127370000Y-61840000D01*
X127370000Y-61840000D02*
X127940000Y-62230000D01*
X127940000Y-62230000D02*
X128510000Y-62640000D01*
X128510000Y-62640000D02*
X129070000Y-63050000D01*
X129070000Y-63050000D02*
X129630000Y-63480000D01*
X129630000Y-63480000D02*
X130170000Y-63910000D01*
X130170000Y-63910000D02*
X130710000Y-64360000D01*
X130710000Y-64360000D02*
X131240000Y-64810000D01*
X131240000Y-64810000D02*
X131270000Y-64840000D01*
X123700000Y-57390000D02*
X124070000Y-57580000D01*
X124070000Y-57580000D02*
X124720000Y-57920000D01*
X124720000Y-57920000D02*
X125360000Y-58270000D01*
X125360000Y-58270000D02*
X126000000Y-58630000D01*
X126000000Y-58630000D02*
X126630000Y-59000000D01*
X126630000Y-59000000D02*
X127260000Y-59380000D01*
X127260000Y-59380000D02*
X127870000Y-59780000D01*
X127870000Y-59780000D02*
X128490000Y-60180000D01*
X128490000Y-60180000D02*
X129090000Y-60600000D01*
X129090000Y-60600000D02*
X129690000Y-61020000D01*
X129690000Y-61020000D02*
X130280000Y-61460000D01*
X130280000Y-61460000D02*
X130860000Y-61900000D01*
X130860000Y-61900000D02*
X131430000Y-62360000D01*
X131430000Y-62360000D02*
X132000000Y-62830000D01*
X132000000Y-62830000D02*
X132550000Y-63300000D01*
X132550000Y-63300000D02*
X132590000Y-63330000D01*
X131270000Y-64850000D02*
G75*
G03X132590000Y-63330000I660000J760000D01*
G01*
X136660000Y-67410000D02*
G75*
G03X135160000Y-68730000I-750000J-660000D01*
G01*
X135160000Y-68730000D02*
X135190000Y-68760000D01*
X135190000Y-68760000D02*
X135640000Y-69290000D01*
X135640000Y-69290000D02*
X136090000Y-69830000D01*
X136090000Y-69830000D02*
X136520000Y-70370000D01*
X136520000Y-70370000D02*
X136950000Y-70930000D01*
X136950000Y-70930000D02*
X137360000Y-71490000D01*
X137360000Y-71490000D02*
X137770000Y-72060000D01*
X137770000Y-72060000D02*
X138160000Y-72630000D01*
X138160000Y-72630000D02*
X138550000Y-73210000D01*
X138550000Y-73210000D02*
X138920000Y-73800000D01*
X138920000Y-73800000D02*
X139290000Y-74400000D01*
X139290000Y-74400000D02*
X139640000Y-75000000D01*
X139640000Y-75000000D02*
X139980000Y-75610000D01*
X139980000Y-75610000D02*
X140320000Y-76220000D01*
X140320000Y-76220000D02*
X140640000Y-76840000D01*
X140640000Y-76840000D02*
X140820000Y-77190000D01*
X136670000Y-67410000D02*
X136700000Y-67450000D01*
X136700000Y-67450000D02*
X137170000Y-68000000D01*
X137170000Y-68000000D02*
X137640000Y-68570000D01*
X137640000Y-68570000D02*
X138100000Y-69140000D01*
X138100000Y-69140000D02*
X138540000Y-69720000D01*
X138540000Y-69720000D02*
X138980000Y-70310000D01*
X138980000Y-70310000D02*
X139400000Y-70910000D01*
X139400000Y-70910000D02*
X139820000Y-71510000D01*
X139820000Y-71510000D02*
X140220000Y-72130000D01*
X140220000Y-72130000D02*
X140620000Y-72740000D01*
X140620000Y-72740000D02*
X141000000Y-73370000D01*
X141000000Y-73370000D02*
X141370000Y-74000000D01*
X141370000Y-74000000D02*
X141730000Y-74640000D01*
X141730000Y-74640000D02*
X142080000Y-75280000D01*
X142080000Y-75280000D02*
X142420000Y-75930000D01*
X142420000Y-75930000D02*
X142610000Y-76300000D01*
X140810000Y-77180000D02*
G75*
G03X142610000Y-76300000I900000J440000D01*
G01*
X144820000Y-81630000D02*
G75*
G03X142920000Y-82270000I-950000J-320000D01*
G01*
X142920000Y-82270000D02*
X143040000Y-82640000D01*
X143040000Y-82640000D02*
X143250000Y-83310000D01*
X143250000Y-83310000D02*
X143450000Y-83970000D01*
X143450000Y-83970000D02*
X143640000Y-84650000D01*
X143640000Y-84650000D02*
X143810000Y-85320000D01*
X143810000Y-85320000D02*
X143970000Y-86000000D01*
X143970000Y-86000000D02*
X144130000Y-86680000D01*
X144130000Y-86680000D02*
X144270000Y-87370000D01*
X144270000Y-87370000D02*
X144390000Y-88050000D01*
X144390000Y-88050000D02*
X144510000Y-88740000D01*
X144510000Y-88740000D02*
X144610000Y-89430000D01*
X144610000Y-89430000D02*
X144700000Y-90130000D01*
X144700000Y-90130000D02*
X144780000Y-90820000D01*
X144780000Y-90820000D02*
X144850000Y-91510000D01*
X144850000Y-91510000D02*
X144900000Y-92210000D01*
X144900000Y-92210000D02*
X144910000Y-92250000D01*
X144820000Y-81630000D02*
X144940000Y-82020000D01*
X144940000Y-82020000D02*
X145160000Y-82720000D01*
X145160000Y-82720000D02*
X145370000Y-83420000D01*
X145370000Y-83420000D02*
X145570000Y-84130000D01*
X145570000Y-84130000D02*
X145750000Y-84840000D01*
X145750000Y-84840000D02*
X145920000Y-85550000D01*
X145920000Y-85550000D02*
X146080000Y-86270000D01*
X146080000Y-86270000D02*
X146230000Y-86990000D01*
X146230000Y-86990000D02*
X146360000Y-87710000D01*
X146360000Y-87710000D02*
X146480000Y-88430000D01*
X146480000Y-88430000D02*
X146590000Y-89150000D01*
X146590000Y-89150000D02*
X146690000Y-89880000D01*
X146690000Y-89880000D02*
X146770000Y-90610000D01*
X146770000Y-90610000D02*
X146840000Y-91340000D01*
X146840000Y-91340000D02*
X146900000Y-92070000D01*
X146900000Y-92070000D02*
X146900000Y-92110000D01*
X144900000Y-92250000D02*
G75*
G03X146900000Y-92110000I1000000J70000D01*
G01*
X146890000Y-97890000D02*
G75*
G03X144910000Y-97750000I-990000J70000D01*
G01*
X144910000Y-97750000D02*
X144900000Y-97790000D01*
X144900000Y-97790000D02*
X144850000Y-98490000D01*
X144850000Y-98490000D02*
X144780000Y-99180000D01*
X144780000Y-99180000D02*
X144700000Y-99870000D01*
X144700000Y-99870000D02*
X144610000Y-100570000D01*
X144610000Y-100570000D02*
X144510000Y-101260000D01*
X144510000Y-101260000D02*
X144390000Y-101950000D01*
X144390000Y-101950000D02*
X144270000Y-102630000D01*
X144270000Y-102630000D02*
X144130000Y-103320000D01*
X144130000Y-103320000D02*
X143970000Y-104000000D01*
X143970000Y-104000000D02*
X143810000Y-104680000D01*
X143810000Y-104680000D02*
X143640000Y-105350000D01*
X143640000Y-105350000D02*
X143450000Y-106030000D01*
X143450000Y-106030000D02*
X143250000Y-106690000D01*
X143250000Y-106690000D02*
X143040000Y-107360000D01*
X143040000Y-107360000D02*
X142920000Y-107730000D01*
X146900000Y-97890000D02*
X146900000Y-97930000D01*
X146900000Y-97930000D02*
X146840000Y-98660000D01*
X146840000Y-98660000D02*
X146770000Y-99390000D01*
X146770000Y-99390000D02*
X146690000Y-100120000D01*
X146690000Y-100120000D02*
X146590000Y-100850000D01*
X146590000Y-100850000D02*
X146480000Y-101570000D01*
X146480000Y-101570000D02*
X146360000Y-102290000D01*
X146360000Y-102290000D02*
X146230000Y-103010000D01*
X146230000Y-103010000D02*
X146080000Y-103730000D01*
X146080000Y-103730000D02*
X145920000Y-104450000D01*
X145920000Y-104450000D02*
X145750000Y-105160000D01*
X145750000Y-105160000D02*
X145570000Y-105870000D01*
X145570000Y-105870000D02*
X145370000Y-106580000D01*
X145370000Y-106580000D02*
X145160000Y-107280000D01*
X145160000Y-107280000D02*
X144940000Y-107980000D01*
X144940000Y-107980000D02*
X144820000Y-108370000D01*
X142920000Y-107730000D02*
G75*
G03X144820000Y-108370000I950000J-320000D01*
G01*
X142600000Y-113710000D02*
G75*
G03X140820000Y-112810000I-890000J450000D01*
G01*
X140820000Y-112810000D02*
X140640000Y-113160000D01*
X140640000Y-113160000D02*
X140320000Y-113780000D01*
X140320000Y-113780000D02*
X139980000Y-114390000D01*
X139980000Y-114390000D02*
X139640000Y-115000000D01*
X139640000Y-115000000D02*
X139290000Y-115600000D01*
X139290000Y-115600000D02*
X138920000Y-116200000D01*
X138920000Y-116200000D02*
X138550000Y-116790000D01*
X138550000Y-116790000D02*
X138160000Y-117370000D01*
X138160000Y-117370000D02*
X137770000Y-117940000D01*
X137770000Y-117940000D02*
X137360000Y-118510000D01*
X137360000Y-118510000D02*
X136950000Y-119070000D01*
X136950000Y-119070000D02*
X136520000Y-119630000D01*
X136520000Y-119630000D02*
X136090000Y-120170000D01*
X136090000Y-120170000D02*
X135640000Y-120710000D01*
X135640000Y-120710000D02*
X135190000Y-121240000D01*
X135190000Y-121240000D02*
X135160000Y-121270000D01*
X142610000Y-113700000D02*
X142420000Y-114070000D01*
X142420000Y-114070000D02*
X142080000Y-114720000D01*
X142080000Y-114720000D02*
X141730000Y-115360000D01*
X141730000Y-115360000D02*
X141370000Y-116000000D01*
X141370000Y-116000000D02*
X141000000Y-116630000D01*
X141000000Y-116630000D02*
X140620000Y-117260000D01*
X140620000Y-117260000D02*
X140220000Y-117870000D01*
X140220000Y-117870000D02*
X139820000Y-118490000D01*
X139820000Y-118490000D02*
X139400000Y-119090000D01*
X139400000Y-119090000D02*
X138980000Y-119690000D01*
X138980000Y-119690000D02*
X138540000Y-120280000D01*
X138540000Y-120280000D02*
X138100000Y-120860000D01*
X138100000Y-120860000D02*
X137640000Y-121430000D01*
X137640000Y-121430000D02*
X137170000Y-122000000D01*
X137170000Y-122000000D02*
X136700000Y-122550000D01*
X136700000Y-122550000D02*
X136670000Y-122590000D01*
X135150000Y-121270000D02*
G75*
G03X136670000Y-122590000I760000J-660000D01*
G01*
X132590000Y-126660000D02*
G75*
G03X131270000Y-125160000I-660000J750000D01*
G01*
X126650000Y-140060000D02*
G75*
G03X127510000Y-141880000I430000J-910000D01*
G01*
X122230000Y-144060000D02*
G75*
G03X121570000Y-142180000I-330000J940000D01*
G01*
X107740000Y-144920000D02*
G75*
G03X107860000Y-146920000I60000J-1000000D01*
G01*
X102150000Y-146920000D02*
G75*
G03X102250000Y-144920000I50000J1000000D01*
G01*
X88430000Y-142180000D02*
G75*
G03X87770000Y-144060000I-330000J-940000D01*
G01*
X82480000Y-141870000D02*
G75*
G03X83360000Y-140070000I440000J900000D01*
G01*
X126029179Y-129022938D02*
G75*
G03X125710000Y-130390000I540821J-847062D01*
G01*
X131270000Y-125160000D02*
X131240000Y-125190000D01*
X131240000Y-125190000D02*
X130710000Y-125640000D01*
X130710000Y-125640000D02*
X130170000Y-126090000D01*
X130170000Y-126090000D02*
X129630000Y-126520000D01*
X129630000Y-126520000D02*
X129070000Y-126950000D01*
X129070000Y-126950000D02*
X128510000Y-127360000D01*
X128510000Y-127360000D02*
X127940000Y-127770000D01*
X127940000Y-127770000D02*
X127370000Y-128160000D01*
X127370000Y-128160000D02*
X126790000Y-128550000D01*
X126790000Y-128550000D02*
X126200000Y-128920000D01*
X126200000Y-128920000D02*
X126040000Y-129020000D01*
X132590000Y-126670000D02*
X132550000Y-126700000D01*
X132550000Y-126700000D02*
X132000000Y-127170000D01*
X132000000Y-127170000D02*
X131430000Y-127640000D01*
X131430000Y-127640000D02*
X130860000Y-128100000D01*
X130860000Y-128100000D02*
X130280000Y-128540000D01*
X130280000Y-128540000D02*
X129690000Y-128980000D01*
X129690000Y-128980000D02*
X129090000Y-129400000D01*
X129090000Y-129400000D02*
X128490000Y-129820000D01*
X128490000Y-129820000D02*
X127910000Y-130200000D01*
X125710000Y-130390000D02*
X130250000Y-138150000D01*
X127910000Y-130200000D02*
X132490000Y-138010000D01*
X132120000Y-139380000D02*
G75*
G03X132490000Y-138010000I-500000J870000D01*
G01*
X130250000Y-138150000D02*
X130000000Y-138300000D01*
X130000000Y-138300000D02*
X129240000Y-138730000D01*
X129240000Y-138730000D02*
X128470000Y-139150000D01*
X128470000Y-139150000D02*
X127700000Y-139550000D01*
X127700000Y-139550000D02*
X126920000Y-139940000D01*
X126920000Y-139940000D02*
X126640000Y-140070000D01*
X132140000Y-139360000D02*
X131780000Y-139570000D01*
X131780000Y-139570000D02*
X131000000Y-140030000D01*
X131000000Y-140030000D02*
X130210000Y-140480000D01*
X130210000Y-140480000D02*
X129410000Y-140910000D01*
X129410000Y-140910000D02*
X128610000Y-141330000D01*
X128610000Y-141330000D02*
X127800000Y-141740000D01*
X127800000Y-141740000D02*
X127510000Y-141880000D01*
X121570000Y-142180000D02*
X121280000Y-142280000D01*
X121280000Y-142280000D02*
X120450000Y-142550000D01*
X120450000Y-142550000D02*
X119620000Y-142820000D01*
X119620000Y-142820000D02*
X118780000Y-143060000D01*
X118780000Y-143060000D02*
X117940000Y-143300000D01*
X117940000Y-143300000D02*
X117100000Y-143510000D01*
X117100000Y-143510000D02*
X116250000Y-143720000D01*
X116250000Y-143720000D02*
X115400000Y-143910000D01*
X115400000Y-143910000D02*
X114540000Y-144080000D01*
X114540000Y-144080000D02*
X113680000Y-144240000D01*
X113680000Y-144240000D02*
X112820000Y-144380000D01*
X112820000Y-144380000D02*
X111960000Y-144510000D01*
X111960000Y-144510000D02*
X111090000Y-144630000D01*
X111090000Y-144630000D02*
X110230000Y-144730000D01*
X110230000Y-144730000D02*
X109360000Y-144810000D01*
X109360000Y-144810000D02*
X108490000Y-144880000D01*
X108490000Y-144880000D02*
X107750000Y-144920000D01*
X122230000Y-144060000D02*
X121930000Y-144170000D01*
X121930000Y-144170000D02*
X121070000Y-144450000D01*
X121070000Y-144450000D02*
X120200000Y-144730000D01*
X120200000Y-144730000D02*
X119330000Y-144990000D01*
X119330000Y-144990000D02*
X118460000Y-145230000D01*
X118460000Y-145230000D02*
X117580000Y-145460000D01*
X117580000Y-145460000D02*
X116700000Y-145670000D01*
X116700000Y-145670000D02*
X115810000Y-145860000D01*
X115810000Y-145860000D02*
X114920000Y-146040000D01*
X114920000Y-146040000D02*
X114030000Y-146210000D01*
X114030000Y-146210000D02*
X113130000Y-146360000D01*
X113130000Y-146360000D02*
X112240000Y-146490000D01*
X112240000Y-146490000D02*
X111340000Y-146610000D01*
X111340000Y-146610000D02*
X110440000Y-146720000D01*
X110440000Y-146720000D02*
X109530000Y-146800000D01*
X109530000Y-146800000D02*
X108630000Y-146870000D01*
X108630000Y-146870000D02*
X107860000Y-146920000D01*
X102250000Y-144920000D02*
X101510000Y-144880000D01*
X101510000Y-144880000D02*
X100640000Y-144810000D01*
X100640000Y-144810000D02*
X99770000Y-144730000D01*
X99770000Y-144730000D02*
X98910000Y-144630000D01*
X98910000Y-144630000D02*
X98040000Y-144510000D01*
X98040000Y-144510000D02*
X97180000Y-144380000D01*
X97180000Y-144380000D02*
X96320000Y-144240000D01*
X96320000Y-144240000D02*
X95460000Y-144080000D01*
X95460000Y-144080000D02*
X94600000Y-143910000D01*
X94600000Y-143910000D02*
X93750000Y-143720000D01*
X93750000Y-143720000D02*
X92900000Y-143510000D01*
X92900000Y-143510000D02*
X92060000Y-143300000D01*
X92060000Y-143300000D02*
X91220000Y-143060000D01*
X91220000Y-143060000D02*
X90380000Y-142820000D01*
X90380000Y-142820000D02*
X89550000Y-142550000D01*
X89550000Y-142550000D02*
X88720000Y-142280000D01*
X88720000Y-142280000D02*
X88430000Y-142180000D01*
X102140000Y-146920000D02*
X101370000Y-146870000D01*
X101370000Y-146870000D02*
X100470000Y-146800000D01*
X100470000Y-146800000D02*
X99560000Y-146720000D01*
X99560000Y-146720000D02*
X98660000Y-146610000D01*
X98660000Y-146610000D02*
X97760000Y-146490000D01*
X97760000Y-146490000D02*
X96870000Y-146360000D01*
X96870000Y-146360000D02*
X95970000Y-146210000D01*
X95970000Y-146210000D02*
X95080000Y-146040000D01*
X95080000Y-146040000D02*
X94190000Y-145860000D01*
X94190000Y-145860000D02*
X93300000Y-145670000D01*
X93300000Y-145670000D02*
X92420000Y-145460000D01*
X92420000Y-145460000D02*
X91540000Y-145230000D01*
X91540000Y-145230000D02*
X90670000Y-144990000D01*
X90670000Y-144990000D02*
X89800000Y-144730000D01*
X89800000Y-144730000D02*
X88930000Y-144450000D01*
X88930000Y-144450000D02*
X88070000Y-144170000D01*
X88070000Y-144170000D02*
X87770000Y-144060000D01*
X83360000Y-140070000D02*
X83080000Y-139940000D01*
X83080000Y-139940000D02*
X82300000Y-139550000D01*
X82300000Y-139550000D02*
X81530000Y-139150000D01*
X81530000Y-139150000D02*
X80760000Y-138730000D01*
X80760000Y-138730000D02*
X80000000Y-138300000D01*
X80000000Y-138300000D02*
X79750000Y-138150000D01*
X82490000Y-141880000D02*
X82200000Y-141740000D01*
X82200000Y-141740000D02*
X81390000Y-141330000D01*
X81390000Y-141330000D02*
X80590000Y-140910000D01*
X80590000Y-140910000D02*
X79790000Y-140480000D01*
X79790000Y-140480000D02*
X79000000Y-140030000D01*
X79000000Y-140030000D02*
X78220000Y-139570000D01*
X78220000Y-139570000D02*
X77860000Y-139360000D01*
X77530000Y-137990000D02*
G75*
G03X77860000Y-139360000I850000J-520000D01*
G01*
X84290000Y-130390000D02*
X79750000Y-138150000D01*
X82090000Y-130200000D02*
X77530000Y-137980000D01*
X84292674Y-130379111D02*
G75*
G03X83960000Y-129020000I-862674J509111D01*
G01*
X83960000Y-129020000D02*
X83800000Y-128920000D01*
X83800000Y-128920000D02*
X83210000Y-128550000D01*
X83210000Y-128550000D02*
X82630000Y-128160000D01*
X82630000Y-128160000D02*
X82060000Y-127770000D01*
X82060000Y-127770000D02*
X81490000Y-127360000D01*
X81490000Y-127360000D02*
X80930000Y-126950000D01*
X80930000Y-126950000D02*
X80370000Y-126520000D01*
X80370000Y-126520000D02*
X79830000Y-126090000D01*
X79830000Y-126090000D02*
X79290000Y-125640000D01*
X79290000Y-125640000D02*
X78760000Y-125190000D01*
X78760000Y-125190000D02*
X78730000Y-125160000D01*
X82090000Y-130200000D02*
X81510000Y-129820000D01*
X81510000Y-129820000D02*
X80910000Y-129400000D01*
X80910000Y-129400000D02*
X80310000Y-128980000D01*
X80310000Y-128980000D02*
X79720000Y-128540000D01*
X79720000Y-128540000D02*
X79140000Y-128100000D01*
X79140000Y-128100000D02*
X78570000Y-127640000D01*
X78570000Y-127640000D02*
X78000000Y-127170000D01*
X78000000Y-127170000D02*
X77450000Y-126700000D01*
X77450000Y-126700000D02*
X77410000Y-126670000D01*
X105000000Y-66000000D02*
X105510000Y-66000000D01*
X105510000Y-66000000D02*
X106010000Y-66020000D01*
X106010000Y-66020000D02*
X106520000Y-66040000D01*
X106520000Y-66040000D02*
X107020000Y-66070000D01*
X107020000Y-66070000D02*
X107530000Y-66110000D01*
X107530000Y-66110000D02*
X108030000Y-66160000D01*
X108030000Y-66160000D02*
X108530000Y-66220000D01*
X108530000Y-66220000D02*
X109040000Y-66280000D01*
X109040000Y-66280000D02*
X109540000Y-66360000D01*
X109540000Y-66360000D02*
X110040000Y-66440000D01*
X110040000Y-66440000D02*
X110530000Y-66530000D01*
X110530000Y-66530000D02*
X111030000Y-66630000D01*
X111030000Y-66630000D02*
X111520000Y-66740000D01*
X111520000Y-66740000D02*
X112020000Y-66860000D01*
X112020000Y-66860000D02*
X112510000Y-66990000D01*
X112510000Y-66990000D02*
X112990000Y-67120000D01*
X112990000Y-67120000D02*
X113480000Y-67270000D01*
X113480000Y-67270000D02*
X113960000Y-67420000D01*
X113960000Y-67420000D02*
X114440000Y-67580000D01*
X114440000Y-67580000D02*
X114920000Y-67750000D01*
X114920000Y-67750000D02*
X115390000Y-67930000D01*
X115390000Y-67930000D02*
X115860000Y-68110000D01*
X115860000Y-68110000D02*
X116330000Y-68310000D01*
X116330000Y-68310000D02*
X116800000Y-68510000D01*
X116800000Y-68510000D02*
X117260000Y-68720000D01*
X117260000Y-68720000D02*
X117710000Y-68930000D01*
X117710000Y-68930000D02*
X118170000Y-69160000D01*
X118170000Y-69160000D02*
X118610000Y-69390000D01*
X118610000Y-69390000D02*
X119060000Y-69640000D01*
X119060000Y-69640000D02*
X119500000Y-69890000D01*
X119500000Y-69890000D02*
X119940000Y-70140000D01*
X119940000Y-70140000D02*
X120370000Y-70410000D01*
X120370000Y-70410000D02*
X120790000Y-70680000D01*
X120790000Y-70680000D02*
X121220000Y-70960000D01*
X121220000Y-70960000D02*
X121630000Y-71240000D01*
X121630000Y-71240000D02*
X122050000Y-71540000D01*
X122050000Y-71540000D02*
X122450000Y-71840000D01*
X122450000Y-71840000D02*
X122850000Y-72150000D01*
X122850000Y-72150000D02*
X123250000Y-72460000D01*
X123250000Y-72460000D02*
X123640000Y-72780000D01*
X123640000Y-72780000D02*
X124030000Y-73110000D01*
X124030000Y-73110000D02*
X124400000Y-73450000D01*
X124400000Y-73450000D02*
X124780000Y-73790000D01*
X124780000Y-73790000D02*
X125150000Y-74140000D01*
X125150000Y-74140000D02*
X125510000Y-74490000D01*
X125510000Y-74490000D02*
X125860000Y-74850000D01*
X125860000Y-74850000D02*
X126210000Y-75220000D01*
X126210000Y-75220000D02*
X126550000Y-75600000D01*
X126550000Y-75600000D02*
X126890000Y-75970000D01*
X126890000Y-75970000D02*
X127220000Y-76360000D01*
X127220000Y-76360000D02*
X127540000Y-76750000D01*
X127540000Y-76750000D02*
X127850000Y-77150000D01*
X127850000Y-77150000D02*
X128160000Y-77550000D01*
X128160000Y-77550000D02*
X128460000Y-77950000D01*
X128460000Y-77950000D02*
X128760000Y-78370000D01*
X128760000Y-78370000D02*
X129040000Y-78780000D01*
X129040000Y-78780000D02*
X129320000Y-79210000D01*
X129320000Y-79210000D02*
X129590000Y-79630000D01*
X129590000Y-79630000D02*
X129860000Y-80060000D01*
X129860000Y-80060000D02*
X130110000Y-80500000D01*
X130110000Y-80500000D02*
X130360000Y-80940000D01*
X130360000Y-80940000D02*
X130610000Y-81390000D01*
X130610000Y-81390000D02*
X130840000Y-81830000D01*
X130840000Y-81830000D02*
X131070000Y-82290000D01*
X131070000Y-82290000D02*
X131280000Y-82740000D01*
X131280000Y-82740000D02*
X131490000Y-83200000D01*
X131490000Y-83200000D02*
X131690000Y-83670000D01*
X131690000Y-83670000D02*
X131890000Y-84140000D01*
X131890000Y-84140000D02*
X132070000Y-84610000D01*
X132070000Y-84610000D02*
X132250000Y-85080000D01*
X132250000Y-85080000D02*
X132420000Y-85560000D01*
X132420000Y-85560000D02*
X132580000Y-86040000D01*
X132580000Y-86040000D02*
X132730000Y-86520000D01*
X132730000Y-86520000D02*
X132880000Y-87010000D01*
X132880000Y-87010000D02*
X133010000Y-87490000D01*
X133010000Y-87490000D02*
X133140000Y-87980000D01*
X133140000Y-87980000D02*
X133260000Y-88480000D01*
X133260000Y-88480000D02*
X133370000Y-88970000D01*
X133370000Y-88970000D02*
X133470000Y-89470000D01*
X133470000Y-89470000D02*
X133560000Y-89960000D01*
X133560000Y-89960000D02*
X133640000Y-90460000D01*
X133640000Y-90460000D02*
X133720000Y-90960000D01*
X133720000Y-90960000D02*
X133780000Y-91470000D01*
X133780000Y-91470000D02*
X133840000Y-91970000D01*
X133840000Y-91970000D02*
X133890000Y-92470000D01*
X133890000Y-92470000D02*
X133930000Y-92980000D01*
X133930000Y-92980000D02*
X133960000Y-93480000D01*
X133960000Y-93480000D02*
X133980000Y-93990000D01*
X133980000Y-93990000D02*
X134000000Y-94490000D01*
X134000000Y-94490000D02*
X134000000Y-95000000D01*
X134000000Y-95000000D02*
X134000000Y-95510000D01*
X134000000Y-95510000D02*
X133980000Y-96010000D01*
X133980000Y-96010000D02*
X133960000Y-96520000D01*
X133960000Y-96520000D02*
X133930000Y-97020000D01*
X133930000Y-97020000D02*
X133890000Y-97530000D01*
X133890000Y-97530000D02*
X133840000Y-98030000D01*
X133840000Y-98030000D02*
X133780000Y-98530000D01*
X133780000Y-98530000D02*
X133720000Y-99040000D01*
X133720000Y-99040000D02*
X133640000Y-99540000D01*
X133640000Y-99540000D02*
X133560000Y-100040000D01*
X133560000Y-100040000D02*
X133470000Y-100530000D01*
X133470000Y-100530000D02*
X133370000Y-101030000D01*
X133370000Y-101030000D02*
X133260000Y-101520000D01*
X133260000Y-101520000D02*
X133140000Y-102020000D01*
X133140000Y-102020000D02*
X133010000Y-102510000D01*
X133010000Y-102510000D02*
X132880000Y-102990000D01*
X132880000Y-102990000D02*
X132730000Y-103480000D01*
X132730000Y-103480000D02*
X132580000Y-103960000D01*
X132580000Y-103960000D02*
X132420000Y-104440000D01*
X132420000Y-104440000D02*
X132250000Y-104920000D01*
X132250000Y-104920000D02*
X132070000Y-105390000D01*
X132070000Y-105390000D02*
X131890000Y-105860000D01*
X131890000Y-105860000D02*
X131690000Y-106330000D01*
X131690000Y-106330000D02*
X131490000Y-106800000D01*
X131490000Y-106800000D02*
X131280000Y-107260000D01*
X131280000Y-107260000D02*
X131070000Y-107710000D01*
X131070000Y-107710000D02*
X130840000Y-108170000D01*
X130840000Y-108170000D02*
X130610000Y-108610000D01*
X130610000Y-108610000D02*
X130360000Y-109060000D01*
X130360000Y-109060000D02*
X130110000Y-109500000D01*
X130110000Y-109500000D02*
X129860000Y-109940000D01*
X129860000Y-109940000D02*
X129590000Y-110370000D01*
X129590000Y-110370000D02*
X129320000Y-110790000D01*
X129320000Y-110790000D02*
X129040000Y-111220000D01*
X129040000Y-111220000D02*
X128760000Y-111630000D01*
X128760000Y-111630000D02*
X128460000Y-112050000D01*
X128460000Y-112050000D02*
X128160000Y-112450000D01*
X128160000Y-112450000D02*
X127850000Y-112850000D01*
X127850000Y-112850000D02*
X127540000Y-113250000D01*
X127540000Y-113250000D02*
X127220000Y-113640000D01*
X127220000Y-113640000D02*
X126890000Y-114030000D01*
X126890000Y-114030000D02*
X126550000Y-114400000D01*
X126550000Y-114400000D02*
X126210000Y-114780000D01*
X126210000Y-114780000D02*
X125860000Y-115150000D01*
X125860000Y-115150000D02*
X125510000Y-115510000D01*
X125510000Y-115510000D02*
X125150000Y-115860000D01*
X125150000Y-115860000D02*
X124780000Y-116210000D01*
X124780000Y-116210000D02*
X124400000Y-116550000D01*
X124400000Y-116550000D02*
X124030000Y-116890000D01*
X124030000Y-116890000D02*
X123640000Y-117220000D01*
X123640000Y-117220000D02*
X123250000Y-117540000D01*
X123250000Y-117540000D02*
X122850000Y-117850000D01*
X122850000Y-117850000D02*
X122450000Y-118160000D01*
X122450000Y-118160000D02*
X122050000Y-118460000D01*
X122050000Y-118460000D02*
X121630000Y-118760000D01*
X121630000Y-118760000D02*
X121220000Y-119040000D01*
X121220000Y-119040000D02*
X120790000Y-119320000D01*
X120790000Y-119320000D02*
X120370000Y-119590000D01*
X120370000Y-119590000D02*
X119940000Y-119860000D01*
X119940000Y-119860000D02*
X119500000Y-120110000D01*
X119500000Y-120110000D02*
X119060000Y-120360000D01*
X119060000Y-120360000D02*
X118610000Y-120610000D01*
X118610000Y-120610000D02*
X118170000Y-120840000D01*
X118170000Y-120840000D02*
X117710000Y-121070000D01*
X117710000Y-121070000D02*
X117260000Y-121280000D01*
X117260000Y-121280000D02*
X116800000Y-121490000D01*
X116800000Y-121490000D02*
X116330000Y-121690000D01*
X116330000Y-121690000D02*
X115860000Y-121890000D01*
X115860000Y-121890000D02*
X115390000Y-122070000D01*
X115390000Y-122070000D02*
X114920000Y-122250000D01*
X114920000Y-122250000D02*
X114440000Y-122420000D01*
X114440000Y-122420000D02*
X113960000Y-122580000D01*
X113960000Y-122580000D02*
X113480000Y-122730000D01*
X113480000Y-122730000D02*
X112990000Y-122880000D01*
X112990000Y-122880000D02*
X112510000Y-123010000D01*
X112510000Y-123010000D02*
X112020000Y-123140000D01*
X112020000Y-123140000D02*
X111520000Y-123260000D01*
X111520000Y-123260000D02*
X111030000Y-123370000D01*
X111030000Y-123370000D02*
X110530000Y-123470000D01*
X110530000Y-123470000D02*
X110040000Y-123560000D01*
X110040000Y-123560000D02*
X109540000Y-123640000D01*
X109540000Y-123640000D02*
X109040000Y-123720000D01*
X109040000Y-123720000D02*
X108530000Y-123780000D01*
X108530000Y-123780000D02*
X108030000Y-123840000D01*
X108030000Y-123840000D02*
X107530000Y-123890000D01*
X107530000Y-123890000D02*
X107020000Y-123930000D01*
X107020000Y-123930000D02*
X106520000Y-123960000D01*
X106520000Y-123960000D02*
X106010000Y-123980000D01*
X106010000Y-123980000D02*
X105510000Y-124000000D01*
X105510000Y-124000000D02*
X105000000Y-124000000D01*
X105000000Y-124000000D02*
X104490000Y-124000000D01*
X104490000Y-124000000D02*
X103990000Y-123980000D01*
X103990000Y-123980000D02*
X103480000Y-123960000D01*
X103480000Y-123960000D02*
X102980000Y-123930000D01*
X102980000Y-123930000D02*
X102470000Y-123890000D01*
X102470000Y-123890000D02*
X101970000Y-123840000D01*
X101970000Y-123840000D02*
X101470000Y-123780000D01*
X101470000Y-123780000D02*
X100960000Y-123720000D01*
X100960000Y-123720000D02*
X100460000Y-123640000D01*
X100460000Y-123640000D02*
X99960000Y-123560000D01*
X99960000Y-123560000D02*
X99470000Y-123470000D01*
X99470000Y-123470000D02*
X98970000Y-123370000D01*
X98970000Y-123370000D02*
X98480000Y-123260000D01*
X98480000Y-123260000D02*
X97980000Y-123140000D01*
X97980000Y-123140000D02*
X97490000Y-123010000D01*
X97490000Y-123010000D02*
X97010000Y-122880000D01*
X97010000Y-122880000D02*
X96520000Y-122730000D01*
X96520000Y-122730000D02*
X96040000Y-122580000D01*
X96040000Y-122580000D02*
X95560000Y-122420000D01*
X95560000Y-122420000D02*
X95080000Y-122250000D01*
X95080000Y-122250000D02*
X94610000Y-122070000D01*
X94610000Y-122070000D02*
X94140000Y-121890000D01*
X94140000Y-121890000D02*
X93670000Y-121690000D01*
X93670000Y-121690000D02*
X93200000Y-121490000D01*
X93200000Y-121490000D02*
X92740000Y-121280000D01*
X92740000Y-121280000D02*
X92290000Y-121070000D01*
X92290000Y-121070000D02*
X91830000Y-120840000D01*
X91830000Y-120840000D02*
X91390000Y-120610000D01*
X91390000Y-120610000D02*
X90940000Y-120360000D01*
X90940000Y-120360000D02*
X90500000Y-120110000D01*
X90500000Y-120110000D02*
X90060000Y-119860000D01*
X90060000Y-119860000D02*
X89630000Y-119590000D01*
X89630000Y-119590000D02*
X89210000Y-119320000D01*
X89210000Y-119320000D02*
X88780000Y-119040000D01*
X88780000Y-119040000D02*
X88370000Y-118760000D01*
X88370000Y-118760000D02*
X87950000Y-118460000D01*
X87950000Y-118460000D02*
X87550000Y-118160000D01*
X87550000Y-118160000D02*
X87150000Y-117850000D01*
X87150000Y-117850000D02*
X86750000Y-117540000D01*
X86750000Y-117540000D02*
X86360000Y-117220000D01*
X86360000Y-117220000D02*
X85970000Y-116890000D01*
X85970000Y-116890000D02*
X85600000Y-116550000D01*
X85600000Y-116550000D02*
X85220000Y-116210000D01*
X85220000Y-116210000D02*
X84850000Y-115860000D01*
X84850000Y-115860000D02*
X84490000Y-115510000D01*
X84490000Y-115510000D02*
X84140000Y-115150000D01*
X84140000Y-115150000D02*
X83790000Y-114780000D01*
X83790000Y-114780000D02*
X83450000Y-114400000D01*
X83450000Y-114400000D02*
X83110000Y-114030000D01*
X83110000Y-114030000D02*
X82780000Y-113640000D01*
X82780000Y-113640000D02*
X82460000Y-113250000D01*
X82460000Y-113250000D02*
X82150000Y-112850000D01*
X82150000Y-112850000D02*
X81840000Y-112450000D01*
X81840000Y-112450000D02*
X81540000Y-112050000D01*
X81540000Y-112050000D02*
X81240000Y-111630000D01*
X81240000Y-111630000D02*
X80960000Y-111220000D01*
X80960000Y-111220000D02*
X80680000Y-110790000D01*
X80680000Y-110790000D02*
X80410000Y-110370000D01*
X80410000Y-110370000D02*
X80140000Y-109940000D01*
X80140000Y-109940000D02*
X79890000Y-109500000D01*
X79890000Y-109500000D02*
X79640000Y-109060000D01*
X79640000Y-109060000D02*
X79390000Y-108610000D01*
X79390000Y-108610000D02*
X79160000Y-108170000D01*
X79160000Y-108170000D02*
X78930000Y-107710000D01*
X78930000Y-107710000D02*
X78720000Y-107260000D01*
X78720000Y-107260000D02*
X78510000Y-106800000D01*
X78510000Y-106800000D02*
X78310000Y-106330000D01*
X78310000Y-106330000D02*
X78110000Y-105860000D01*
X78110000Y-105860000D02*
X77930000Y-105390000D01*
X77930000Y-105390000D02*
X77750000Y-104920000D01*
X77750000Y-104920000D02*
X77580000Y-104440000D01*
X77580000Y-104440000D02*
X77420000Y-103960000D01*
X77420000Y-103960000D02*
X77270000Y-103480000D01*
X77270000Y-103480000D02*
X77120000Y-102990000D01*
X77120000Y-102990000D02*
X76990000Y-102510000D01*
X76990000Y-102510000D02*
X76860000Y-102020000D01*
X76860000Y-102020000D02*
X76740000Y-101520000D01*
X76740000Y-101520000D02*
X76630000Y-101030000D01*
X76630000Y-101030000D02*
X76530000Y-100530000D01*
X76530000Y-100530000D02*
X76440000Y-100040000D01*
X76440000Y-100040000D02*
X76360000Y-99540000D01*
X76360000Y-99540000D02*
X76280000Y-99040000D01*
X76280000Y-99040000D02*
X76220000Y-98530000D01*
X76220000Y-98530000D02*
X76160000Y-98030000D01*
X76160000Y-98030000D02*
X76110000Y-97530000D01*
X76110000Y-97530000D02*
X76070000Y-97020000D01*
X76070000Y-97020000D02*
X76040000Y-96520000D01*
X76040000Y-96520000D02*
X76020000Y-96010000D01*
X76020000Y-96010000D02*
X76000000Y-95510000D01*
X76000000Y-95510000D02*
X76000000Y-95000000D01*
X76000000Y-95000000D02*
X76000000Y-94490000D01*
X76000000Y-94490000D02*
X76020000Y-93990000D01*
X76020000Y-93990000D02*
X76040000Y-93480000D01*
X76040000Y-93480000D02*
X76070000Y-92980000D01*
X76070000Y-92980000D02*
X76110000Y-92470000D01*
X76110000Y-92470000D02*
X76160000Y-91970000D01*
X76160000Y-91970000D02*
X76220000Y-91470000D01*
X76220000Y-91470000D02*
X76280000Y-90960000D01*
X76280000Y-90960000D02*
X76360000Y-90460000D01*
X76360000Y-90460000D02*
X76440000Y-89960000D01*
X76440000Y-89960000D02*
X76530000Y-89470000D01*
X76530000Y-89470000D02*
X76630000Y-88970000D01*
X76630000Y-88970000D02*
X76740000Y-88480000D01*
X76740000Y-88480000D02*
X76860000Y-87980000D01*
X76860000Y-87980000D02*
X76990000Y-87490000D01*
X76990000Y-87490000D02*
X77120000Y-87010000D01*
X77120000Y-87010000D02*
X77270000Y-86520000D01*
X77270000Y-86520000D02*
X77420000Y-86040000D01*
X77420000Y-86040000D02*
X77580000Y-85560000D01*
X77580000Y-85560000D02*
X77750000Y-85080000D01*
X77750000Y-85080000D02*
X77930000Y-84610000D01*
X77930000Y-84610000D02*
X78110000Y-84140000D01*
X78110000Y-84140000D02*
X78310000Y-83670000D01*
X78310000Y-83670000D02*
X78510000Y-83200000D01*
X78510000Y-83200000D02*
X78720000Y-82740000D01*
X78720000Y-82740000D02*
X78930000Y-82290000D01*
X78930000Y-82290000D02*
X79160000Y-81830000D01*
X79160000Y-81830000D02*
X79390000Y-81390000D01*
X79390000Y-81390000D02*
X79640000Y-80940000D01*
X79640000Y-80940000D02*
X79890000Y-80500000D01*
X79890000Y-80500000D02*
X80140000Y-80060000D01*
X80140000Y-80060000D02*
X80410000Y-79630000D01*
X80410000Y-79630000D02*
X80680000Y-79210000D01*
X80680000Y-79210000D02*
X80960000Y-78780000D01*
X80960000Y-78780000D02*
X81240000Y-78370000D01*
X81240000Y-78370000D02*
X81540000Y-77950000D01*
X81540000Y-77950000D02*
X81840000Y-77550000D01*
X81840000Y-77550000D02*
X82150000Y-77150000D01*
X82150000Y-77150000D02*
X82460000Y-76750000D01*
X82460000Y-76750000D02*
X82780000Y-76360000D01*
X82780000Y-76360000D02*
X83110000Y-75970000D01*
X83110000Y-75970000D02*
X83450000Y-75600000D01*
X83450000Y-75600000D02*
X83790000Y-75220000D01*
X83790000Y-75220000D02*
X84140000Y-74850000D01*
X84140000Y-74850000D02*
X84490000Y-74490000D01*
X84490000Y-74490000D02*
X84850000Y-74140000D01*
X84850000Y-74140000D02*
X85220000Y-73790000D01*
X85220000Y-73790000D02*
X85600000Y-73450000D01*
X85600000Y-73450000D02*
X85970000Y-73110000D01*
X85970000Y-73110000D02*
X86360000Y-72780000D01*
X86360000Y-72780000D02*
X86750000Y-72460000D01*
X86750000Y-72460000D02*
X87150000Y-72150000D01*
X87150000Y-72150000D02*
X87550000Y-71840000D01*
X87550000Y-71840000D02*
X87950000Y-71540000D01*
X87950000Y-71540000D02*
X88370000Y-71240000D01*
X88370000Y-71240000D02*
X88780000Y-70960000D01*
X88780000Y-70960000D02*
X89210000Y-70680000D01*
X89210000Y-70680000D02*
X89630000Y-70410000D01*
X89630000Y-70410000D02*
X90060000Y-70140000D01*
X90060000Y-70140000D02*
X90500000Y-69890000D01*
X90500000Y-69890000D02*
X90940000Y-69640000D01*
X90940000Y-69640000D02*
X91390000Y-69390000D01*
X91390000Y-69390000D02*
X91830000Y-69160000D01*
X91830000Y-69160000D02*
X92290000Y-68930000D01*
X92290000Y-68930000D02*
X92740000Y-68720000D01*
X92740000Y-68720000D02*
X93200000Y-68510000D01*
X93200000Y-68510000D02*
X93670000Y-68310000D01*
X93670000Y-68310000D02*
X94140000Y-68110000D01*
X94140000Y-68110000D02*
X94610000Y-67930000D01*
X94610000Y-67930000D02*
X95080000Y-67750000D01*
X95080000Y-67750000D02*
X95560000Y-67580000D01*
X95560000Y-67580000D02*
X96040000Y-67420000D01*
X96040000Y-67420000D02*
X96520000Y-67270000D01*
X96520000Y-67270000D02*
X97010000Y-67120000D01*
X97010000Y-67120000D02*
X97490000Y-66990000D01*
X97490000Y-66990000D02*
X97980000Y-66860000D01*
X97980000Y-66860000D02*
X98480000Y-66740000D01*
X98480000Y-66740000D02*
X98970000Y-66630000D01*
X98970000Y-66630000D02*
X99470000Y-66530000D01*
X99470000Y-66530000D02*
X99960000Y-66440000D01*
X99960000Y-66440000D02*
X100460000Y-66360000D01*
X100460000Y-66360000D02*
X100960000Y-66280000D01*
X100960000Y-66280000D02*
X101470000Y-66220000D01*
X101470000Y-66220000D02*
X101970000Y-66160000D01*
X101970000Y-66160000D02*
X102470000Y-66110000D01*
X102470000Y-66110000D02*
X102980000Y-66070000D01*
X102980000Y-66070000D02*
X103480000Y-66040000D01*
X103480000Y-66040000D02*
X103990000Y-66020000D01*
X103990000Y-66020000D02*
X104490000Y-66000000D01*
X104490000Y-66000000D02*
X105000000Y-66000000D01*
X168730000Y-125150000D02*
G75*
G03X167410000Y-126670000I-660000J-760000D01*
G01*
X163340000Y-122590000D02*
G75*
G03X164840000Y-121270000I750000J660000D01*
G01*
X164840000Y-121270000D02*
X164810000Y-121240000D01*
X164810000Y-121240000D02*
X164360000Y-120710000D01*
X164360000Y-120710000D02*
X163910000Y-120170000D01*
X163910000Y-120170000D02*
X163480000Y-119630000D01*
X163480000Y-119630000D02*
X163050000Y-119070000D01*
X163050000Y-119070000D02*
X162640000Y-118510000D01*
X162640000Y-118510000D02*
X162230000Y-117940000D01*
X162230000Y-117940000D02*
X161840000Y-117370000D01*
X161840000Y-117370000D02*
X161450000Y-116790000D01*
X161450000Y-116790000D02*
X161080000Y-116200000D01*
X161080000Y-116200000D02*
X160710000Y-115600000D01*
X160710000Y-115600000D02*
X160360000Y-115000000D01*
X160360000Y-115000000D02*
X160020000Y-114390000D01*
X160020000Y-114390000D02*
X159680000Y-113780000D01*
X159680000Y-113780000D02*
X159360000Y-113160000D01*
X159360000Y-113160000D02*
X159180000Y-112810000D01*
X163330000Y-122590000D02*
X163300000Y-122550000D01*
X163300000Y-122550000D02*
X162830000Y-122000000D01*
X162830000Y-122000000D02*
X162360000Y-121430000D01*
X162360000Y-121430000D02*
X161900000Y-120860000D01*
X161900000Y-120860000D02*
X161460000Y-120280000D01*
X161460000Y-120280000D02*
X161020000Y-119690000D01*
X161020000Y-119690000D02*
X160600000Y-119090000D01*
X160600000Y-119090000D02*
X160180000Y-118490000D01*
X160180000Y-118490000D02*
X159780000Y-117870000D01*
X159780000Y-117870000D02*
X159380000Y-117260000D01*
X159380000Y-117260000D02*
X159000000Y-116630000D01*
X159000000Y-116630000D02*
X158630000Y-116000000D01*
X158630000Y-116000000D02*
X158270000Y-115360000D01*
X158270000Y-115360000D02*
X157920000Y-114720000D01*
X157920000Y-114720000D02*
X157580000Y-114070000D01*
X157580000Y-114070000D02*
X157390000Y-113700000D01*
X159190000Y-112820000D02*
G75*
G03X157390000Y-113700000I-900000J-440000D01*
G01*
X155180000Y-108370000D02*
G75*
G03X157080000Y-107730000I950000J320000D01*
G01*
X157080000Y-107730000D02*
X156960000Y-107360000D01*
X156960000Y-107360000D02*
X156750000Y-106690000D01*
X156750000Y-106690000D02*
X156550000Y-106030000D01*
X156550000Y-106030000D02*
X156360000Y-105350000D01*
X156360000Y-105350000D02*
X156190000Y-104680000D01*
X156190000Y-104680000D02*
X156030000Y-104000000D01*
X156030000Y-104000000D02*
X155870000Y-103320000D01*
X155870000Y-103320000D02*
X155730000Y-102630000D01*
X155730000Y-102630000D02*
X155610000Y-101950000D01*
X155610000Y-101950000D02*
X155490000Y-101260000D01*
X155490000Y-101260000D02*
X155390000Y-100570000D01*
X155390000Y-100570000D02*
X155300000Y-99870000D01*
X155300000Y-99870000D02*
X155220000Y-99180000D01*
X155220000Y-99180000D02*
X155150000Y-98490000D01*
X155150000Y-98490000D02*
X155100000Y-97790000D01*
X155100000Y-97790000D02*
X155090000Y-97750000D01*
X155180000Y-108370000D02*
X155060000Y-107980000D01*
X155060000Y-107980000D02*
X154840000Y-107280000D01*
X154840000Y-107280000D02*
X154630000Y-106580000D01*
X154630000Y-106580000D02*
X154430000Y-105870000D01*
X154430000Y-105870000D02*
X154250000Y-105160000D01*
X154250000Y-105160000D02*
X154080000Y-104450000D01*
X154080000Y-104450000D02*
X153920000Y-103730000D01*
X153920000Y-103730000D02*
X153770000Y-103010000D01*
X153770000Y-103010000D02*
X153640000Y-102290000D01*
X153640000Y-102290000D02*
X153520000Y-101570000D01*
X153520000Y-101570000D02*
X153410000Y-100850000D01*
X153410000Y-100850000D02*
X153310000Y-100120000D01*
X153310000Y-100120000D02*
X153230000Y-99390000D01*
X153230000Y-99390000D02*
X153160000Y-98660000D01*
X153160000Y-98660000D02*
X153100000Y-97930000D01*
X153100000Y-97930000D02*
X153100000Y-97890000D01*
X155100000Y-97750000D02*
G75*
G03X153100000Y-97890000I-1000000J-70000D01*
G01*
X153110000Y-92110000D02*
G75*
G03X155090000Y-92250000I990000J-70000D01*
G01*
X155090000Y-92250000D02*
X155100000Y-92210000D01*
X155100000Y-92210000D02*
X155150000Y-91510000D01*
X155150000Y-91510000D02*
X155220000Y-90820000D01*
X155220000Y-90820000D02*
X155300000Y-90130000D01*
X155300000Y-90130000D02*
X155390000Y-89430000D01*
X155390000Y-89430000D02*
X155490000Y-88740000D01*
X155490000Y-88740000D02*
X155610000Y-88050000D01*
X155610000Y-88050000D02*
X155730000Y-87370000D01*
X155730000Y-87370000D02*
X155870000Y-86680000D01*
X155870000Y-86680000D02*
X156030000Y-86000000D01*
X156030000Y-86000000D02*
X156190000Y-85320000D01*
X156190000Y-85320000D02*
X156360000Y-84650000D01*
X156360000Y-84650000D02*
X156550000Y-83970000D01*
X156550000Y-83970000D02*
X156750000Y-83310000D01*
X156750000Y-83310000D02*
X156960000Y-82640000D01*
X156960000Y-82640000D02*
X157080000Y-82270000D01*
X153100000Y-92110000D02*
X153100000Y-92070000D01*
X153100000Y-92070000D02*
X153160000Y-91340000D01*
X153160000Y-91340000D02*
X153230000Y-90610000D01*
X153230000Y-90610000D02*
X153310000Y-89880000D01*
X153310000Y-89880000D02*
X153410000Y-89150000D01*
X153410000Y-89150000D02*
X153520000Y-88430000D01*
X153520000Y-88430000D02*
X153640000Y-87710000D01*
X153640000Y-87710000D02*
X153770000Y-86990000D01*
X153770000Y-86990000D02*
X153920000Y-86270000D01*
X153920000Y-86270000D02*
X154080000Y-85550000D01*
X154080000Y-85550000D02*
X154250000Y-84840000D01*
X154250000Y-84840000D02*
X154430000Y-84130000D01*
X154430000Y-84130000D02*
X154630000Y-83420000D01*
X154630000Y-83420000D02*
X154840000Y-82720000D01*
X154840000Y-82720000D02*
X155060000Y-82020000D01*
X155060000Y-82020000D02*
X155180000Y-81630000D01*
X157080000Y-82270000D02*
G75*
G03X155180000Y-81630000I-950000J320000D01*
G01*
X157400000Y-76290000D02*
G75*
G03X159180000Y-77190000I890000J-450000D01*
G01*
X159180000Y-77190000D02*
X159360000Y-76840000D01*
X159360000Y-76840000D02*
X159680000Y-76220000D01*
X159680000Y-76220000D02*
X160020000Y-75610000D01*
X160020000Y-75610000D02*
X160360000Y-75000000D01*
X160360000Y-75000000D02*
X160710000Y-74400000D01*
X160710000Y-74400000D02*
X161080000Y-73800000D01*
X161080000Y-73800000D02*
X161450000Y-73210000D01*
X161450000Y-73210000D02*
X161840000Y-72630000D01*
X161840000Y-72630000D02*
X162230000Y-72060000D01*
X162230000Y-72060000D02*
X162640000Y-71490000D01*
X162640000Y-71490000D02*
X163050000Y-70930000D01*
X163050000Y-70930000D02*
X163480000Y-70370000D01*
X163480000Y-70370000D02*
X163910000Y-69830000D01*
X163910000Y-69830000D02*
X164360000Y-69290000D01*
X164360000Y-69290000D02*
X164810000Y-68760000D01*
X164810000Y-68760000D02*
X164840000Y-68730000D01*
X157390000Y-76300000D02*
X157580000Y-75930000D01*
X157580000Y-75930000D02*
X157920000Y-75280000D01*
X157920000Y-75280000D02*
X158270000Y-74640000D01*
X158270000Y-74640000D02*
X158630000Y-74000000D01*
X158630000Y-74000000D02*
X159000000Y-73370000D01*
X159000000Y-73370000D02*
X159380000Y-72740000D01*
X159380000Y-72740000D02*
X159780000Y-72130000D01*
X159780000Y-72130000D02*
X160180000Y-71510000D01*
X160180000Y-71510000D02*
X160600000Y-70910000D01*
X160600000Y-70910000D02*
X161020000Y-70310000D01*
X161020000Y-70310000D02*
X161460000Y-69720000D01*
X161460000Y-69720000D02*
X161900000Y-69140000D01*
X161900000Y-69140000D02*
X162360000Y-68570000D01*
X162360000Y-68570000D02*
X162830000Y-68000000D01*
X162830000Y-68000000D02*
X163300000Y-67450000D01*
X163300000Y-67450000D02*
X163330000Y-67410000D01*
X164850000Y-68730000D02*
G75*
G03X163330000Y-67410000I-760000J660000D01*
G01*
X167410000Y-63340000D02*
G75*
G03X168730000Y-64840000I660000J-750000D01*
G01*
X168730000Y-64840000D02*
X168760000Y-64810000D01*
X168760000Y-64810000D02*
X169290000Y-64360000D01*
X169290000Y-64360000D02*
X169830000Y-63910000D01*
X169830000Y-63910000D02*
X170370000Y-63480000D01*
X170370000Y-63480000D02*
X170930000Y-63050000D01*
X170930000Y-63050000D02*
X171490000Y-62640000D01*
X171490000Y-62640000D02*
X172060000Y-62230000D01*
X172060000Y-62230000D02*
X172630000Y-61840000D01*
X172630000Y-61840000D02*
X173210000Y-61450000D01*
X173210000Y-61450000D02*
X173800000Y-61080000D01*
X173800000Y-61080000D02*
X174400000Y-60710000D01*
X174400000Y-60710000D02*
X175000000Y-60360000D01*
X175000000Y-60360000D02*
X175610000Y-60020000D01*
X175610000Y-60020000D02*
X176220000Y-59680000D01*
X176220000Y-59680000D02*
X176840000Y-59360000D01*
X176840000Y-59360000D02*
X177190000Y-59180000D01*
X167410000Y-63330000D02*
X167450000Y-63300000D01*
X167450000Y-63300000D02*
X168000000Y-62830000D01*
X168000000Y-62830000D02*
X168570000Y-62360000D01*
X168570000Y-62360000D02*
X169140000Y-61900000D01*
X169140000Y-61900000D02*
X169720000Y-61460000D01*
X169720000Y-61460000D02*
X170310000Y-61020000D01*
X170310000Y-61020000D02*
X170910000Y-60600000D01*
X170910000Y-60600000D02*
X171510000Y-60180000D01*
X171510000Y-60180000D02*
X172130000Y-59780000D01*
X172130000Y-59780000D02*
X172740000Y-59380000D01*
X172740000Y-59380000D02*
X173370000Y-59000000D01*
X173370000Y-59000000D02*
X174000000Y-58630000D01*
X174000000Y-58630000D02*
X174640000Y-58270000D01*
X174640000Y-58270000D02*
X175280000Y-57920000D01*
X175280000Y-57920000D02*
X175930000Y-57580000D01*
X175930000Y-57580000D02*
X176300000Y-57390000D01*
X177180000Y-59190000D02*
G75*
G03X176300000Y-57390000I-440000J900000D01*
G01*
X181630000Y-55180000D02*
G75*
G03X182270000Y-57080000I320000J-950000D01*
G01*
X182270000Y-57080000D02*
X182640000Y-56960000D01*
X182640000Y-56960000D02*
X183310000Y-56750000D01*
X183310000Y-56750000D02*
X183970000Y-56550000D01*
X183970000Y-56550000D02*
X184650000Y-56360000D01*
X184650000Y-56360000D02*
X185320000Y-56190000D01*
X185320000Y-56190000D02*
X186000000Y-56030000D01*
X186000000Y-56030000D02*
X186680000Y-55870000D01*
X186680000Y-55870000D02*
X187370000Y-55730000D01*
X187370000Y-55730000D02*
X188050000Y-55610000D01*
X188050000Y-55610000D02*
X188740000Y-55490000D01*
X188740000Y-55490000D02*
X189430000Y-55390000D01*
X189430000Y-55390000D02*
X190130000Y-55300000D01*
X190130000Y-55300000D02*
X190820000Y-55220000D01*
X190820000Y-55220000D02*
X191510000Y-55150000D01*
X191510000Y-55150000D02*
X192210000Y-55100000D01*
X192210000Y-55100000D02*
X192250000Y-55090000D01*
X181630000Y-55180000D02*
X182020000Y-55060000D01*
X182020000Y-55060000D02*
X182720000Y-54840000D01*
X182720000Y-54840000D02*
X183420000Y-54630000D01*
X183420000Y-54630000D02*
X184130000Y-54430000D01*
X184130000Y-54430000D02*
X184840000Y-54250000D01*
X184840000Y-54250000D02*
X185550000Y-54080000D01*
X185550000Y-54080000D02*
X186270000Y-53920000D01*
X186270000Y-53920000D02*
X186990000Y-53770000D01*
X186990000Y-53770000D02*
X187710000Y-53640000D01*
X187710000Y-53640000D02*
X188430000Y-53520000D01*
X188430000Y-53520000D02*
X189150000Y-53410000D01*
X189150000Y-53410000D02*
X189880000Y-53310000D01*
X189880000Y-53310000D02*
X190610000Y-53230000D01*
X190610000Y-53230000D02*
X191340000Y-53160000D01*
X191340000Y-53160000D02*
X192070000Y-53100000D01*
X192070000Y-53100000D02*
X192110000Y-53100000D01*
X192250000Y-55100000D02*
G75*
G03X192110000Y-53100000I-70000J1000000D01*
G01*
X197890000Y-53110000D02*
G75*
G03X197750000Y-55090000I-70000J-990000D01*
G01*
X197750000Y-55090000D02*
X197790000Y-55100000D01*
X197790000Y-55100000D02*
X198490000Y-55150000D01*
X198490000Y-55150000D02*
X199180000Y-55220000D01*
X199180000Y-55220000D02*
X199870000Y-55300000D01*
X199870000Y-55300000D02*
X200570000Y-55390000D01*
X200570000Y-55390000D02*
X201260000Y-55490000D01*
X201260000Y-55490000D02*
X201950000Y-55610000D01*
X201950000Y-55610000D02*
X202630000Y-55730000D01*
X202630000Y-55730000D02*
X203320000Y-55870000D01*
X203320000Y-55870000D02*
X204000000Y-56030000D01*
X204000000Y-56030000D02*
X204680000Y-56190000D01*
X204680000Y-56190000D02*
X205350000Y-56360000D01*
X205350000Y-56360000D02*
X206030000Y-56550000D01*
X206030000Y-56550000D02*
X206690000Y-56750000D01*
X206690000Y-56750000D02*
X207360000Y-56960000D01*
X207360000Y-56960000D02*
X207730000Y-57080000D01*
X197890000Y-53100000D02*
X197930000Y-53100000D01*
X197930000Y-53100000D02*
X198660000Y-53160000D01*
X198660000Y-53160000D02*
X199390000Y-53230000D01*
X199390000Y-53230000D02*
X200120000Y-53310000D01*
X200120000Y-53310000D02*
X200850000Y-53410000D01*
X200850000Y-53410000D02*
X201570000Y-53520000D01*
X201570000Y-53520000D02*
X202290000Y-53640000D01*
X202290000Y-53640000D02*
X203010000Y-53770000D01*
X203010000Y-53770000D02*
X203730000Y-53920000D01*
X203730000Y-53920000D02*
X204450000Y-54080000D01*
X204450000Y-54080000D02*
X205160000Y-54250000D01*
X205160000Y-54250000D02*
X205870000Y-54430000D01*
X205870000Y-54430000D02*
X206580000Y-54630000D01*
X206580000Y-54630000D02*
X207280000Y-54840000D01*
X207280000Y-54840000D02*
X207980000Y-55060000D01*
X207980000Y-55060000D02*
X208370000Y-55180000D01*
X207730000Y-57080000D02*
G75*
G03X208370000Y-55180000I320000J950000D01*
G01*
X213710000Y-57400000D02*
G75*
G03X212810000Y-59180000I-450000J-890000D01*
G01*
X212810000Y-59180000D02*
X213160000Y-59360000D01*
X213160000Y-59360000D02*
X213780000Y-59680000D01*
X213780000Y-59680000D02*
X214390000Y-60020000D01*
X214390000Y-60020000D02*
X215000000Y-60360000D01*
X215000000Y-60360000D02*
X215600000Y-60710000D01*
X215600000Y-60710000D02*
X216200000Y-61080000D01*
X216200000Y-61080000D02*
X216790000Y-61450000D01*
X216790000Y-61450000D02*
X217370000Y-61840000D01*
X217370000Y-61840000D02*
X217940000Y-62230000D01*
X217940000Y-62230000D02*
X218510000Y-62640000D01*
X218510000Y-62640000D02*
X219070000Y-63050000D01*
X219070000Y-63050000D02*
X219630000Y-63480000D01*
X219630000Y-63480000D02*
X220170000Y-63910000D01*
X220170000Y-63910000D02*
X220710000Y-64360000D01*
X220710000Y-64360000D02*
X221240000Y-64810000D01*
X221240000Y-64810000D02*
X221270000Y-64840000D01*
X213700000Y-57390000D02*
X214070000Y-57580000D01*
X214070000Y-57580000D02*
X214720000Y-57920000D01*
X214720000Y-57920000D02*
X215360000Y-58270000D01*
X215360000Y-58270000D02*
X216000000Y-58630000D01*
X216000000Y-58630000D02*
X216630000Y-59000000D01*
X216630000Y-59000000D02*
X217260000Y-59380000D01*
X217260000Y-59380000D02*
X217870000Y-59780000D01*
X217870000Y-59780000D02*
X218490000Y-60180000D01*
X218490000Y-60180000D02*
X219090000Y-60600000D01*
X219090000Y-60600000D02*
X219690000Y-61020000D01*
X219690000Y-61020000D02*
X220280000Y-61460000D01*
X220280000Y-61460000D02*
X220860000Y-61900000D01*
X220860000Y-61900000D02*
X221430000Y-62360000D01*
X221430000Y-62360000D02*
X222000000Y-62830000D01*
X222000000Y-62830000D02*
X222550000Y-63300000D01*
X222550000Y-63300000D02*
X222590000Y-63330000D01*
X221270000Y-64850000D02*
G75*
G03X222590000Y-63330000I660000J760000D01*
G01*
X226660000Y-67410000D02*
G75*
G03X225160000Y-68730000I-750000J-660000D01*
G01*
X225160000Y-68730000D02*
X225190000Y-68760000D01*
X225190000Y-68760000D02*
X225640000Y-69290000D01*
X225640000Y-69290000D02*
X226090000Y-69830000D01*
X226090000Y-69830000D02*
X226520000Y-70370000D01*
X226520000Y-70370000D02*
X226950000Y-70930000D01*
X226950000Y-70930000D02*
X227360000Y-71490000D01*
X227360000Y-71490000D02*
X227770000Y-72060000D01*
X227770000Y-72060000D02*
X228160000Y-72630000D01*
X228160000Y-72630000D02*
X228550000Y-73210000D01*
X228550000Y-73210000D02*
X228920000Y-73800000D01*
X228920000Y-73800000D02*
X229290000Y-74400000D01*
X229290000Y-74400000D02*
X229640000Y-75000000D01*
X229640000Y-75000000D02*
X229980000Y-75610000D01*
X229980000Y-75610000D02*
X230320000Y-76220000D01*
X230320000Y-76220000D02*
X230640000Y-76840000D01*
X230640000Y-76840000D02*
X230820000Y-77190000D01*
X226670000Y-67410000D02*
X226700000Y-67450000D01*
X226700000Y-67450000D02*
X227170000Y-68000000D01*
X227170000Y-68000000D02*
X227640000Y-68570000D01*
X227640000Y-68570000D02*
X228100000Y-69140000D01*
X228100000Y-69140000D02*
X228540000Y-69720000D01*
X228540000Y-69720000D02*
X228980000Y-70310000D01*
X228980000Y-70310000D02*
X229400000Y-70910000D01*
X229400000Y-70910000D02*
X229820000Y-71510000D01*
X229820000Y-71510000D02*
X230220000Y-72130000D01*
X230220000Y-72130000D02*
X230620000Y-72740000D01*
X230620000Y-72740000D02*
X231000000Y-73370000D01*
X231000000Y-73370000D02*
X231370000Y-74000000D01*
X231370000Y-74000000D02*
X231730000Y-74640000D01*
X231730000Y-74640000D02*
X232080000Y-75280000D01*
X232080000Y-75280000D02*
X232420000Y-75930000D01*
X232420000Y-75930000D02*
X232610000Y-76300000D01*
X230810000Y-77180000D02*
G75*
G03X232610000Y-76300000I900000J440000D01*
G01*
X234820000Y-81630000D02*
G75*
G03X232920000Y-82270000I-950000J-320000D01*
G01*
X232920000Y-82270000D02*
X233040000Y-82640000D01*
X233040000Y-82640000D02*
X233250000Y-83310000D01*
X233250000Y-83310000D02*
X233450000Y-83970000D01*
X233450000Y-83970000D02*
X233640000Y-84650000D01*
X233640000Y-84650000D02*
X233810000Y-85320000D01*
X233810000Y-85320000D02*
X233970000Y-86000000D01*
X233970000Y-86000000D02*
X234130000Y-86680000D01*
X234130000Y-86680000D02*
X234270000Y-87370000D01*
X234270000Y-87370000D02*
X234390000Y-88050000D01*
X234390000Y-88050000D02*
X234510000Y-88740000D01*
X234510000Y-88740000D02*
X234610000Y-89430000D01*
X234610000Y-89430000D02*
X234700000Y-90130000D01*
X234700000Y-90130000D02*
X234780000Y-90820000D01*
X234780000Y-90820000D02*
X234850000Y-91510000D01*
X234850000Y-91510000D02*
X234900000Y-92210000D01*
X234900000Y-92210000D02*
X234910000Y-92250000D01*
X234820000Y-81630000D02*
X234940000Y-82020000D01*
X234940000Y-82020000D02*
X235160000Y-82720000D01*
X235160000Y-82720000D02*
X235370000Y-83420000D01*
X235370000Y-83420000D02*
X235570000Y-84130000D01*
X235570000Y-84130000D02*
X235750000Y-84840000D01*
X235750000Y-84840000D02*
X235920000Y-85550000D01*
X235920000Y-85550000D02*
X236080000Y-86270000D01*
X236080000Y-86270000D02*
X236230000Y-86990000D01*
X236230000Y-86990000D02*
X236360000Y-87710000D01*
X236360000Y-87710000D02*
X236480000Y-88430000D01*
X236480000Y-88430000D02*
X236590000Y-89150000D01*
X236590000Y-89150000D02*
X236690000Y-89880000D01*
X236690000Y-89880000D02*
X236770000Y-90610000D01*
X236770000Y-90610000D02*
X236840000Y-91340000D01*
X236840000Y-91340000D02*
X236900000Y-92070000D01*
X236900000Y-92070000D02*
X236900000Y-92110000D01*
X234900000Y-92250000D02*
G75*
G03X236900000Y-92110000I1000000J70000D01*
G01*
X236890000Y-97890000D02*
G75*
G03X234910000Y-97750000I-990000J70000D01*
G01*
X234910000Y-97750000D02*
X234900000Y-97790000D01*
X234900000Y-97790000D02*
X234850000Y-98490000D01*
X234850000Y-98490000D02*
X234780000Y-99180000D01*
X234780000Y-99180000D02*
X234700000Y-99870000D01*
X234700000Y-99870000D02*
X234610000Y-100570000D01*
X234610000Y-100570000D02*
X234510000Y-101260000D01*
X234510000Y-101260000D02*
X234390000Y-101950000D01*
X234390000Y-101950000D02*
X234270000Y-102630000D01*
X234270000Y-102630000D02*
X234130000Y-103320000D01*
X234130000Y-103320000D02*
X233970000Y-104000000D01*
X233970000Y-104000000D02*
X233810000Y-104680000D01*
X233810000Y-104680000D02*
X233640000Y-105350000D01*
X233640000Y-105350000D02*
X233450000Y-106030000D01*
X233450000Y-106030000D02*
X233250000Y-106690000D01*
X233250000Y-106690000D02*
X233040000Y-107360000D01*
X233040000Y-107360000D02*
X232920000Y-107730000D01*
X236900000Y-97890000D02*
X236900000Y-97930000D01*
X236900000Y-97930000D02*
X236840000Y-98660000D01*
X236840000Y-98660000D02*
X236770000Y-99390000D01*
X236770000Y-99390000D02*
X236690000Y-100120000D01*
X236690000Y-100120000D02*
X236590000Y-100850000D01*
X236590000Y-100850000D02*
X236480000Y-101570000D01*
X236480000Y-101570000D02*
X236360000Y-102290000D01*
X236360000Y-102290000D02*
X236230000Y-103010000D01*
X236230000Y-103010000D02*
X236080000Y-103730000D01*
X236080000Y-103730000D02*
X235920000Y-104450000D01*
X235920000Y-104450000D02*
X235750000Y-105160000D01*
X235750000Y-105160000D02*
X235570000Y-105870000D01*
X235570000Y-105870000D02*
X235370000Y-106580000D01*
X235370000Y-106580000D02*
X235160000Y-107280000D01*
X235160000Y-107280000D02*
X234940000Y-107980000D01*
X234940000Y-107980000D02*
X234820000Y-108370000D01*
X232920000Y-107730000D02*
G75*
G03X234820000Y-108370000I950000J-320000D01*
G01*
X232600000Y-113710000D02*
G75*
G03X230820000Y-112810000I-890000J450000D01*
G01*
X230820000Y-112810000D02*
X230640000Y-113160000D01*
X230640000Y-113160000D02*
X230320000Y-113780000D01*
X230320000Y-113780000D02*
X229980000Y-114390000D01*
X229980000Y-114390000D02*
X229640000Y-115000000D01*
X229640000Y-115000000D02*
X229290000Y-115600000D01*
X229290000Y-115600000D02*
X228920000Y-116200000D01*
X228920000Y-116200000D02*
X228550000Y-116790000D01*
X228550000Y-116790000D02*
X228160000Y-117370000D01*
X228160000Y-117370000D02*
X227770000Y-117940000D01*
X227770000Y-117940000D02*
X227360000Y-118510000D01*
X227360000Y-118510000D02*
X226950000Y-119070000D01*
X226950000Y-119070000D02*
X226520000Y-119630000D01*
X226520000Y-119630000D02*
X226090000Y-120170000D01*
X226090000Y-120170000D02*
X225640000Y-120710000D01*
X225640000Y-120710000D02*
X225190000Y-121240000D01*
X225190000Y-121240000D02*
X225160000Y-121270000D01*
X232610000Y-113700000D02*
X232420000Y-114070000D01*
X232420000Y-114070000D02*
X232080000Y-114720000D01*
X232080000Y-114720000D02*
X231730000Y-115360000D01*
X231730000Y-115360000D02*
X231370000Y-116000000D01*
X231370000Y-116000000D02*
X231000000Y-116630000D01*
X231000000Y-116630000D02*
X230620000Y-117260000D01*
X230620000Y-117260000D02*
X230220000Y-117870000D01*
X230220000Y-117870000D02*
X229820000Y-118490000D01*
X229820000Y-118490000D02*
X229400000Y-119090000D01*
X229400000Y-119090000D02*
X228980000Y-119690000D01*
X228980000Y-119690000D02*
X228540000Y-120280000D01*
X228540000Y-120280000D02*
X228100000Y-120860000D01*
X228100000Y-120860000D02*
X227640000Y-121430000D01*
X227640000Y-121430000D02*
X227170000Y-122000000D01*
X227170000Y-122000000D02*
X226700000Y-122550000D01*
X226700000Y-122550000D02*
X226670000Y-122590000D01*
X225150000Y-121270000D02*
G75*
G03X226670000Y-122590000I760000J-660000D01*
G01*
X222590000Y-126660000D02*
G75*
G03X221270000Y-125160000I-660000J750000D01*
G01*
X216650000Y-140060000D02*
G75*
G03X217510000Y-141880000I430000J-910000D01*
G01*
X212230000Y-144060000D02*
G75*
G03X211570000Y-142180000I-330000J940000D01*
G01*
X197740000Y-144920000D02*
G75*
G03X197860000Y-146920000I60000J-1000000D01*
G01*
X192150000Y-146920000D02*
G75*
G03X192250000Y-144920000I50000J1000000D01*
G01*
X178430000Y-142180000D02*
G75*
G03X177770000Y-144060000I-330000J-940000D01*
G01*
X172480000Y-141870000D02*
G75*
G03X173360000Y-140070000I440000J900000D01*
G01*
X216029179Y-129022938D02*
G75*
G03X215710000Y-130390000I540821J-847062D01*
G01*
X221270000Y-125160000D02*
X221240000Y-125190000D01*
X221240000Y-125190000D02*
X220710000Y-125640000D01*
X220710000Y-125640000D02*
X220170000Y-126090000D01*
X220170000Y-126090000D02*
X219630000Y-126520000D01*
X219630000Y-126520000D02*
X219070000Y-126950000D01*
X219070000Y-126950000D02*
X218510000Y-127360000D01*
X218510000Y-127360000D02*
X217940000Y-127770000D01*
X217940000Y-127770000D02*
X217370000Y-128160000D01*
X217370000Y-128160000D02*
X216790000Y-128550000D01*
X216790000Y-128550000D02*
X216200000Y-128920000D01*
X216200000Y-128920000D02*
X216040000Y-129020000D01*
X222590000Y-126670000D02*
X222550000Y-126700000D01*
X222550000Y-126700000D02*
X222000000Y-127170000D01*
X222000000Y-127170000D02*
X221430000Y-127640000D01*
X221430000Y-127640000D02*
X220860000Y-128100000D01*
X220860000Y-128100000D02*
X220280000Y-128540000D01*
X220280000Y-128540000D02*
X219690000Y-128980000D01*
X219690000Y-128980000D02*
X219090000Y-129400000D01*
X219090000Y-129400000D02*
X218490000Y-129820000D01*
X218490000Y-129820000D02*
X217910000Y-130200000D01*
X215710000Y-130390000D02*
X220250000Y-138150000D01*
X217910000Y-130200000D02*
X222490000Y-138010000D01*
X222120000Y-139380000D02*
G75*
G03X222490000Y-138010000I-500000J870000D01*
G01*
X220250000Y-138150000D02*
X220000000Y-138300000D01*
X220000000Y-138300000D02*
X219240000Y-138730000D01*
X219240000Y-138730000D02*
X218470000Y-139150000D01*
X218470000Y-139150000D02*
X217700000Y-139550000D01*
X217700000Y-139550000D02*
X216920000Y-139940000D01*
X216920000Y-139940000D02*
X216640000Y-140070000D01*
X222140000Y-139360000D02*
X221780000Y-139570000D01*
X221780000Y-139570000D02*
X221000000Y-140030000D01*
X221000000Y-140030000D02*
X220210000Y-140480000D01*
X220210000Y-140480000D02*
X219410000Y-140910000D01*
X219410000Y-140910000D02*
X218610000Y-141330000D01*
X218610000Y-141330000D02*
X217800000Y-141740000D01*
X217800000Y-141740000D02*
X217510000Y-141880000D01*
X211570000Y-142180000D02*
X211280000Y-142280000D01*
X211280000Y-142280000D02*
X210450000Y-142550000D01*
X210450000Y-142550000D02*
X209620000Y-142820000D01*
X209620000Y-142820000D02*
X208780000Y-143060000D01*
X208780000Y-143060000D02*
X207940000Y-143300000D01*
X207940000Y-143300000D02*
X207100000Y-143510000D01*
X207100000Y-143510000D02*
X206250000Y-143720000D01*
X206250000Y-143720000D02*
X205400000Y-143910000D01*
X205400000Y-143910000D02*
X204540000Y-144080000D01*
X204540000Y-144080000D02*
X203680000Y-144240000D01*
X203680000Y-144240000D02*
X202820000Y-144380000D01*
X202820000Y-144380000D02*
X201960000Y-144510000D01*
X201960000Y-144510000D02*
X201090000Y-144630000D01*
X201090000Y-144630000D02*
X200230000Y-144730000D01*
X200230000Y-144730000D02*
X199360000Y-144810000D01*
X199360000Y-144810000D02*
X198490000Y-144880000D01*
X198490000Y-144880000D02*
X197750000Y-144920000D01*
X212230000Y-144060000D02*
X211930000Y-144170000D01*
X211930000Y-144170000D02*
X211070000Y-144450000D01*
X211070000Y-144450000D02*
X210200000Y-144730000D01*
X210200000Y-144730000D02*
X209330000Y-144990000D01*
X209330000Y-144990000D02*
X208460000Y-145230000D01*
X208460000Y-145230000D02*
X207580000Y-145460000D01*
X207580000Y-145460000D02*
X206700000Y-145670000D01*
X206700000Y-145670000D02*
X205810000Y-145860000D01*
X205810000Y-145860000D02*
X204920000Y-146040000D01*
X204920000Y-146040000D02*
X204030000Y-146210000D01*
X204030000Y-146210000D02*
X203130000Y-146360000D01*
X203130000Y-146360000D02*
X202240000Y-146490000D01*
X202240000Y-146490000D02*
X201340000Y-146610000D01*
X201340000Y-146610000D02*
X200440000Y-146720000D01*
X200440000Y-146720000D02*
X199530000Y-146800000D01*
X199530000Y-146800000D02*
X198630000Y-146870000D01*
X198630000Y-146870000D02*
X197860000Y-146920000D01*
X192250000Y-144920000D02*
X191510000Y-144880000D01*
X191510000Y-144880000D02*
X190640000Y-144810000D01*
X190640000Y-144810000D02*
X189770000Y-144730000D01*
X189770000Y-144730000D02*
X188910000Y-144630000D01*
X188910000Y-144630000D02*
X188040000Y-144510000D01*
X188040000Y-144510000D02*
X187180000Y-144380000D01*
X187180000Y-144380000D02*
X186320000Y-144240000D01*
X186320000Y-144240000D02*
X185460000Y-144080000D01*
X185460000Y-144080000D02*
X184600000Y-143910000D01*
X184600000Y-143910000D02*
X183750000Y-143720000D01*
X183750000Y-143720000D02*
X182900000Y-143510000D01*
X182900000Y-143510000D02*
X182060000Y-143300000D01*
X182060000Y-143300000D02*
X181220000Y-143060000D01*
X181220000Y-143060000D02*
X180380000Y-142820000D01*
X180380000Y-142820000D02*
X179550000Y-142550000D01*
X179550000Y-142550000D02*
X178720000Y-142280000D01*
X178720000Y-142280000D02*
X178430000Y-142180000D01*
X192140000Y-146920000D02*
X191370000Y-146870000D01*
X191370000Y-146870000D02*
X190470000Y-146800000D01*
X190470000Y-146800000D02*
X189560000Y-146720000D01*
X189560000Y-146720000D02*
X188660000Y-146610000D01*
X188660000Y-146610000D02*
X187760000Y-146490000D01*
X187760000Y-146490000D02*
X186870000Y-146360000D01*
X186870000Y-146360000D02*
X185970000Y-146210000D01*
X185970000Y-146210000D02*
X185080000Y-146040000D01*
X185080000Y-146040000D02*
X184190000Y-145860000D01*
X184190000Y-145860000D02*
X183300000Y-145670000D01*
X183300000Y-145670000D02*
X182420000Y-145460000D01*
X182420000Y-145460000D02*
X181540000Y-145230000D01*
X181540000Y-145230000D02*
X180670000Y-144990000D01*
X180670000Y-144990000D02*
X179800000Y-144730000D01*
X179800000Y-144730000D02*
X178930000Y-144450000D01*
X178930000Y-144450000D02*
X178070000Y-144170000D01*
X178070000Y-144170000D02*
X177770000Y-144060000D01*
X173360000Y-140070000D02*
X173080000Y-139940000D01*
X173080000Y-139940000D02*
X172300000Y-139550000D01*
X172300000Y-139550000D02*
X171530000Y-139150000D01*
X171530000Y-139150000D02*
X170760000Y-138730000D01*
X170760000Y-138730000D02*
X170000000Y-138300000D01*
X170000000Y-138300000D02*
X169750000Y-138150000D01*
X172490000Y-141880000D02*
X172200000Y-141740000D01*
X172200000Y-141740000D02*
X171390000Y-141330000D01*
X171390000Y-141330000D02*
X170590000Y-140910000D01*
X170590000Y-140910000D02*
X169790000Y-140480000D01*
X169790000Y-140480000D02*
X169000000Y-140030000D01*
X169000000Y-140030000D02*
X168220000Y-139570000D01*
X168220000Y-139570000D02*
X167860000Y-139360000D01*
X167530000Y-137990000D02*
G75*
G03X167860000Y-139360000I850000J-520000D01*
G01*
X174290000Y-130390000D02*
X169750000Y-138150000D01*
X172090000Y-130200000D02*
X167530000Y-137980000D01*
X174292674Y-130379111D02*
G75*
G03X173960000Y-129020000I-862674J509111D01*
G01*
X173960000Y-129020000D02*
X173800000Y-128920000D01*
X173800000Y-128920000D02*
X173210000Y-128550000D01*
X173210000Y-128550000D02*
X172630000Y-128160000D01*
X172630000Y-128160000D02*
X172060000Y-127770000D01*
X172060000Y-127770000D02*
X171490000Y-127360000D01*
X171490000Y-127360000D02*
X170930000Y-126950000D01*
X170930000Y-126950000D02*
X170370000Y-126520000D01*
X170370000Y-126520000D02*
X169830000Y-126090000D01*
X169830000Y-126090000D02*
X169290000Y-125640000D01*
X169290000Y-125640000D02*
X168760000Y-125190000D01*
X168760000Y-125190000D02*
X168730000Y-125160000D01*
X172090000Y-130200000D02*
X171510000Y-129820000D01*
X171510000Y-129820000D02*
X170910000Y-129400000D01*
X170910000Y-129400000D02*
X170310000Y-128980000D01*
X170310000Y-128980000D02*
X169720000Y-128540000D01*
X169720000Y-128540000D02*
X169140000Y-128100000D01*
X169140000Y-128100000D02*
X168570000Y-127640000D01*
X168570000Y-127640000D02*
X168000000Y-127170000D01*
X168000000Y-127170000D02*
X167450000Y-126700000D01*
X167450000Y-126700000D02*
X167410000Y-126670000D01*
X195000000Y-66000000D02*
X195510000Y-66000000D01*
X195510000Y-66000000D02*
X196010000Y-66020000D01*
X196010000Y-66020000D02*
X196520000Y-66040000D01*
X196520000Y-66040000D02*
X197020000Y-66070000D01*
X197020000Y-66070000D02*
X197530000Y-66110000D01*
X197530000Y-66110000D02*
X198030000Y-66160000D01*
X198030000Y-66160000D02*
X198530000Y-66220000D01*
X198530000Y-66220000D02*
X199040000Y-66280000D01*
X199040000Y-66280000D02*
X199540000Y-66360000D01*
X199540000Y-66360000D02*
X200040000Y-66440000D01*
X200040000Y-66440000D02*
X200530000Y-66530000D01*
X200530000Y-66530000D02*
X201030000Y-66630000D01*
X201030000Y-66630000D02*
X201520000Y-66740000D01*
X201520000Y-66740000D02*
X202020000Y-66860000D01*
X202020000Y-66860000D02*
X202510000Y-66990000D01*
X202510000Y-66990000D02*
X202990000Y-67120000D01*
X202990000Y-67120000D02*
X203480000Y-67270000D01*
X203480000Y-67270000D02*
X203960000Y-67420000D01*
X203960000Y-67420000D02*
X204440000Y-67580000D01*
X204440000Y-67580000D02*
X204920000Y-67750000D01*
X204920000Y-67750000D02*
X205390000Y-67930000D01*
X205390000Y-67930000D02*
X205860000Y-68110000D01*
X205860000Y-68110000D02*
X206330000Y-68310000D01*
X206330000Y-68310000D02*
X206800000Y-68510000D01*
X206800000Y-68510000D02*
X207260000Y-68720000D01*
X207260000Y-68720000D02*
X207710000Y-68930000D01*
X207710000Y-68930000D02*
X208170000Y-69160000D01*
X208170000Y-69160000D02*
X208610000Y-69390000D01*
X208610000Y-69390000D02*
X209060000Y-69640000D01*
X209060000Y-69640000D02*
X209500000Y-69890000D01*
X209500000Y-69890000D02*
X209940000Y-70140000D01*
X209940000Y-70140000D02*
X210370000Y-70410000D01*
X210370000Y-70410000D02*
X210790000Y-70680000D01*
X210790000Y-70680000D02*
X211220000Y-70960000D01*
X211220000Y-70960000D02*
X211630000Y-71240000D01*
X211630000Y-71240000D02*
X212050000Y-71540000D01*
X212050000Y-71540000D02*
X212450000Y-71840000D01*
X212450000Y-71840000D02*
X212850000Y-72150000D01*
X212850000Y-72150000D02*
X213250000Y-72460000D01*
X213250000Y-72460000D02*
X213640000Y-72780000D01*
X213640000Y-72780000D02*
X214030000Y-73110000D01*
X214030000Y-73110000D02*
X214400000Y-73450000D01*
X214400000Y-73450000D02*
X214780000Y-73790000D01*
X214780000Y-73790000D02*
X215150000Y-74140000D01*
X215150000Y-74140000D02*
X215510000Y-74490000D01*
X215510000Y-74490000D02*
X215860000Y-74850000D01*
X215860000Y-74850000D02*
X216210000Y-75220000D01*
X216210000Y-75220000D02*
X216550000Y-75600000D01*
X216550000Y-75600000D02*
X216890000Y-75970000D01*
X216890000Y-75970000D02*
X217220000Y-76360000D01*
X217220000Y-76360000D02*
X217540000Y-76750000D01*
X217540000Y-76750000D02*
X217850000Y-77150000D01*
X217850000Y-77150000D02*
X218160000Y-77550000D01*
X218160000Y-77550000D02*
X218460000Y-77950000D01*
X218460000Y-77950000D02*
X218760000Y-78370000D01*
X218760000Y-78370000D02*
X219040000Y-78780000D01*
X219040000Y-78780000D02*
X219320000Y-79210000D01*
X219320000Y-79210000D02*
X219590000Y-79630000D01*
X219590000Y-79630000D02*
X219860000Y-80060000D01*
X219860000Y-80060000D02*
X220110000Y-80500000D01*
X220110000Y-80500000D02*
X220360000Y-80940000D01*
X220360000Y-80940000D02*
X220610000Y-81390000D01*
X220610000Y-81390000D02*
X220840000Y-81830000D01*
X220840000Y-81830000D02*
X221070000Y-82290000D01*
X221070000Y-82290000D02*
X221280000Y-82740000D01*
X221280000Y-82740000D02*
X221490000Y-83200000D01*
X221490000Y-83200000D02*
X221690000Y-83670000D01*
X221690000Y-83670000D02*
X221890000Y-84140000D01*
X221890000Y-84140000D02*
X222070000Y-84610000D01*
X222070000Y-84610000D02*
X222250000Y-85080000D01*
X222250000Y-85080000D02*
X222420000Y-85560000D01*
X222420000Y-85560000D02*
X222580000Y-86040000D01*
X222580000Y-86040000D02*
X222730000Y-86520000D01*
X222730000Y-86520000D02*
X222880000Y-87010000D01*
X222880000Y-87010000D02*
X223010000Y-87490000D01*
X223010000Y-87490000D02*
X223140000Y-87980000D01*
X223140000Y-87980000D02*
X223260000Y-88480000D01*
X223260000Y-88480000D02*
X223370000Y-88970000D01*
X223370000Y-88970000D02*
X223470000Y-89470000D01*
X223470000Y-89470000D02*
X223560000Y-89960000D01*
X223560000Y-89960000D02*
X223640000Y-90460000D01*
X223640000Y-90460000D02*
X223720000Y-90960000D01*
X223720000Y-90960000D02*
X223780000Y-91470000D01*
X223780000Y-91470000D02*
X223840000Y-91970000D01*
X223840000Y-91970000D02*
X223890000Y-92470000D01*
X223890000Y-92470000D02*
X223930000Y-92980000D01*
X223930000Y-92980000D02*
X223960000Y-93480000D01*
X223960000Y-93480000D02*
X223980000Y-93990000D01*
X223980000Y-93990000D02*
X224000000Y-94490000D01*
X224000000Y-94490000D02*
X224000000Y-95000000D01*
X224000000Y-95000000D02*
X224000000Y-95510000D01*
X224000000Y-95510000D02*
X223980000Y-96010000D01*
X223980000Y-96010000D02*
X223960000Y-96520000D01*
X223960000Y-96520000D02*
X223930000Y-97020000D01*
X223930000Y-97020000D02*
X223890000Y-97530000D01*
X223890000Y-97530000D02*
X223840000Y-98030000D01*
X223840000Y-98030000D02*
X223780000Y-98530000D01*
X223780000Y-98530000D02*
X223720000Y-99040000D01*
X223720000Y-99040000D02*
X223640000Y-99540000D01*
X223640000Y-99540000D02*
X223560000Y-100040000D01*
X223560000Y-100040000D02*
X223470000Y-100530000D01*
X223470000Y-100530000D02*
X223370000Y-101030000D01*
X223370000Y-101030000D02*
X223260000Y-101520000D01*
X223260000Y-101520000D02*
X223140000Y-102020000D01*
X223140000Y-102020000D02*
X223010000Y-102510000D01*
X223010000Y-102510000D02*
X222880000Y-102990000D01*
X222880000Y-102990000D02*
X222730000Y-103480000D01*
X222730000Y-103480000D02*
X222580000Y-103960000D01*
X222580000Y-103960000D02*
X222420000Y-104440000D01*
X222420000Y-104440000D02*
X222250000Y-104920000D01*
X222250000Y-104920000D02*
X222070000Y-105390000D01*
X222070000Y-105390000D02*
X221890000Y-105860000D01*
X221890000Y-105860000D02*
X221690000Y-106330000D01*
X221690000Y-106330000D02*
X221490000Y-106800000D01*
X221490000Y-106800000D02*
X221280000Y-107260000D01*
X221280000Y-107260000D02*
X221070000Y-107710000D01*
X221070000Y-107710000D02*
X220840000Y-108170000D01*
X220840000Y-108170000D02*
X220610000Y-108610000D01*
X220610000Y-108610000D02*
X220360000Y-109060000D01*
X220360000Y-109060000D02*
X220110000Y-109500000D01*
X220110000Y-109500000D02*
X219860000Y-109940000D01*
X219860000Y-109940000D02*
X219590000Y-110370000D01*
X219590000Y-110370000D02*
X219320000Y-110790000D01*
X219320000Y-110790000D02*
X219040000Y-111220000D01*
X219040000Y-111220000D02*
X218760000Y-111630000D01*
X218760000Y-111630000D02*
X218460000Y-112050000D01*
X218460000Y-112050000D02*
X218160000Y-112450000D01*
X218160000Y-112450000D02*
X217850000Y-112850000D01*
X217850000Y-112850000D02*
X217540000Y-113250000D01*
X217540000Y-113250000D02*
X217220000Y-113640000D01*
X217220000Y-113640000D02*
X216890000Y-114030000D01*
X216890000Y-114030000D02*
X216550000Y-114400000D01*
X216550000Y-114400000D02*
X216210000Y-114780000D01*
X216210000Y-114780000D02*
X215860000Y-115150000D01*
X215860000Y-115150000D02*
X215510000Y-115510000D01*
X215510000Y-115510000D02*
X215150000Y-115860000D01*
X215150000Y-115860000D02*
X214780000Y-116210000D01*
X214780000Y-116210000D02*
X214400000Y-116550000D01*
X214400000Y-116550000D02*
X214030000Y-116890000D01*
X214030000Y-116890000D02*
X213640000Y-117220000D01*
X213640000Y-117220000D02*
X213250000Y-117540000D01*
X213250000Y-117540000D02*
X212850000Y-117850000D01*
X212850000Y-117850000D02*
X212450000Y-118160000D01*
X212450000Y-118160000D02*
X212050000Y-118460000D01*
X212050000Y-118460000D02*
X211630000Y-118760000D01*
X211630000Y-118760000D02*
X211220000Y-119040000D01*
X211220000Y-119040000D02*
X210790000Y-119320000D01*
X210790000Y-119320000D02*
X210370000Y-119590000D01*
X210370000Y-119590000D02*
X209940000Y-119860000D01*
X209940000Y-119860000D02*
X209500000Y-120110000D01*
X209500000Y-120110000D02*
X209060000Y-120360000D01*
X209060000Y-120360000D02*
X208610000Y-120610000D01*
X208610000Y-120610000D02*
X208170000Y-120840000D01*
X208170000Y-120840000D02*
X207710000Y-121070000D01*
X207710000Y-121070000D02*
X207260000Y-121280000D01*
X207260000Y-121280000D02*
X206800000Y-121490000D01*
X206800000Y-121490000D02*
X206330000Y-121690000D01*
X206330000Y-121690000D02*
X205860000Y-121890000D01*
X205860000Y-121890000D02*
X205390000Y-122070000D01*
X205390000Y-122070000D02*
X204920000Y-122250000D01*
X204920000Y-122250000D02*
X204440000Y-122420000D01*
X204440000Y-122420000D02*
X203960000Y-122580000D01*
X203960000Y-122580000D02*
X203480000Y-122730000D01*
X203480000Y-122730000D02*
X202990000Y-122880000D01*
X202990000Y-122880000D02*
X202510000Y-123010000D01*
X202510000Y-123010000D02*
X202020000Y-123140000D01*
X202020000Y-123140000D02*
X201520000Y-123260000D01*
X201520000Y-123260000D02*
X201030000Y-123370000D01*
X201030000Y-123370000D02*
X200530000Y-123470000D01*
X200530000Y-123470000D02*
X200040000Y-123560000D01*
X200040000Y-123560000D02*
X199540000Y-123640000D01*
X199540000Y-123640000D02*
X199040000Y-123720000D01*
X199040000Y-123720000D02*
X198530000Y-123780000D01*
X198530000Y-123780000D02*
X198030000Y-123840000D01*
X198030000Y-123840000D02*
X197530000Y-123890000D01*
X197530000Y-123890000D02*
X197020000Y-123930000D01*
X197020000Y-123930000D02*
X196520000Y-123960000D01*
X196520000Y-123960000D02*
X196010000Y-123980000D01*
X196010000Y-123980000D02*
X195510000Y-124000000D01*
X195510000Y-124000000D02*
X195000000Y-124000000D01*
X195000000Y-124000000D02*
X194490000Y-124000000D01*
X194490000Y-124000000D02*
X193990000Y-123980000D01*
X193990000Y-123980000D02*
X193480000Y-123960000D01*
X193480000Y-123960000D02*
X192980000Y-123930000D01*
X192980000Y-123930000D02*
X192470000Y-123890000D01*
X192470000Y-123890000D02*
X191970000Y-123840000D01*
X191970000Y-123840000D02*
X191470000Y-123780000D01*
X191470000Y-123780000D02*
X190960000Y-123720000D01*
X190960000Y-123720000D02*
X190460000Y-123640000D01*
X190460000Y-123640000D02*
X189960000Y-123560000D01*
X189960000Y-123560000D02*
X189470000Y-123470000D01*
X189470000Y-123470000D02*
X188970000Y-123370000D01*
X188970000Y-123370000D02*
X188480000Y-123260000D01*
X188480000Y-123260000D02*
X187980000Y-123140000D01*
X187980000Y-123140000D02*
X187490000Y-123010000D01*
X187490000Y-123010000D02*
X187010000Y-122880000D01*
X187010000Y-122880000D02*
X186520000Y-122730000D01*
X186520000Y-122730000D02*
X186040000Y-122580000D01*
X186040000Y-122580000D02*
X185560000Y-122420000D01*
X185560000Y-122420000D02*
X185080000Y-122250000D01*
X185080000Y-122250000D02*
X184610000Y-122070000D01*
X184610000Y-122070000D02*
X184140000Y-121890000D01*
X184140000Y-121890000D02*
X183670000Y-121690000D01*
X183670000Y-121690000D02*
X183200000Y-121490000D01*
X183200000Y-121490000D02*
X182740000Y-121280000D01*
X182740000Y-121280000D02*
X182290000Y-121070000D01*
X182290000Y-121070000D02*
X181830000Y-120840000D01*
X181830000Y-120840000D02*
X181390000Y-120610000D01*
X181390000Y-120610000D02*
X180940000Y-120360000D01*
X180940000Y-120360000D02*
X180500000Y-120110000D01*
X180500000Y-120110000D02*
X180060000Y-119860000D01*
X180060000Y-119860000D02*
X179630000Y-119590000D01*
X179630000Y-119590000D02*
X179210000Y-119320000D01*
X179210000Y-119320000D02*
X178780000Y-119040000D01*
X178780000Y-119040000D02*
X178370000Y-118760000D01*
X178370000Y-118760000D02*
X177950000Y-118460000D01*
X177950000Y-118460000D02*
X177550000Y-118160000D01*
X177550000Y-118160000D02*
X177150000Y-117850000D01*
X177150000Y-117850000D02*
X176750000Y-117540000D01*
X176750000Y-117540000D02*
X176360000Y-117220000D01*
X176360000Y-117220000D02*
X175970000Y-116890000D01*
X175970000Y-116890000D02*
X175600000Y-116550000D01*
X175600000Y-116550000D02*
X175220000Y-116210000D01*
X175220000Y-116210000D02*
X174850000Y-115860000D01*
X174850000Y-115860000D02*
X174490000Y-115510000D01*
X174490000Y-115510000D02*
X174140000Y-115150000D01*
X174140000Y-115150000D02*
X173790000Y-114780000D01*
X173790000Y-114780000D02*
X173450000Y-114400000D01*
X173450000Y-114400000D02*
X173110000Y-114030000D01*
X173110000Y-114030000D02*
X172780000Y-113640000D01*
X172780000Y-113640000D02*
X172460000Y-113250000D01*
X172460000Y-113250000D02*
X172150000Y-112850000D01*
X172150000Y-112850000D02*
X171840000Y-112450000D01*
X171840000Y-112450000D02*
X171540000Y-112050000D01*
X171540000Y-112050000D02*
X171240000Y-111630000D01*
X171240000Y-111630000D02*
X170960000Y-111220000D01*
X170960000Y-111220000D02*
X170680000Y-110790000D01*
X170680000Y-110790000D02*
X170410000Y-110370000D01*
X170410000Y-110370000D02*
X170140000Y-109940000D01*
X170140000Y-109940000D02*
X169890000Y-109500000D01*
X169890000Y-109500000D02*
X169640000Y-109060000D01*
X169640000Y-109060000D02*
X169390000Y-108610000D01*
X169390000Y-108610000D02*
X169160000Y-108170000D01*
X169160000Y-108170000D02*
X168930000Y-107710000D01*
X168930000Y-107710000D02*
X168720000Y-107260000D01*
X168720000Y-107260000D02*
X168510000Y-106800000D01*
X168510000Y-106800000D02*
X168310000Y-106330000D01*
X168310000Y-106330000D02*
X168110000Y-105860000D01*
X168110000Y-105860000D02*
X167930000Y-105390000D01*
X167930000Y-105390000D02*
X167750000Y-104920000D01*
X167750000Y-104920000D02*
X167580000Y-104440000D01*
X167580000Y-104440000D02*
X167420000Y-103960000D01*
X167420000Y-103960000D02*
X167270000Y-103480000D01*
X167270000Y-103480000D02*
X167120000Y-102990000D01*
X167120000Y-102990000D02*
X166990000Y-102510000D01*
X166990000Y-102510000D02*
X166860000Y-102020000D01*
X166860000Y-102020000D02*
X166740000Y-101520000D01*
X166740000Y-101520000D02*
X166630000Y-101030000D01*
X166630000Y-101030000D02*
X166530000Y-100530000D01*
X166530000Y-100530000D02*
X166440000Y-100040000D01*
X166440000Y-100040000D02*
X166360000Y-99540000D01*
X166360000Y-99540000D02*
X166280000Y-99040000D01*
X166280000Y-99040000D02*
X166220000Y-98530000D01*
X166220000Y-98530000D02*
X166160000Y-98030000D01*
X166160000Y-98030000D02*
X166110000Y-97530000D01*
X166110000Y-97530000D02*
X166070000Y-97020000D01*
X166070000Y-97020000D02*
X166040000Y-96520000D01*
X166040000Y-96520000D02*
X166020000Y-96010000D01*
X166020000Y-96010000D02*
X166000000Y-95510000D01*
X166000000Y-95510000D02*
X166000000Y-95000000D01*
X166000000Y-95000000D02*
X166000000Y-94490000D01*
X166000000Y-94490000D02*
X166020000Y-93990000D01*
X166020000Y-93990000D02*
X166040000Y-93480000D01*
X166040000Y-93480000D02*
X166070000Y-92980000D01*
X166070000Y-92980000D02*
X166110000Y-92470000D01*
X166110000Y-92470000D02*
X166160000Y-91970000D01*
X166160000Y-91970000D02*
X166220000Y-91470000D01*
X166220000Y-91470000D02*
X166280000Y-90960000D01*
X166280000Y-90960000D02*
X166360000Y-90460000D01*
X166360000Y-90460000D02*
X166440000Y-89960000D01*
X166440000Y-89960000D02*
X166530000Y-89470000D01*
X166530000Y-89470000D02*
X166630000Y-88970000D01*
X166630000Y-88970000D02*
X166740000Y-88480000D01*
X166740000Y-88480000D02*
X166860000Y-87980000D01*
X166860000Y-87980000D02*
X166990000Y-87490000D01*
X166990000Y-87490000D02*
X167120000Y-87010000D01*
X167120000Y-87010000D02*
X167270000Y-86520000D01*
X167270000Y-86520000D02*
X167420000Y-86040000D01*
X167420000Y-86040000D02*
X167580000Y-85560000D01*
X167580000Y-85560000D02*
X167750000Y-85080000D01*
X167750000Y-85080000D02*
X167930000Y-84610000D01*
X167930000Y-84610000D02*
X168110000Y-84140000D01*
X168110000Y-84140000D02*
X168310000Y-83670000D01*
X168310000Y-83670000D02*
X168510000Y-83200000D01*
X168510000Y-83200000D02*
X168720000Y-82740000D01*
X168720000Y-82740000D02*
X168930000Y-82290000D01*
X168930000Y-82290000D02*
X169160000Y-81830000D01*
X169160000Y-81830000D02*
X169390000Y-81390000D01*
X169390000Y-81390000D02*
X169640000Y-80940000D01*
X169640000Y-80940000D02*
X169890000Y-80500000D01*
X169890000Y-80500000D02*
X170140000Y-80060000D01*
X170140000Y-80060000D02*
X170410000Y-79630000D01*
X170410000Y-79630000D02*
X170680000Y-79210000D01*
X170680000Y-79210000D02*
X170960000Y-78780000D01*
X170960000Y-78780000D02*
X171240000Y-78370000D01*
X171240000Y-78370000D02*
X171540000Y-77950000D01*
X171540000Y-77950000D02*
X171840000Y-77550000D01*
X171840000Y-77550000D02*
X172150000Y-77150000D01*
X172150000Y-77150000D02*
X172460000Y-76750000D01*
X172460000Y-76750000D02*
X172780000Y-76360000D01*
X172780000Y-76360000D02*
X173110000Y-75970000D01*
X173110000Y-75970000D02*
X173450000Y-75600000D01*
X173450000Y-75600000D02*
X173790000Y-75220000D01*
X173790000Y-75220000D02*
X174140000Y-74850000D01*
X174140000Y-74850000D02*
X174490000Y-74490000D01*
X174490000Y-74490000D02*
X174850000Y-74140000D01*
X174850000Y-74140000D02*
X175220000Y-73790000D01*
X175220000Y-73790000D02*
X175600000Y-73450000D01*
X175600000Y-73450000D02*
X175970000Y-73110000D01*
X175970000Y-73110000D02*
X176360000Y-72780000D01*
X176360000Y-72780000D02*
X176750000Y-72460000D01*
X176750000Y-72460000D02*
X177150000Y-72150000D01*
X177150000Y-72150000D02*
X177550000Y-71840000D01*
X177550000Y-71840000D02*
X177950000Y-71540000D01*
X177950000Y-71540000D02*
X178370000Y-71240000D01*
X178370000Y-71240000D02*
X178780000Y-70960000D01*
X178780000Y-70960000D02*
X179210000Y-70680000D01*
X179210000Y-70680000D02*
X179630000Y-70410000D01*
X179630000Y-70410000D02*
X180060000Y-70140000D01*
X180060000Y-70140000D02*
X180500000Y-69890000D01*
X180500000Y-69890000D02*
X180940000Y-69640000D01*
X180940000Y-69640000D02*
X181390000Y-69390000D01*
X181390000Y-69390000D02*
X181830000Y-69160000D01*
X181830000Y-69160000D02*
X182290000Y-68930000D01*
X182290000Y-68930000D02*
X182740000Y-68720000D01*
X182740000Y-68720000D02*
X183200000Y-68510000D01*
X183200000Y-68510000D02*
X183670000Y-68310000D01*
X183670000Y-68310000D02*
X184140000Y-68110000D01*
X184140000Y-68110000D02*
X184610000Y-67930000D01*
X184610000Y-67930000D02*
X185080000Y-67750000D01*
X185080000Y-67750000D02*
X185560000Y-67580000D01*
X185560000Y-67580000D02*
X186040000Y-67420000D01*
X186040000Y-67420000D02*
X186520000Y-67270000D01*
X186520000Y-67270000D02*
X187010000Y-67120000D01*
X187010000Y-67120000D02*
X187490000Y-66990000D01*
X187490000Y-66990000D02*
X187980000Y-66860000D01*
X187980000Y-66860000D02*
X188480000Y-66740000D01*
X188480000Y-66740000D02*
X188970000Y-66630000D01*
X188970000Y-66630000D02*
X189470000Y-66530000D01*
X189470000Y-66530000D02*
X189960000Y-66440000D01*
X189960000Y-66440000D02*
X190460000Y-66360000D01*
X190460000Y-66360000D02*
X190960000Y-66280000D01*
X190960000Y-66280000D02*
X191470000Y-66220000D01*
X191470000Y-66220000D02*
X191970000Y-66160000D01*
X191970000Y-66160000D02*
X192470000Y-66110000D01*
X192470000Y-66110000D02*
X192980000Y-66070000D01*
X192980000Y-66070000D02*
X193480000Y-66040000D01*
X193480000Y-66040000D02*
X193990000Y-66020000D01*
X193990000Y-66020000D02*
X194490000Y-66000000D01*
X194490000Y-66000000D02*
X195000000Y-66000000D01*
X60000000Y-50000000D02*
X240000000Y-50000000D01*
X60000000Y-150000000D02*
X240000000Y-150000000D01*
X60000000Y-50000000D02*
X60000000Y-150000000D01*
X240000000Y-50000000D02*
X240000000Y-150000000D01*
M02*
