G04 #@! TF.FileFunction,Copper,L2,Bot,Signal*
%FSLAX46Y46*%
G04 Gerber Fmt 4.6, Leading zero omitted, Abs format (unit mm)*
G04 Created by KiCad (PCBNEW 4.0.2-1.fc23-product) date Sun 04 Sep 2016 23:35:13 BST*
%MOMM*%
G01*
G04 APERTURE LIST*
%ADD10C,0.150000*%
%ADD11C,1.100000*%
%ADD12C,0.600000*%
G04 APERTURE END LIST*
D10*
G36*
X126231895Y-133689785D02*
X128804920Y-138070372D01*
X114823595Y-143221348D01*
X113939589Y-138218495D01*
X126231895Y-133689785D01*
X126231895Y-133689785D01*
G37*
G36*
X96060411Y-138218495D02*
X95176405Y-143221348D01*
X81195080Y-138070372D01*
X83768105Y-133689785D01*
X96060411Y-138218495D01*
X96060411Y-138218495D01*
G37*
G36*
X107898467Y-136201432D02*
X109293140Y-136079414D01*
X109389011Y-137175228D01*
X107994338Y-137297246D01*
X107898467Y-136201432D01*
X107898467Y-136201432D01*
G37*
G36*
X108050989Y-137944772D02*
X109445662Y-137822754D01*
X109541533Y-138918568D01*
X108146860Y-139040586D01*
X108050989Y-137944772D01*
X108050989Y-137944772D01*
G37*
G36*
X100706860Y-136079414D02*
X102101533Y-136201432D01*
X102005662Y-137297246D01*
X100610989Y-137175228D01*
X100706860Y-136079414D01*
X100706860Y-136079414D01*
G37*
G36*
X100554338Y-137822754D02*
X101949011Y-137944772D01*
X101853140Y-139040586D01*
X100458467Y-138918568D01*
X100554338Y-137822754D01*
X100554338Y-137822754D01*
G37*
G36*
X216231895Y-133689785D02*
X218804920Y-138070372D01*
X204823595Y-143221348D01*
X203939589Y-138218495D01*
X216231895Y-133689785D01*
X216231895Y-133689785D01*
G37*
G36*
X186060411Y-138218495D02*
X185176405Y-143221348D01*
X171195080Y-138070372D01*
X173768105Y-133689785D01*
X186060411Y-138218495D01*
X186060411Y-138218495D01*
G37*
G36*
X197898467Y-136201432D02*
X199293140Y-136079414D01*
X199389011Y-137175228D01*
X197994338Y-137297246D01*
X197898467Y-136201432D01*
X197898467Y-136201432D01*
G37*
G36*
X198050989Y-137944772D02*
X199445662Y-137822754D01*
X199541533Y-138918568D01*
X198146860Y-139040586D01*
X198050989Y-137944772D01*
X198050989Y-137944772D01*
G37*
G36*
X190706860Y-136079414D02*
X192101533Y-136201432D01*
X192005662Y-137297246D01*
X190610989Y-137175228D01*
X190706860Y-136079414D01*
X190706860Y-136079414D01*
G37*
G36*
X190554338Y-137822754D02*
X191949011Y-137944772D01*
X191853140Y-139040586D01*
X190458467Y-138918568D01*
X190554338Y-137822754D01*
X190554338Y-137822754D01*
G37*
D11*
X105000000Y-127000000D03*
X195000000Y-127000000D03*
D12*
X89030000Y-129250000D02*
X88440000Y-128960000D01*
X88440000Y-128960000D02*
X87850000Y-128660000D01*
X87850000Y-128660000D02*
X87270000Y-128350000D01*
X87270000Y-128350000D02*
X86690000Y-128020000D01*
X86690000Y-128020000D02*
X86130000Y-127690000D01*
X86130000Y-127690000D02*
X85560000Y-127350000D01*
X85560000Y-127350000D02*
X85000000Y-127000000D01*
X85000000Y-127000000D02*
X84450000Y-126640000D01*
X84450000Y-126640000D02*
X83910000Y-126270000D01*
X83910000Y-126270000D02*
X83370000Y-125890000D01*
X83370000Y-125890000D02*
X82840000Y-125500000D01*
X82840000Y-125500000D02*
X82320000Y-125100000D01*
X82320000Y-125100000D02*
X81800000Y-124690000D01*
X81800000Y-124690000D02*
X81290000Y-124280000D01*
X81290000Y-124280000D02*
X80790000Y-123850000D01*
X80790000Y-123850000D02*
X80290000Y-123420000D01*
X80290000Y-123420000D02*
X79810000Y-122980000D01*
X79810000Y-122980000D02*
X79330000Y-122530000D01*
X79330000Y-122530000D02*
X78860000Y-122070000D01*
X78860000Y-122070000D02*
X78400000Y-121600000D01*
X78400000Y-121600000D02*
X77940000Y-121130000D01*
X77940000Y-121130000D02*
X77500000Y-120650000D01*
X77500000Y-120650000D02*
X77060000Y-120160000D01*
X77060000Y-120160000D02*
X76630000Y-119660000D01*
X76630000Y-119660000D02*
X76210000Y-119160000D01*
X76210000Y-119160000D02*
X75800000Y-118650000D01*
X75800000Y-118650000D02*
X75400000Y-118130000D01*
X75400000Y-118130000D02*
X75000000Y-117600000D01*
X75000000Y-117600000D02*
X74620000Y-117070000D01*
X74620000Y-117070000D02*
X74250000Y-116530000D01*
X74250000Y-116530000D02*
X73880000Y-115990000D01*
X73880000Y-115990000D02*
X73530000Y-115440000D01*
X73530000Y-115440000D02*
X73180000Y-114880000D01*
X73180000Y-114880000D02*
X72850000Y-114320000D01*
X72850000Y-114320000D02*
X72520000Y-113750000D01*
X72520000Y-113750000D02*
X72210000Y-113180000D01*
X72210000Y-113180000D02*
X71900000Y-112600000D01*
X71900000Y-112600000D02*
X71610000Y-112010000D01*
X71610000Y-112010000D02*
X71330000Y-111420000D01*
X71330000Y-111420000D02*
X71050000Y-110830000D01*
X71050000Y-110830000D02*
X70790000Y-110230000D01*
X70790000Y-110230000D02*
X70530000Y-109630000D01*
X70530000Y-109630000D02*
X70290000Y-109020000D01*
X70290000Y-109020000D02*
X70060000Y-108410000D01*
X70060000Y-108410000D02*
X69840000Y-107800000D01*
X69840000Y-107800000D02*
X69630000Y-107180000D01*
X69630000Y-107180000D02*
X69430000Y-106560000D01*
X69430000Y-106560000D02*
X69240000Y-105930000D01*
X69240000Y-105930000D02*
X69060000Y-105300000D01*
X69060000Y-105300000D02*
X68900000Y-104670000D01*
X68900000Y-104670000D02*
X68740000Y-104040000D01*
X68740000Y-104040000D02*
X68600000Y-103400000D01*
X68600000Y-103400000D02*
X68470000Y-102770000D01*
X68470000Y-102770000D02*
X68340000Y-102130000D01*
X68340000Y-102130000D02*
X68230000Y-101480000D01*
X68230000Y-101480000D02*
X68130000Y-100840000D01*
X68130000Y-100840000D02*
X68050000Y-100190000D01*
X68050000Y-100190000D02*
X67970000Y-99550000D01*
X67970000Y-99550000D02*
X67900000Y-98900000D01*
X67900000Y-98900000D02*
X67850000Y-98250000D01*
X67850000Y-98250000D02*
X67810000Y-97600000D01*
X67810000Y-97600000D02*
X67780000Y-96950000D01*
X67780000Y-96950000D02*
X67760000Y-96300000D01*
X67760000Y-96300000D02*
X67750000Y-95650000D01*
X67750000Y-95650000D02*
X67750000Y-95000000D01*
X67750000Y-95000000D02*
X67760000Y-94350000D01*
X67760000Y-94350000D02*
X67790000Y-93700000D01*
X67790000Y-93700000D02*
X67830000Y-93050000D01*
X67830000Y-93050000D02*
X67870000Y-92400000D01*
X67870000Y-92400000D02*
X67930000Y-91760000D01*
X67930000Y-91760000D02*
X68000000Y-91110000D01*
X68000000Y-91110000D02*
X68090000Y-90470000D01*
X68090000Y-90470000D02*
X68180000Y-89830000D01*
X68180000Y-89830000D02*
X68280000Y-89180000D01*
X68280000Y-89180000D02*
X68400000Y-88550000D01*
X68400000Y-88550000D02*
X68520000Y-87910000D01*
X68520000Y-87910000D02*
X68660000Y-87280000D01*
X68660000Y-87280000D02*
X68810000Y-86640000D01*
X68810000Y-86640000D02*
X68970000Y-86020000D01*
X68970000Y-86020000D02*
X69140000Y-85390000D01*
X69140000Y-85390000D02*
X69320000Y-84770000D01*
X69320000Y-84770000D02*
X69510000Y-84150000D01*
X69510000Y-84150000D02*
X69720000Y-83540000D01*
X69720000Y-83540000D02*
X69930000Y-82920000D01*
X69930000Y-82920000D02*
X70150000Y-82320000D01*
X70150000Y-82320000D02*
X70390000Y-81710000D01*
X70390000Y-81710000D02*
X70630000Y-81110000D01*
X70630000Y-81110000D02*
X70890000Y-80520000D01*
X70890000Y-80520000D02*
X71150000Y-79930000D01*
X71150000Y-79930000D02*
X71430000Y-79350000D01*
X71430000Y-79350000D02*
X71710000Y-78770000D01*
X71710000Y-78770000D02*
X72010000Y-78190000D01*
X72010000Y-78190000D02*
X72320000Y-77620000D01*
X72320000Y-77620000D02*
X72630000Y-77060000D01*
X72630000Y-77060000D02*
X72960000Y-76500000D01*
X72960000Y-76500000D02*
X73290000Y-75950000D01*
X73290000Y-75950000D02*
X73640000Y-75400000D01*
X73640000Y-75400000D02*
X73990000Y-74860000D01*
X73990000Y-74860000D02*
X74350000Y-74330000D01*
X74350000Y-74330000D02*
X74730000Y-73800000D01*
X74730000Y-73800000D02*
X75110000Y-73280000D01*
X75110000Y-73280000D02*
X75500000Y-72770000D01*
X75500000Y-72770000D02*
X75900000Y-72260000D01*
X75900000Y-72260000D02*
X76300000Y-71760000D01*
X76300000Y-71760000D02*
X76720000Y-71270000D01*
X76720000Y-71270000D02*
X77140000Y-70790000D01*
X77140000Y-70790000D02*
X77580000Y-70310000D01*
X77580000Y-70310000D02*
X78020000Y-69840000D01*
X78020000Y-69840000D02*
X78470000Y-69380000D01*
X78470000Y-69380000D02*
X78930000Y-68930000D01*
X78930000Y-68930000D02*
X79390000Y-68480000D01*
X79390000Y-68480000D02*
X79860000Y-68040000D01*
X79860000Y-68040000D02*
X80340000Y-67620000D01*
X80340000Y-67620000D02*
X80830000Y-67200000D01*
X80830000Y-67200000D02*
X81320000Y-66780000D01*
X81320000Y-66780000D02*
X81830000Y-66380000D01*
X81830000Y-66380000D02*
X82330000Y-65990000D01*
X82330000Y-65990000D02*
X82850000Y-65600000D01*
X82850000Y-65600000D02*
X83370000Y-65230000D01*
X83370000Y-65230000D02*
X83900000Y-64860000D01*
X83900000Y-64860000D02*
X84430000Y-64510000D01*
X84430000Y-64510000D02*
X84970000Y-64160000D01*
X84970000Y-64160000D02*
X85520000Y-63820000D01*
X85520000Y-63820000D02*
X86070000Y-63490000D01*
X86070000Y-63490000D02*
X86620000Y-63170000D01*
X86620000Y-63170000D02*
X87190000Y-62870000D01*
X87190000Y-62870000D02*
X87750000Y-62570000D01*
X87750000Y-62570000D02*
X88330000Y-62280000D01*
X88330000Y-62280000D02*
X88900000Y-62000000D01*
X88900000Y-62000000D02*
X89490000Y-61730000D01*
X89490000Y-61730000D02*
X90070000Y-61470000D01*
X90070000Y-61470000D02*
X90660000Y-61230000D01*
X90660000Y-61230000D02*
X91260000Y-60990000D01*
X91260000Y-60990000D02*
X91860000Y-60760000D01*
X91860000Y-60760000D02*
X92460000Y-60540000D01*
X92460000Y-60540000D02*
X93070000Y-60340000D01*
X93070000Y-60340000D02*
X93670000Y-60140000D01*
X93670000Y-60140000D02*
X94290000Y-59960000D01*
X94290000Y-59960000D02*
X94900000Y-59790000D01*
X94900000Y-59790000D02*
X95520000Y-59620000D01*
X95520000Y-59620000D02*
X96140000Y-59470000D01*
X96140000Y-59470000D02*
X96760000Y-59330000D01*
X96760000Y-59330000D02*
X97390000Y-59200000D01*
X97390000Y-59200000D02*
X98020000Y-59080000D01*
X98020000Y-59080000D02*
X98650000Y-58970000D01*
X98650000Y-58970000D02*
X99280000Y-58880000D01*
X99280000Y-58880000D02*
X99910000Y-58790000D01*
X99910000Y-58790000D02*
X100540000Y-58710000D01*
X100540000Y-58710000D02*
X101180000Y-58650000D01*
X101180000Y-58650000D02*
X101820000Y-58600000D01*
X101820000Y-58600000D02*
X102450000Y-58560000D01*
X102450000Y-58560000D02*
X103090000Y-58530000D01*
X103090000Y-58530000D02*
X103730000Y-58510000D01*
X103730000Y-58510000D02*
X104360000Y-58500000D01*
X104360000Y-58500000D02*
X105000000Y-58500000D01*
X105000000Y-58500000D02*
X105640000Y-58510000D01*
X105640000Y-58510000D02*
X106270000Y-58540000D01*
X106270000Y-58540000D02*
X106910000Y-58570000D01*
X106910000Y-58570000D02*
X107540000Y-58620000D01*
X107540000Y-58620000D02*
X108180000Y-58680000D01*
X108180000Y-58680000D02*
X108810000Y-58750000D01*
X108810000Y-58750000D02*
X109440000Y-58830000D01*
X109440000Y-58830000D02*
X110070000Y-58920000D01*
X110070000Y-58920000D02*
X110700000Y-59020000D01*
X110700000Y-59020000D02*
X111320000Y-59140000D01*
X111320000Y-59140000D02*
X111950000Y-59260000D01*
X111950000Y-59260000D02*
X112570000Y-59400000D01*
X112570000Y-59400000D02*
X113190000Y-59540000D01*
X113190000Y-59540000D02*
X113800000Y-59700000D01*
X113800000Y-59700000D02*
X114410000Y-59860000D01*
X114410000Y-59860000D02*
X115020000Y-60040000D01*
X115020000Y-60040000D02*
X115630000Y-60230000D01*
X115630000Y-60230000D02*
X116230000Y-60430000D01*
X116230000Y-60430000D02*
X116830000Y-60640000D01*
X116830000Y-60640000D02*
X117430000Y-60860000D01*
X117430000Y-60860000D02*
X118020000Y-61090000D01*
X118020000Y-61090000D02*
X118600000Y-61330000D01*
X118600000Y-61330000D02*
X119190000Y-61580000D01*
X119190000Y-61580000D02*
X119760000Y-61840000D01*
X119760000Y-61840000D02*
X120340000Y-62110000D01*
X120340000Y-62110000D02*
X120910000Y-62390000D01*
X120910000Y-62390000D02*
X121470000Y-62680000D01*
X121470000Y-62680000D02*
X122030000Y-62980000D01*
X122030000Y-62980000D02*
X122580000Y-63290000D01*
X122580000Y-63290000D02*
X123130000Y-63610000D01*
X123130000Y-63610000D02*
X123670000Y-63930000D01*
X123670000Y-63930000D02*
X124200000Y-64270000D01*
X124200000Y-64270000D02*
X124730000Y-64620000D01*
X124730000Y-64620000D02*
X125250000Y-64980000D01*
X125250000Y-64980000D02*
X125770000Y-65340000D01*
X125770000Y-65340000D02*
X126280000Y-65710000D01*
X126280000Y-65710000D02*
X126780000Y-66100000D01*
X126780000Y-66100000D02*
X127280000Y-66490000D01*
X127280000Y-66490000D02*
X127770000Y-66890000D01*
X127770000Y-66890000D02*
X128250000Y-67290000D01*
X128250000Y-67290000D02*
X128720000Y-67710000D01*
X128720000Y-67710000D02*
X129190000Y-68140000D01*
X129190000Y-68140000D02*
X129650000Y-68570000D01*
X129650000Y-68570000D02*
X130100000Y-69010000D01*
X130100000Y-69010000D02*
X130540000Y-69460000D01*
X130540000Y-69460000D02*
X130980000Y-69910000D01*
X130980000Y-69910000D02*
X131410000Y-70370000D01*
X131410000Y-70370000D02*
X131830000Y-70840000D01*
X131830000Y-70840000D02*
X132240000Y-71320000D01*
X132240000Y-71320000D02*
X132640000Y-71810000D01*
X132640000Y-71810000D02*
X133040000Y-72300000D01*
X133040000Y-72300000D02*
X133420000Y-72800000D01*
X133420000Y-72800000D02*
X133800000Y-73300000D01*
X133800000Y-73300000D02*
X134170000Y-73810000D01*
X134170000Y-73810000D02*
X134520000Y-74330000D01*
X134520000Y-74330000D02*
X134870000Y-74850000D01*
X134870000Y-74850000D02*
X135210000Y-75380000D01*
X135210000Y-75380000D02*
X135540000Y-75910000D01*
X135540000Y-75910000D02*
X135870000Y-76450000D01*
X135870000Y-76450000D02*
X136180000Y-77000000D01*
X136180000Y-77000000D02*
X136480000Y-77550000D01*
X136480000Y-77550000D02*
X136770000Y-78110000D01*
X136770000Y-78110000D02*
X137050000Y-78670000D01*
X137050000Y-78670000D02*
X137330000Y-79230000D01*
X137330000Y-79230000D02*
X137590000Y-79800000D01*
X137590000Y-79800000D02*
X137840000Y-80380000D01*
X137840000Y-80380000D02*
X138080000Y-80960000D01*
X138080000Y-80960000D02*
X138320000Y-81540000D01*
X138320000Y-81540000D02*
X138540000Y-82130000D01*
X138540000Y-82130000D02*
X138750000Y-82720000D01*
X138750000Y-82720000D02*
X138950000Y-83310000D01*
X138950000Y-83310000D02*
X139140000Y-83910000D01*
X139140000Y-83910000D02*
X139320000Y-84510000D01*
X139320000Y-84510000D02*
X139490000Y-85110000D01*
X139490000Y-85110000D02*
X139650000Y-85710000D01*
X139650000Y-85710000D02*
X139800000Y-86320000D01*
X139800000Y-86320000D02*
X139940000Y-86930000D01*
X139940000Y-86930000D02*
X140070000Y-87550000D01*
X140070000Y-87550000D02*
X140180000Y-88160000D01*
X140180000Y-88160000D02*
X140290000Y-88780000D01*
X140290000Y-88780000D02*
X140380000Y-89400000D01*
X140380000Y-89400000D02*
X140470000Y-90020000D01*
X140470000Y-90020000D02*
X140540000Y-90640000D01*
X140540000Y-90640000D02*
X140600000Y-91260000D01*
X140600000Y-91260000D02*
X140660000Y-91880000D01*
X140660000Y-91880000D02*
X140700000Y-92500000D01*
X140700000Y-92500000D02*
X140730000Y-93130000D01*
X140730000Y-93130000D02*
X140740000Y-93750000D01*
X140740000Y-93750000D02*
X140750000Y-94380000D01*
X140750000Y-94380000D02*
X140750000Y-95000000D01*
X140750000Y-95000000D02*
X140740000Y-95620000D01*
X140740000Y-95620000D02*
X140710000Y-96250000D01*
X140710000Y-96250000D02*
X140680000Y-96870000D01*
X140680000Y-96870000D02*
X140630000Y-97490000D01*
X140630000Y-97490000D02*
X140570000Y-98110000D01*
X140570000Y-98110000D02*
X140500000Y-98730000D01*
X140500000Y-98730000D02*
X140430000Y-99350000D01*
X140430000Y-99350000D02*
X140340000Y-99970000D01*
X140340000Y-99970000D02*
X140240000Y-100580000D01*
X140240000Y-100580000D02*
X140120000Y-101190000D01*
X140120000Y-101190000D02*
X140000000Y-101800000D01*
X140000000Y-101800000D02*
X139870000Y-102410000D01*
X139870000Y-102410000D02*
X139730000Y-103020000D01*
X139730000Y-103020000D02*
X139570000Y-103620000D01*
X139570000Y-103620000D02*
X139410000Y-104220000D01*
X139410000Y-104220000D02*
X139240000Y-104820000D01*
X139240000Y-104820000D02*
X139050000Y-105410000D01*
X139050000Y-105410000D02*
X138860000Y-106000000D01*
X138860000Y-106000000D02*
X138650000Y-106590000D01*
X138650000Y-106590000D02*
X138440000Y-107170000D01*
X138440000Y-107170000D02*
X138210000Y-107750000D01*
X138210000Y-107750000D02*
X137980000Y-108320000D01*
X137980000Y-108320000D02*
X137730000Y-108890000D01*
X137730000Y-108890000D02*
X137480000Y-109460000D01*
X137480000Y-109460000D02*
X137210000Y-110020000D01*
X137210000Y-110020000D02*
X136940000Y-110580000D01*
X136940000Y-110580000D02*
X136650000Y-111130000D01*
X136650000Y-111130000D02*
X136360000Y-111670000D01*
X136360000Y-111670000D02*
X136060000Y-112210000D01*
X136060000Y-112210000D02*
X135740000Y-112750000D01*
X135740000Y-112750000D02*
X135420000Y-113280000D01*
X135420000Y-113280000D02*
X135090000Y-113800000D01*
X135090000Y-113800000D02*
X134750000Y-114320000D01*
X134750000Y-114320000D02*
X134400000Y-114830000D01*
X134400000Y-114830000D02*
X134050000Y-115340000D01*
X134050000Y-115340000D02*
X133680000Y-115840000D01*
X133680000Y-115840000D02*
X133300000Y-116330000D01*
X133300000Y-116330000D02*
X132920000Y-116810000D01*
X132920000Y-116810000D02*
X132530000Y-117290000D01*
X132530000Y-117290000D02*
X132130000Y-117770000D01*
X132130000Y-117770000D02*
X131720000Y-118230000D01*
X131720000Y-118230000D02*
X131310000Y-118690000D01*
X131310000Y-118690000D02*
X130880000Y-119140000D01*
X130880000Y-119140000D02*
X130450000Y-119580000D01*
X130450000Y-119580000D02*
X130010000Y-120010000D01*
X130010000Y-120010000D02*
X129570000Y-120440000D01*
X129570000Y-120440000D02*
X129110000Y-120860000D01*
X129110000Y-120860000D02*
X128650000Y-121270000D01*
X128650000Y-121270000D02*
X128190000Y-121670000D01*
X128190000Y-121670000D02*
X127710000Y-122070000D01*
X127710000Y-122070000D02*
X127230000Y-122450000D01*
X127230000Y-122450000D02*
X126740000Y-122830000D01*
X126740000Y-122830000D02*
X126250000Y-123200000D01*
X126250000Y-123200000D02*
X125750000Y-123560000D01*
X125750000Y-123560000D02*
X125240000Y-123910000D01*
X125240000Y-123910000D02*
X124730000Y-124250000D01*
X124730000Y-124250000D02*
X124210000Y-124580000D01*
X124210000Y-124580000D02*
X123690000Y-124910000D01*
X123690000Y-124910000D02*
X123160000Y-125220000D01*
X123160000Y-125220000D02*
X122630000Y-125530000D01*
X122630000Y-125530000D02*
X122090000Y-125820000D01*
X122090000Y-125820000D02*
X121540000Y-126110000D01*
X121540000Y-126110000D02*
X120990000Y-126390000D01*
X120990000Y-126390000D02*
X120440000Y-126650000D01*
X120440000Y-126650000D02*
X119880000Y-126910000D01*
X119880000Y-126910000D02*
X119320000Y-127160000D01*
X119320000Y-127160000D02*
X118750000Y-127390000D01*
X118750000Y-127390000D02*
X118180000Y-127620000D01*
X118180000Y-127620000D02*
X117610000Y-127840000D01*
X117610000Y-127840000D02*
X117030000Y-128050000D01*
X117030000Y-128050000D02*
X116450000Y-128240000D01*
X116450000Y-128240000D02*
X115860000Y-128430000D01*
X115860000Y-128430000D02*
X115270000Y-128610000D01*
X115270000Y-128610000D02*
X114680000Y-128770000D01*
X114680000Y-128770000D02*
X114090000Y-128930000D01*
X114090000Y-128930000D02*
X113500000Y-129070000D01*
X113500000Y-129070000D02*
X112900000Y-129210000D01*
X112900000Y-129210000D02*
X112300000Y-129330000D01*
X112300000Y-129330000D02*
X111700000Y-129450000D01*
X111700000Y-129450000D02*
X111090000Y-129550000D01*
X111090000Y-129550000D02*
X110490000Y-129640000D01*
X110490000Y-129640000D02*
X109880000Y-129730000D01*
X109880000Y-129730000D02*
X109270000Y-129800000D01*
X109270000Y-129800000D02*
X108660000Y-129860000D01*
X108660000Y-129860000D02*
X108050000Y-129910000D01*
X108050000Y-129910000D02*
X107440000Y-129950000D01*
X107440000Y-129950000D02*
X106830000Y-129980000D01*
X106830000Y-129980000D02*
X106220000Y-130000000D01*
X106220000Y-130000000D02*
X105610000Y-130000000D01*
X105610000Y-130000000D02*
X105000000Y-130000000D01*
X105000000Y-130000000D02*
X104390000Y-129990000D01*
X104390000Y-129990000D02*
X103780000Y-129960000D01*
X103780000Y-129960000D02*
X103170000Y-129930000D01*
X103170000Y-129930000D02*
X102560000Y-129880000D01*
X102560000Y-129880000D02*
X101950000Y-129830000D01*
X101950000Y-129830000D02*
X101350000Y-129760000D01*
X101350000Y-129760000D02*
X100740000Y-129680000D01*
X100740000Y-129680000D02*
X100140000Y-129590000D01*
X100140000Y-129590000D02*
X99540000Y-129500000D01*
X99540000Y-129500000D02*
X98940000Y-129390000D01*
X98940000Y-129390000D02*
X98340000Y-129270000D01*
X98340000Y-129270000D02*
X97740000Y-129140000D01*
X97740000Y-129140000D02*
X97150000Y-129000000D01*
X97150000Y-129000000D02*
X96560000Y-128850000D01*
X96560000Y-128850000D02*
X95970000Y-128690000D01*
X95970000Y-128690000D02*
X95390000Y-128520000D01*
X95390000Y-128520000D02*
X94810000Y-128340000D01*
X94810000Y-128340000D02*
X94230000Y-128140000D01*
X94230000Y-128140000D02*
X93660000Y-127940000D01*
X93660000Y-127940000D02*
X93090000Y-127730000D01*
X93090000Y-127730000D02*
X92520000Y-127510000D01*
X92520000Y-127510000D02*
X91960000Y-127280000D01*
X91960000Y-127280000D02*
X91400000Y-127040000D01*
X91400000Y-127040000D02*
X90850000Y-126790000D01*
X90850000Y-126790000D02*
X90300000Y-126530000D01*
X90300000Y-126530000D02*
X89750000Y-126260000D01*
X89750000Y-126260000D02*
X89210000Y-125980000D01*
X89210000Y-125980000D02*
X88680000Y-125700000D01*
X88680000Y-125700000D02*
X88150000Y-125400000D01*
X88150000Y-125400000D02*
X87630000Y-125090000D01*
X87630000Y-125090000D02*
X87110000Y-124780000D01*
X87110000Y-124780000D02*
X86590000Y-124460000D01*
X86590000Y-124460000D02*
X86090000Y-124120000D01*
X86090000Y-124120000D02*
X85590000Y-123780000D01*
X85590000Y-123780000D02*
X85090000Y-123430000D01*
X85090000Y-123430000D02*
X84600000Y-123070000D01*
X84600000Y-123070000D02*
X84120000Y-122710000D01*
X84120000Y-122710000D02*
X83650000Y-122330000D01*
X83650000Y-122330000D02*
X83180000Y-121950000D01*
X83180000Y-121950000D02*
X82720000Y-121560000D01*
X82720000Y-121560000D02*
X82260000Y-121160000D01*
X82260000Y-121160000D02*
X81810000Y-120750000D01*
X81810000Y-120750000D02*
X81370000Y-120340000D01*
X81370000Y-120340000D02*
X80940000Y-119910000D01*
X80940000Y-119910000D02*
X80520000Y-119480000D01*
X80520000Y-119480000D02*
X80100000Y-119050000D01*
X80100000Y-119050000D02*
X79690000Y-118600000D01*
X79690000Y-118600000D02*
X79290000Y-118150000D01*
X79290000Y-118150000D02*
X78890000Y-117690000D01*
X78890000Y-117690000D02*
X78510000Y-117230000D01*
X78510000Y-117230000D02*
X78130000Y-116760000D01*
X78130000Y-116760000D02*
X77760000Y-116280000D01*
X77760000Y-116280000D02*
X77400000Y-115800000D01*
X77400000Y-115800000D02*
X77050000Y-115310000D01*
X77050000Y-115310000D02*
X76710000Y-114810000D01*
X76710000Y-114810000D02*
X76370000Y-114310000D01*
X76370000Y-114310000D02*
X76040000Y-113800000D01*
X76040000Y-113800000D02*
X75730000Y-113290000D01*
X75730000Y-113290000D02*
X75420000Y-112770000D01*
X75420000Y-112770000D02*
X75120000Y-112250000D01*
X75120000Y-112250000D02*
X74830000Y-111720000D01*
X74830000Y-111720000D02*
X74550000Y-111190000D01*
X74550000Y-111190000D02*
X74280000Y-110650000D01*
X74280000Y-110650000D02*
X74020000Y-110110000D01*
X74020000Y-110110000D02*
X73770000Y-109560000D01*
X73770000Y-109560000D02*
X73530000Y-109010000D01*
X73530000Y-109010000D02*
X73300000Y-108460000D01*
X73300000Y-108460000D02*
X73070000Y-107900000D01*
X73070000Y-107900000D02*
X72860000Y-107340000D01*
X72860000Y-107340000D02*
X72660000Y-106770000D01*
X72660000Y-106770000D02*
X72470000Y-106200000D01*
X72470000Y-106200000D02*
X72280000Y-105630000D01*
X72280000Y-105630000D02*
X72110000Y-105060000D01*
X72110000Y-105060000D02*
X71950000Y-104480000D01*
X71950000Y-104480000D02*
X71800000Y-103900000D01*
X71800000Y-103900000D02*
X71650000Y-103310000D01*
X71650000Y-103310000D02*
X71520000Y-102730000D01*
X71520000Y-102730000D02*
X71400000Y-102140000D01*
X71400000Y-102140000D02*
X71290000Y-101550000D01*
X71290000Y-101550000D02*
X71190000Y-100960000D01*
X71190000Y-100960000D02*
X71100000Y-100370000D01*
X71100000Y-100370000D02*
X71020000Y-99780000D01*
X71020000Y-99780000D02*
X70950000Y-99180000D01*
X70950000Y-99180000D02*
X70890000Y-98590000D01*
X70890000Y-98590000D02*
X70840000Y-97990000D01*
X70840000Y-97990000D02*
X70800000Y-97390000D01*
X70800000Y-97390000D02*
X70770000Y-96790000D01*
X70770000Y-96790000D02*
X70750000Y-96200000D01*
X70750000Y-96200000D02*
X70750000Y-95600000D01*
X70750000Y-95600000D02*
X70750000Y-95000000D01*
X70750000Y-95000000D02*
X70760000Y-94400000D01*
X70760000Y-94400000D02*
X70790000Y-93810000D01*
X70790000Y-93810000D02*
X70820000Y-93210000D01*
X70820000Y-93210000D02*
X70870000Y-92610000D01*
X70870000Y-92610000D02*
X70920000Y-92020000D01*
X70920000Y-92020000D02*
X70990000Y-91430000D01*
X70990000Y-91430000D02*
X71060000Y-90830000D01*
X71060000Y-90830000D02*
X71150000Y-90240000D01*
X71150000Y-90240000D02*
X71250000Y-89650000D01*
X71250000Y-89650000D02*
X71350000Y-89070000D01*
X71350000Y-89070000D02*
X71470000Y-88480000D01*
X71470000Y-88480000D02*
X71600000Y-87900000D01*
X71600000Y-87900000D02*
X71730000Y-87320000D01*
X71730000Y-87320000D02*
X71880000Y-86740000D01*
X71880000Y-86740000D02*
X72040000Y-86170000D01*
X72040000Y-86170000D02*
X72200000Y-85600000D01*
X72200000Y-85600000D02*
X72380000Y-85030000D01*
X72380000Y-85030000D02*
X72570000Y-84460000D01*
X72570000Y-84460000D02*
X72770000Y-83900000D01*
X72770000Y-83900000D02*
X72970000Y-83340000D01*
X72970000Y-83340000D02*
X73190000Y-82790000D01*
X73190000Y-82790000D02*
X73410000Y-82240000D01*
X73410000Y-82240000D02*
X73650000Y-81690000D01*
X73650000Y-81690000D02*
X73890000Y-81150000D01*
X73890000Y-81150000D02*
X74150000Y-80610000D01*
X74150000Y-80610000D02*
X74410000Y-80080000D01*
X74410000Y-80080000D02*
X74680000Y-79550000D01*
X74680000Y-79550000D02*
X74970000Y-79030000D01*
X74970000Y-79030000D02*
X75260000Y-78510000D01*
X75260000Y-78510000D02*
X75560000Y-78000000D01*
X75560000Y-78000000D02*
X75860000Y-77490000D01*
X75860000Y-77490000D02*
X76180000Y-76990000D01*
X76180000Y-76990000D02*
X76510000Y-76500000D01*
X76510000Y-76500000D02*
X76840000Y-76010000D01*
X76840000Y-76010000D02*
X77180000Y-75520000D01*
X77180000Y-75520000D02*
X77530000Y-75040000D01*
X77530000Y-75040000D02*
X77890000Y-74570000D01*
X77890000Y-74570000D02*
X78260000Y-74110000D01*
X78260000Y-74110000D02*
X78640000Y-73650000D01*
X78640000Y-73650000D02*
X79020000Y-73200000D01*
X79020000Y-73200000D02*
X79410000Y-72750000D01*
X79410000Y-72750000D02*
X79810000Y-72320000D01*
X79810000Y-72320000D02*
X80210000Y-71890000D01*
X80210000Y-71890000D02*
X80630000Y-71460000D01*
X80630000Y-71460000D02*
X81050000Y-71050000D01*
X81050000Y-71050000D02*
X81470000Y-70640000D01*
X81470000Y-70640000D02*
X81910000Y-70240000D01*
X81910000Y-70240000D02*
X82350000Y-69840000D01*
X82350000Y-69840000D02*
X82800000Y-69460000D01*
X82800000Y-69460000D02*
X83250000Y-69080000D01*
X83250000Y-69080000D02*
X83710000Y-68710000D01*
X83710000Y-68710000D02*
X84180000Y-68350000D01*
X84180000Y-68350000D02*
X84650000Y-68000000D01*
X84650000Y-68000000D02*
X85130000Y-67660000D01*
X85130000Y-67660000D02*
X85620000Y-67320000D01*
X85620000Y-67320000D02*
X86110000Y-66990000D01*
X86110000Y-66990000D02*
X86600000Y-66670000D01*
X86600000Y-66670000D02*
X87110000Y-66360000D01*
X87110000Y-66360000D02*
X87610000Y-66060000D01*
X87610000Y-66060000D02*
X88120000Y-65770000D01*
X88120000Y-65770000D02*
X88640000Y-65490000D01*
X88640000Y-65490000D02*
X89160000Y-65220000D01*
X89160000Y-65220000D02*
X89690000Y-64950000D01*
X89690000Y-64950000D02*
X90220000Y-64700000D01*
X90220000Y-64700000D02*
X90750000Y-64450000D01*
X90750000Y-64450000D02*
X91290000Y-64210000D01*
X91290000Y-64210000D02*
X91840000Y-63990000D01*
X91840000Y-63990000D02*
X92380000Y-63770000D01*
X92380000Y-63770000D02*
X92930000Y-63560000D01*
X92930000Y-63560000D02*
X93490000Y-63360000D01*
X93490000Y-63360000D02*
X94040000Y-63180000D01*
X94040000Y-63180000D02*
X94600000Y-63000000D01*
X94600000Y-63000000D02*
X95160000Y-62830000D01*
X95160000Y-62830000D02*
X95730000Y-62670000D01*
X95730000Y-62670000D02*
X96300000Y-62520000D01*
X96300000Y-62520000D02*
X96870000Y-62380000D01*
X96870000Y-62380000D02*
X97440000Y-62250000D01*
X97440000Y-62250000D02*
X98010000Y-62130000D01*
X98010000Y-62130000D02*
X98590000Y-62030000D01*
X98590000Y-62030000D02*
X99170000Y-61930000D01*
X99170000Y-61930000D02*
X99750000Y-61840000D01*
X99750000Y-61840000D02*
X100330000Y-61760000D01*
X100330000Y-61760000D02*
X100910000Y-61690000D01*
X100910000Y-61690000D02*
X101490000Y-61630000D01*
X101490000Y-61630000D02*
X102080000Y-61590000D01*
X102080000Y-61590000D02*
X102660000Y-61550000D01*
X102660000Y-61550000D02*
X103250000Y-61520000D01*
X103250000Y-61520000D02*
X103830000Y-61500000D01*
X103830000Y-61500000D02*
X104420000Y-61500000D01*
X104420000Y-61500000D02*
X105000000Y-61500000D01*
X105000000Y-61500000D02*
X105580000Y-61510000D01*
X105580000Y-61510000D02*
X106170000Y-61540000D01*
X106170000Y-61540000D02*
X106750000Y-61570000D01*
X106750000Y-61570000D02*
X107330000Y-61610000D01*
X107330000Y-61610000D02*
X107920000Y-61670000D01*
X107920000Y-61670000D02*
X108500000Y-61730000D01*
X108500000Y-61730000D02*
X109080000Y-61810000D01*
X109080000Y-61810000D02*
X109650000Y-61890000D01*
X109650000Y-61890000D02*
X110230000Y-61990000D01*
X110230000Y-61990000D02*
X110800000Y-62090000D01*
X110800000Y-62090000D02*
X111370000Y-62210000D01*
X111370000Y-62210000D02*
X111940000Y-62330000D01*
X111940000Y-62330000D02*
X112510000Y-62460000D01*
X112510000Y-62460000D02*
X113080000Y-62610000D01*
X113080000Y-62610000D02*
X113640000Y-62760000D01*
X113640000Y-62760000D02*
X114200000Y-62930000D01*
X114200000Y-62930000D02*
X114750000Y-63100000D01*
X114750000Y-63100000D02*
X115310000Y-63280000D01*
X115310000Y-63280000D02*
X115850000Y-63470000D01*
X115850000Y-63470000D02*
X116400000Y-63680000D01*
X116400000Y-63680000D02*
X116940000Y-63890000D01*
X116940000Y-63890000D02*
X117480000Y-64110000D01*
X117480000Y-64110000D02*
X118010000Y-64340000D01*
X118010000Y-64340000D02*
X118540000Y-64580000D01*
X118540000Y-64580000D02*
X119070000Y-64830000D01*
X119070000Y-64830000D02*
X119590000Y-65090000D01*
X119590000Y-65090000D02*
X120110000Y-65350000D01*
X120110000Y-65350000D02*
X120620000Y-65630000D01*
X120620000Y-65630000D02*
X121120000Y-65910000D01*
X121120000Y-65910000D02*
X121630000Y-66200000D01*
X121630000Y-66200000D02*
X122120000Y-66510000D01*
X122120000Y-66510000D02*
X122610000Y-66820000D01*
X122610000Y-66820000D02*
X123100000Y-67140000D01*
X123100000Y-67140000D02*
X123570000Y-67460000D01*
X123570000Y-67460000D02*
X124050000Y-67800000D01*
X124050000Y-67800000D02*
X124510000Y-68140000D01*
X124510000Y-68140000D02*
X124980000Y-68490000D01*
X124980000Y-68490000D02*
X125430000Y-68850000D01*
X125430000Y-68850000D02*
X125880000Y-69220000D01*
X125880000Y-69220000D02*
X126320000Y-69590000D01*
X126320000Y-69590000D02*
X126750000Y-69980000D01*
X126750000Y-69980000D02*
X127180000Y-70360000D01*
X127180000Y-70360000D02*
X127600000Y-70760000D01*
X127600000Y-70760000D02*
X128020000Y-71170000D01*
X128020000Y-71170000D02*
X128420000Y-71580000D01*
X128420000Y-71580000D02*
X128820000Y-72000000D01*
X128820000Y-72000000D02*
X129210000Y-72420000D01*
X129210000Y-72420000D02*
X129600000Y-72850000D01*
X129600000Y-72850000D02*
X129970000Y-73290000D01*
X129970000Y-73290000D02*
X130340000Y-73730000D01*
X130340000Y-73730000D02*
X130700000Y-74190000D01*
X130700000Y-74190000D02*
X131060000Y-74640000D01*
X131060000Y-74640000D02*
X131400000Y-75100000D01*
X131400000Y-75100000D02*
X131740000Y-75570000D01*
X131740000Y-75570000D02*
X132070000Y-76050000D01*
X132070000Y-76050000D02*
X132390000Y-76530000D01*
X132390000Y-76530000D02*
X132700000Y-77010000D01*
X132700000Y-77010000D02*
X133000000Y-77500000D01*
X133000000Y-77500000D02*
X133290000Y-78000000D01*
X133290000Y-78000000D02*
X133580000Y-78500000D01*
X133580000Y-78500000D02*
X133860000Y-79010000D01*
X133860000Y-79010000D02*
X134120000Y-79520000D01*
X134120000Y-79520000D02*
X134380000Y-80030000D01*
X134380000Y-80030000D02*
X134630000Y-80550000D01*
X134630000Y-80550000D02*
X134870000Y-81070000D01*
X134870000Y-81070000D02*
X135100000Y-81600000D01*
X135100000Y-81600000D02*
X135320000Y-82130000D01*
X135320000Y-82130000D02*
X135540000Y-82660000D01*
X135540000Y-82660000D02*
X135740000Y-83200000D01*
X135740000Y-83200000D02*
X135930000Y-83740000D01*
X135930000Y-83740000D02*
X136120000Y-84290000D01*
X136120000Y-84290000D02*
X136290000Y-84830000D01*
X136290000Y-84830000D02*
X136450000Y-85380000D01*
X136450000Y-85380000D02*
X136610000Y-85940000D01*
X136610000Y-85940000D02*
X136750000Y-86490000D01*
X136750000Y-86490000D02*
X136890000Y-87050000D01*
X136890000Y-87050000D02*
X137020000Y-87610000D01*
X137020000Y-87610000D02*
X137130000Y-88170000D01*
X137130000Y-88170000D02*
X137240000Y-88730000D01*
X137240000Y-88730000D02*
X137330000Y-89300000D01*
X137330000Y-89300000D02*
X137420000Y-89870000D01*
X137420000Y-89870000D02*
X137500000Y-90430000D01*
X137500000Y-90430000D02*
X137560000Y-91000000D01*
X137560000Y-91000000D02*
X137620000Y-91570000D01*
X137620000Y-91570000D02*
X137670000Y-92140000D01*
X137670000Y-92140000D02*
X137700000Y-92710000D01*
X137700000Y-92710000D02*
X137730000Y-93280000D01*
X137730000Y-93280000D02*
X137750000Y-93860000D01*
X137750000Y-93860000D02*
X137750000Y-94430000D01*
X137750000Y-94430000D02*
X137750000Y-95000000D01*
X137750000Y-95000000D02*
X137740000Y-95570000D01*
X137740000Y-95570000D02*
X137710000Y-96140000D01*
X137710000Y-96140000D02*
X137680000Y-96710000D01*
X137680000Y-96710000D02*
X137640000Y-97280000D01*
X137640000Y-97280000D02*
X137580000Y-97850000D01*
X137580000Y-97850000D02*
X137520000Y-98420000D01*
X137520000Y-98420000D02*
X137450000Y-98980000D01*
X137450000Y-98980000D02*
X137370000Y-99550000D01*
X137370000Y-99550000D02*
X137270000Y-100110000D01*
X137270000Y-100110000D02*
X137170000Y-100670000D01*
X137170000Y-100670000D02*
X137060000Y-101230000D01*
X137060000Y-101230000D02*
X136940000Y-101790000D01*
X136940000Y-101790000D02*
X136810000Y-102340000D01*
X136810000Y-102340000D02*
X136660000Y-102890000D01*
X136660000Y-102890000D02*
X136510000Y-103440000D01*
X136510000Y-103440000D02*
X136350000Y-103990000D01*
X136350000Y-103990000D02*
X136180000Y-104530000D01*
X136180000Y-104530000D02*
X136000000Y-105070000D01*
X136000000Y-105070000D02*
X135820000Y-105610000D01*
X135820000Y-105610000D02*
X135620000Y-106140000D01*
X135620000Y-106140000D02*
X135410000Y-106670000D01*
X135410000Y-106670000D02*
X135200000Y-107200000D01*
X135200000Y-107200000D02*
X134970000Y-107720000D01*
X134970000Y-107720000D02*
X134740000Y-108240000D01*
X134740000Y-108240000D02*
X134490000Y-108750000D01*
X134490000Y-108750000D02*
X134240000Y-109260000D01*
X134240000Y-109260000D02*
X133980000Y-109770000D01*
X133980000Y-109770000D02*
X133710000Y-110270000D01*
X133710000Y-110270000D02*
X133430000Y-110760000D01*
X133430000Y-110760000D02*
X133150000Y-111250000D01*
X133150000Y-111250000D02*
X132850000Y-111730000D01*
X132850000Y-111730000D02*
X132550000Y-112210000D01*
X132550000Y-112210000D02*
X132240000Y-112690000D01*
X132240000Y-112690000D02*
X131920000Y-113160000D01*
X131920000Y-113160000D02*
X131590000Y-113620000D01*
X131590000Y-113620000D02*
X131250000Y-114070000D01*
X131250000Y-114070000D02*
X130910000Y-114520000D01*
X130910000Y-114520000D02*
X130560000Y-114970000D01*
X130560000Y-114970000D02*
X130200000Y-115410000D01*
X130200000Y-115410000D02*
X129830000Y-115840000D01*
X129830000Y-115840000D02*
X129460000Y-116260000D01*
X129460000Y-116260000D02*
X129080000Y-116680000D01*
X129080000Y-116680000D02*
X128690000Y-117090000D01*
X128690000Y-117090000D02*
X128290000Y-117500000D01*
X128290000Y-117500000D02*
X127890000Y-117890000D01*
X127890000Y-117890000D02*
X127480000Y-118280000D01*
X127480000Y-118280000D02*
X127070000Y-118670000D01*
X127070000Y-118670000D02*
X126650000Y-119040000D01*
X126650000Y-119040000D02*
X126220000Y-119410000D01*
X126220000Y-119410000D02*
X125780000Y-119770000D01*
X125780000Y-119770000D02*
X125340000Y-120120000D01*
X125340000Y-120120000D02*
X124900000Y-120470000D01*
X124900000Y-120470000D02*
X124440000Y-120800000D01*
X124440000Y-120800000D02*
X123990000Y-121130000D01*
X123990000Y-121130000D02*
X123520000Y-121450000D01*
X123520000Y-121450000D02*
X123050000Y-121760000D01*
X123050000Y-121760000D02*
X122580000Y-122070000D01*
X122580000Y-122070000D02*
X122100000Y-122360000D01*
X122100000Y-122360000D02*
X121610000Y-122650000D01*
X121610000Y-122650000D02*
X121130000Y-122930000D01*
X121130000Y-122930000D02*
X120630000Y-123200000D01*
X120630000Y-123200000D02*
X120130000Y-123460000D01*
X120130000Y-123460000D02*
X119630000Y-123710000D01*
X119630000Y-123710000D02*
X119120000Y-123960000D01*
X119120000Y-123960000D02*
X118610000Y-124190000D01*
X118610000Y-124190000D02*
X118100000Y-124420000D01*
X118100000Y-124420000D02*
X117580000Y-124630000D01*
X117580000Y-124630000D02*
X117060000Y-124840000D01*
X117060000Y-124840000D02*
X116530000Y-125040000D01*
X116530000Y-125040000D02*
X116000000Y-125230000D01*
X116000000Y-125230000D02*
X115470000Y-125410000D01*
X115470000Y-125410000D02*
X114930000Y-125580000D01*
X114930000Y-125580000D02*
X114400000Y-125740000D01*
X114400000Y-125740000D02*
X113860000Y-125890000D01*
X113860000Y-125890000D02*
X113310000Y-126030000D01*
X113310000Y-126030000D02*
X112770000Y-126160000D01*
X112770000Y-126160000D02*
X112220000Y-126290000D01*
X112220000Y-126290000D02*
X111670000Y-126400000D01*
X111670000Y-126400000D02*
X111120000Y-126500000D01*
X111120000Y-126500000D02*
X110570000Y-126600000D01*
X110570000Y-126600000D02*
X110020000Y-126680000D01*
X110020000Y-126680000D02*
X109460000Y-126750000D01*
X109460000Y-126750000D02*
X108910000Y-126820000D01*
X108910000Y-126820000D02*
X108350000Y-126870000D01*
X108350000Y-126870000D02*
X107790000Y-126920000D01*
X107790000Y-126920000D02*
X107230000Y-126960000D01*
X107230000Y-126960000D02*
X106680000Y-126980000D01*
X106680000Y-126980000D02*
X106120000Y-127000000D01*
X106120000Y-127000000D02*
X105560000Y-127000000D01*
X105560000Y-127000000D02*
X105000000Y-127000000D01*
X101350000Y-136690000D02*
X100630000Y-136600000D01*
X100630000Y-136600000D02*
X99910000Y-136440000D01*
X99910000Y-136440000D02*
X99210000Y-136230000D01*
X99210000Y-136230000D02*
X98510000Y-135960000D01*
X98510000Y-135960000D02*
X97830000Y-135640000D01*
X97830000Y-135640000D02*
X97170000Y-135270000D01*
X97170000Y-135270000D02*
X96530000Y-134870000D01*
X96530000Y-134870000D02*
X95900000Y-134430000D01*
X95900000Y-134430000D02*
X95280000Y-133970000D01*
X95280000Y-133970000D02*
X94690000Y-133490000D01*
X94690000Y-133490000D02*
X94100000Y-133000000D01*
X94100000Y-133000000D02*
X93530000Y-132510000D01*
X93530000Y-132510000D02*
X92970000Y-132030000D01*
X92970000Y-132030000D02*
X92410000Y-131560000D01*
X92410000Y-131560000D02*
X91860000Y-131110000D01*
X91860000Y-131110000D02*
X91300000Y-130690000D01*
X91300000Y-130690000D02*
X90740000Y-130290000D01*
X90740000Y-130290000D02*
X90170000Y-129930000D01*
X90170000Y-129930000D02*
X89600000Y-129590000D01*
X89600000Y-129590000D02*
X89010000Y-129300000D01*
X108650000Y-136690000D02*
X107920000Y-136750000D01*
X107920000Y-136750000D02*
X107190000Y-136790000D01*
X107190000Y-136790000D02*
X106460000Y-136820000D01*
X106460000Y-136820000D02*
X105730000Y-136840000D01*
X105730000Y-136840000D02*
X105000000Y-136850000D01*
X105000000Y-136850000D02*
X104270000Y-136840000D01*
X104270000Y-136840000D02*
X103540000Y-136820000D01*
X103540000Y-136820000D02*
X102810000Y-136790000D01*
X102810000Y-136790000D02*
X102080000Y-136750000D01*
X102080000Y-136750000D02*
X101350000Y-136690000D01*
X210970000Y-129250000D02*
X211560000Y-128960000D01*
X211560000Y-128960000D02*
X212150000Y-128660000D01*
X212150000Y-128660000D02*
X212730000Y-128350000D01*
X212730000Y-128350000D02*
X213310000Y-128020000D01*
X213310000Y-128020000D02*
X213880000Y-127690000D01*
X213880000Y-127690000D02*
X214440000Y-127350000D01*
X214440000Y-127350000D02*
X215000000Y-127000000D01*
X215000000Y-127000000D02*
X215550000Y-126640000D01*
X215550000Y-126640000D02*
X216090000Y-126270000D01*
X216090000Y-126270000D02*
X216630000Y-125890000D01*
X216630000Y-125890000D02*
X217160000Y-125500000D01*
X217160000Y-125500000D02*
X217680000Y-125100000D01*
X217680000Y-125100000D02*
X218200000Y-124690000D01*
X218200000Y-124690000D02*
X218710000Y-124280000D01*
X218710000Y-124280000D02*
X219210000Y-123850000D01*
X219210000Y-123850000D02*
X219710000Y-123420000D01*
X219710000Y-123420000D02*
X220190000Y-122980000D01*
X220190000Y-122980000D02*
X220670000Y-122530000D01*
X220670000Y-122530000D02*
X221140000Y-122070000D01*
X221140000Y-122070000D02*
X221600000Y-121600000D01*
X221600000Y-121600000D02*
X222060000Y-121130000D01*
X222060000Y-121130000D02*
X222500000Y-120650000D01*
X222500000Y-120650000D02*
X222940000Y-120160000D01*
X222940000Y-120160000D02*
X223370000Y-119660000D01*
X223370000Y-119660000D02*
X223790000Y-119160000D01*
X223790000Y-119160000D02*
X224200000Y-118650000D01*
X224200000Y-118650000D02*
X224600000Y-118130000D01*
X224600000Y-118130000D02*
X225000000Y-117600000D01*
X225000000Y-117600000D02*
X225380000Y-117070000D01*
X225380000Y-117070000D02*
X225750000Y-116530000D01*
X225750000Y-116530000D02*
X226120000Y-115990000D01*
X226120000Y-115990000D02*
X226470000Y-115440000D01*
X226470000Y-115440000D02*
X226820000Y-114880000D01*
X226820000Y-114880000D02*
X227150000Y-114320000D01*
X227150000Y-114320000D02*
X227480000Y-113750000D01*
X227480000Y-113750000D02*
X227790000Y-113180000D01*
X227790000Y-113180000D02*
X228100000Y-112600000D01*
X228100000Y-112600000D02*
X228390000Y-112010000D01*
X228390000Y-112010000D02*
X228670000Y-111420000D01*
X228670000Y-111420000D02*
X228950000Y-110830000D01*
X228950000Y-110830000D02*
X229210000Y-110230000D01*
X229210000Y-110230000D02*
X229470000Y-109630000D01*
X229470000Y-109630000D02*
X229710000Y-109020000D01*
X229710000Y-109020000D02*
X229940000Y-108410000D01*
X229940000Y-108410000D02*
X230160000Y-107800000D01*
X230160000Y-107800000D02*
X230370000Y-107180000D01*
X230370000Y-107180000D02*
X230570000Y-106560000D01*
X230570000Y-106560000D02*
X230760000Y-105930000D01*
X230760000Y-105930000D02*
X230940000Y-105300000D01*
X230940000Y-105300000D02*
X231100000Y-104670000D01*
X231100000Y-104670000D02*
X231260000Y-104040000D01*
X231260000Y-104040000D02*
X231400000Y-103400000D01*
X231400000Y-103400000D02*
X231530000Y-102770000D01*
X231530000Y-102770000D02*
X231660000Y-102130000D01*
X231660000Y-102130000D02*
X231770000Y-101480000D01*
X231770000Y-101480000D02*
X231870000Y-100840000D01*
X231870000Y-100840000D02*
X231950000Y-100190000D01*
X231950000Y-100190000D02*
X232030000Y-99550000D01*
X232030000Y-99550000D02*
X232100000Y-98900000D01*
X232100000Y-98900000D02*
X232150000Y-98250000D01*
X232150000Y-98250000D02*
X232190000Y-97600000D01*
X232190000Y-97600000D02*
X232220000Y-96950000D01*
X232220000Y-96950000D02*
X232240000Y-96300000D01*
X232240000Y-96300000D02*
X232250000Y-95650000D01*
X232250000Y-95650000D02*
X232250000Y-95000000D01*
X232250000Y-95000000D02*
X232240000Y-94350000D01*
X232240000Y-94350000D02*
X232210000Y-93700000D01*
X232210000Y-93700000D02*
X232170000Y-93050000D01*
X232170000Y-93050000D02*
X232130000Y-92400000D01*
X232130000Y-92400000D02*
X232070000Y-91760000D01*
X232070000Y-91760000D02*
X232000000Y-91110000D01*
X232000000Y-91110000D02*
X231910000Y-90470000D01*
X231910000Y-90470000D02*
X231820000Y-89830000D01*
X231820000Y-89830000D02*
X231720000Y-89180000D01*
X231720000Y-89180000D02*
X231600000Y-88550000D01*
X231600000Y-88550000D02*
X231480000Y-87910000D01*
X231480000Y-87910000D02*
X231340000Y-87280000D01*
X231340000Y-87280000D02*
X231190000Y-86640000D01*
X231190000Y-86640000D02*
X231030000Y-86020000D01*
X231030000Y-86020000D02*
X230860000Y-85390000D01*
X230860000Y-85390000D02*
X230680000Y-84770000D01*
X230680000Y-84770000D02*
X230490000Y-84150000D01*
X230490000Y-84150000D02*
X230280000Y-83540000D01*
X230280000Y-83540000D02*
X230070000Y-82920000D01*
X230070000Y-82920000D02*
X229850000Y-82320000D01*
X229850000Y-82320000D02*
X229610000Y-81710000D01*
X229610000Y-81710000D02*
X229370000Y-81110000D01*
X229370000Y-81110000D02*
X229110000Y-80520000D01*
X229110000Y-80520000D02*
X228850000Y-79930000D01*
X228850000Y-79930000D02*
X228570000Y-79350000D01*
X228570000Y-79350000D02*
X228290000Y-78770000D01*
X228290000Y-78770000D02*
X227990000Y-78190000D01*
X227990000Y-78190000D02*
X227680000Y-77620000D01*
X227680000Y-77620000D02*
X227370000Y-77060000D01*
X227370000Y-77060000D02*
X227040000Y-76500000D01*
X227040000Y-76500000D02*
X226710000Y-75950000D01*
X226710000Y-75950000D02*
X226360000Y-75400000D01*
X226360000Y-75400000D02*
X226010000Y-74860000D01*
X226010000Y-74860000D02*
X225650000Y-74330000D01*
X225650000Y-74330000D02*
X225270000Y-73800000D01*
X225270000Y-73800000D02*
X224890000Y-73280000D01*
X224890000Y-73280000D02*
X224500000Y-72770000D01*
X224500000Y-72770000D02*
X224100000Y-72260000D01*
X224100000Y-72260000D02*
X223700000Y-71760000D01*
X223700000Y-71760000D02*
X223280000Y-71270000D01*
X223280000Y-71270000D02*
X222860000Y-70790000D01*
X222860000Y-70790000D02*
X222420000Y-70310000D01*
X222420000Y-70310000D02*
X221980000Y-69840000D01*
X221980000Y-69840000D02*
X221530000Y-69380000D01*
X221530000Y-69380000D02*
X221070000Y-68930000D01*
X221070000Y-68930000D02*
X220610000Y-68480000D01*
X220610000Y-68480000D02*
X220140000Y-68040000D01*
X220140000Y-68040000D02*
X219660000Y-67620000D01*
X219660000Y-67620000D02*
X219170000Y-67200000D01*
X219170000Y-67200000D02*
X218680000Y-66780000D01*
X218680000Y-66780000D02*
X218170000Y-66380000D01*
X218170000Y-66380000D02*
X217670000Y-65990000D01*
X217670000Y-65990000D02*
X217150000Y-65600000D01*
X217150000Y-65600000D02*
X216630000Y-65230000D01*
X216630000Y-65230000D02*
X216100000Y-64860000D01*
X216100000Y-64860000D02*
X215570000Y-64510000D01*
X215570000Y-64510000D02*
X215030000Y-64160000D01*
X215030000Y-64160000D02*
X214480000Y-63820000D01*
X214480000Y-63820000D02*
X213930000Y-63490000D01*
X213930000Y-63490000D02*
X213380000Y-63170000D01*
X213380000Y-63170000D02*
X212810000Y-62870000D01*
X212810000Y-62870000D02*
X212250000Y-62570000D01*
X212250000Y-62570000D02*
X211670000Y-62280000D01*
X211670000Y-62280000D02*
X211100000Y-62000000D01*
X211100000Y-62000000D02*
X210510000Y-61730000D01*
X210510000Y-61730000D02*
X209930000Y-61470000D01*
X209930000Y-61470000D02*
X209340000Y-61230000D01*
X209340000Y-61230000D02*
X208740000Y-60990000D01*
X208740000Y-60990000D02*
X208140000Y-60760000D01*
X208140000Y-60760000D02*
X207540000Y-60540000D01*
X207540000Y-60540000D02*
X206930000Y-60340000D01*
X206930000Y-60340000D02*
X206330000Y-60140000D01*
X206330000Y-60140000D02*
X205710000Y-59960000D01*
X205710000Y-59960000D02*
X205100000Y-59790000D01*
X205100000Y-59790000D02*
X204480000Y-59620000D01*
X204480000Y-59620000D02*
X203860000Y-59470000D01*
X203860000Y-59470000D02*
X203240000Y-59330000D01*
X203240000Y-59330000D02*
X202610000Y-59200000D01*
X202610000Y-59200000D02*
X201980000Y-59080000D01*
X201980000Y-59080000D02*
X201350000Y-58970000D01*
X201350000Y-58970000D02*
X200720000Y-58880000D01*
X200720000Y-58880000D02*
X200090000Y-58790000D01*
X200090000Y-58790000D02*
X199460000Y-58710000D01*
X199460000Y-58710000D02*
X198820000Y-58650000D01*
X198820000Y-58650000D02*
X198180000Y-58600000D01*
X198180000Y-58600000D02*
X197550000Y-58560000D01*
X197550000Y-58560000D02*
X196910000Y-58530000D01*
X196910000Y-58530000D02*
X196270000Y-58510000D01*
X196270000Y-58510000D02*
X195640000Y-58500000D01*
X195640000Y-58500000D02*
X195000000Y-58500000D01*
X195000000Y-58500000D02*
X194360000Y-58510000D01*
X194360000Y-58510000D02*
X193730000Y-58540000D01*
X193730000Y-58540000D02*
X193090000Y-58570000D01*
X193090000Y-58570000D02*
X192460000Y-58620000D01*
X192460000Y-58620000D02*
X191820000Y-58680000D01*
X191820000Y-58680000D02*
X191190000Y-58750000D01*
X191190000Y-58750000D02*
X190560000Y-58830000D01*
X190560000Y-58830000D02*
X189930000Y-58920000D01*
X189930000Y-58920000D02*
X189300000Y-59020000D01*
X189300000Y-59020000D02*
X188680000Y-59140000D01*
X188680000Y-59140000D02*
X188050000Y-59260000D01*
X188050000Y-59260000D02*
X187430000Y-59400000D01*
X187430000Y-59400000D02*
X186810000Y-59540000D01*
X186810000Y-59540000D02*
X186200000Y-59700000D01*
X186200000Y-59700000D02*
X185590000Y-59860000D01*
X185590000Y-59860000D02*
X184980000Y-60040000D01*
X184980000Y-60040000D02*
X184370000Y-60230000D01*
X184370000Y-60230000D02*
X183770000Y-60430000D01*
X183770000Y-60430000D02*
X183170000Y-60640000D01*
X183170000Y-60640000D02*
X182570000Y-60860000D01*
X182570000Y-60860000D02*
X181980000Y-61090000D01*
X181980000Y-61090000D02*
X181400000Y-61330000D01*
X181400000Y-61330000D02*
X180810000Y-61580000D01*
X180810000Y-61580000D02*
X180240000Y-61840000D01*
X180240000Y-61840000D02*
X179660000Y-62110000D01*
X179660000Y-62110000D02*
X179090000Y-62390000D01*
X179090000Y-62390000D02*
X178530000Y-62680000D01*
X178530000Y-62680000D02*
X177970000Y-62980000D01*
X177970000Y-62980000D02*
X177420000Y-63290000D01*
X177420000Y-63290000D02*
X176870000Y-63610000D01*
X176870000Y-63610000D02*
X176330000Y-63930000D01*
X176330000Y-63930000D02*
X175800000Y-64270000D01*
X175800000Y-64270000D02*
X175270000Y-64620000D01*
X175270000Y-64620000D02*
X174750000Y-64980000D01*
X174750000Y-64980000D02*
X174230000Y-65340000D01*
X174230000Y-65340000D02*
X173720000Y-65710000D01*
X173720000Y-65710000D02*
X173220000Y-66100000D01*
X173220000Y-66100000D02*
X172720000Y-66490000D01*
X172720000Y-66490000D02*
X172230000Y-66890000D01*
X172230000Y-66890000D02*
X171750000Y-67290000D01*
X171750000Y-67290000D02*
X171280000Y-67710000D01*
X171280000Y-67710000D02*
X170810000Y-68140000D01*
X170810000Y-68140000D02*
X170350000Y-68570000D01*
X170350000Y-68570000D02*
X169900000Y-69010000D01*
X169900000Y-69010000D02*
X169460000Y-69460000D01*
X169460000Y-69460000D02*
X169020000Y-69910000D01*
X169020000Y-69910000D02*
X168590000Y-70370000D01*
X168590000Y-70370000D02*
X168170000Y-70840000D01*
X168170000Y-70840000D02*
X167760000Y-71320000D01*
X167760000Y-71320000D02*
X167360000Y-71810000D01*
X167360000Y-71810000D02*
X166960000Y-72300000D01*
X166960000Y-72300000D02*
X166580000Y-72800000D01*
X166580000Y-72800000D02*
X166200000Y-73300000D01*
X166200000Y-73300000D02*
X165830000Y-73810000D01*
X165830000Y-73810000D02*
X165480000Y-74330000D01*
X165480000Y-74330000D02*
X165130000Y-74850000D01*
X165130000Y-74850000D02*
X164790000Y-75380000D01*
X164790000Y-75380000D02*
X164460000Y-75910000D01*
X164460000Y-75910000D02*
X164130000Y-76450000D01*
X164130000Y-76450000D02*
X163820000Y-77000000D01*
X163820000Y-77000000D02*
X163520000Y-77550000D01*
X163520000Y-77550000D02*
X163230000Y-78110000D01*
X163230000Y-78110000D02*
X162950000Y-78670000D01*
X162950000Y-78670000D02*
X162670000Y-79230000D01*
X162670000Y-79230000D02*
X162410000Y-79800000D01*
X162410000Y-79800000D02*
X162160000Y-80380000D01*
X162160000Y-80380000D02*
X161920000Y-80960000D01*
X161920000Y-80960000D02*
X161680000Y-81540000D01*
X161680000Y-81540000D02*
X161460000Y-82130000D01*
X161460000Y-82130000D02*
X161250000Y-82720000D01*
X161250000Y-82720000D02*
X161050000Y-83310000D01*
X161050000Y-83310000D02*
X160860000Y-83910000D01*
X160860000Y-83910000D02*
X160680000Y-84510000D01*
X160680000Y-84510000D02*
X160510000Y-85110000D01*
X160510000Y-85110000D02*
X160350000Y-85710000D01*
X160350000Y-85710000D02*
X160200000Y-86320000D01*
X160200000Y-86320000D02*
X160060000Y-86930000D01*
X160060000Y-86930000D02*
X159930000Y-87550000D01*
X159930000Y-87550000D02*
X159820000Y-88160000D01*
X159820000Y-88160000D02*
X159710000Y-88780000D01*
X159710000Y-88780000D02*
X159620000Y-89400000D01*
X159620000Y-89400000D02*
X159530000Y-90020000D01*
X159530000Y-90020000D02*
X159460000Y-90640000D01*
X159460000Y-90640000D02*
X159400000Y-91260000D01*
X159400000Y-91260000D02*
X159340000Y-91880000D01*
X159340000Y-91880000D02*
X159300000Y-92500000D01*
X159300000Y-92500000D02*
X159270000Y-93130000D01*
X159270000Y-93130000D02*
X159260000Y-93750000D01*
X159260000Y-93750000D02*
X159250000Y-94380000D01*
X159250000Y-94380000D02*
X159250000Y-95000000D01*
X159250000Y-95000000D02*
X159260000Y-95620000D01*
X159260000Y-95620000D02*
X159290000Y-96250000D01*
X159290000Y-96250000D02*
X159320000Y-96870000D01*
X159320000Y-96870000D02*
X159370000Y-97490000D01*
X159370000Y-97490000D02*
X159430000Y-98110000D01*
X159430000Y-98110000D02*
X159500000Y-98730000D01*
X159500000Y-98730000D02*
X159570000Y-99350000D01*
X159570000Y-99350000D02*
X159660000Y-99970000D01*
X159660000Y-99970000D02*
X159760000Y-100580000D01*
X159760000Y-100580000D02*
X159880000Y-101190000D01*
X159880000Y-101190000D02*
X160000000Y-101800000D01*
X160000000Y-101800000D02*
X160130000Y-102410000D01*
X160130000Y-102410000D02*
X160270000Y-103020000D01*
X160270000Y-103020000D02*
X160430000Y-103620000D01*
X160430000Y-103620000D02*
X160590000Y-104220000D01*
X160590000Y-104220000D02*
X160760000Y-104820000D01*
X160760000Y-104820000D02*
X160950000Y-105410000D01*
X160950000Y-105410000D02*
X161140000Y-106000000D01*
X161140000Y-106000000D02*
X161350000Y-106590000D01*
X161350000Y-106590000D02*
X161560000Y-107170000D01*
X161560000Y-107170000D02*
X161790000Y-107750000D01*
X161790000Y-107750000D02*
X162020000Y-108320000D01*
X162020000Y-108320000D02*
X162270000Y-108890000D01*
X162270000Y-108890000D02*
X162520000Y-109460000D01*
X162520000Y-109460000D02*
X162790000Y-110020000D01*
X162790000Y-110020000D02*
X163060000Y-110580000D01*
X163060000Y-110580000D02*
X163350000Y-111130000D01*
X163350000Y-111130000D02*
X163640000Y-111670000D01*
X163640000Y-111670000D02*
X163940000Y-112210000D01*
X163940000Y-112210000D02*
X164260000Y-112750000D01*
X164260000Y-112750000D02*
X164580000Y-113280000D01*
X164580000Y-113280000D02*
X164910000Y-113800000D01*
X164910000Y-113800000D02*
X165250000Y-114320000D01*
X165250000Y-114320000D02*
X165600000Y-114830000D01*
X165600000Y-114830000D02*
X165950000Y-115340000D01*
X165950000Y-115340000D02*
X166320000Y-115840000D01*
X166320000Y-115840000D02*
X166700000Y-116330000D01*
X166700000Y-116330000D02*
X167080000Y-116810000D01*
X167080000Y-116810000D02*
X167470000Y-117290000D01*
X167470000Y-117290000D02*
X167870000Y-117770000D01*
X167870000Y-117770000D02*
X168280000Y-118230000D01*
X168280000Y-118230000D02*
X168690000Y-118690000D01*
X168690000Y-118690000D02*
X169120000Y-119140000D01*
X169120000Y-119140000D02*
X169550000Y-119580000D01*
X169550000Y-119580000D02*
X169990000Y-120010000D01*
X169990000Y-120010000D02*
X170430000Y-120440000D01*
X170430000Y-120440000D02*
X170890000Y-120860000D01*
X170890000Y-120860000D02*
X171350000Y-121270000D01*
X171350000Y-121270000D02*
X171810000Y-121670000D01*
X171810000Y-121670000D02*
X172290000Y-122070000D01*
X172290000Y-122070000D02*
X172770000Y-122450000D01*
X172770000Y-122450000D02*
X173260000Y-122830000D01*
X173260000Y-122830000D02*
X173750000Y-123200000D01*
X173750000Y-123200000D02*
X174250000Y-123560000D01*
X174250000Y-123560000D02*
X174760000Y-123910000D01*
X174760000Y-123910000D02*
X175270000Y-124250000D01*
X175270000Y-124250000D02*
X175790000Y-124580000D01*
X175790000Y-124580000D02*
X176310000Y-124910000D01*
X176310000Y-124910000D02*
X176840000Y-125220000D01*
X176840000Y-125220000D02*
X177380000Y-125530000D01*
X177380000Y-125530000D02*
X177910000Y-125820000D01*
X177910000Y-125820000D02*
X178460000Y-126110000D01*
X178460000Y-126110000D02*
X179010000Y-126390000D01*
X179010000Y-126390000D02*
X179560000Y-126650000D01*
X179560000Y-126650000D02*
X180120000Y-126910000D01*
X180120000Y-126910000D02*
X180680000Y-127160000D01*
X180680000Y-127160000D02*
X181250000Y-127390000D01*
X181250000Y-127390000D02*
X181820000Y-127620000D01*
X181820000Y-127620000D02*
X182390000Y-127840000D01*
X182390000Y-127840000D02*
X182970000Y-128050000D01*
X182970000Y-128050000D02*
X183550000Y-128240000D01*
X183550000Y-128240000D02*
X184140000Y-128430000D01*
X184140000Y-128430000D02*
X184730000Y-128610000D01*
X184730000Y-128610000D02*
X185320000Y-128770000D01*
X185320000Y-128770000D02*
X185910000Y-128930000D01*
X185910000Y-128930000D02*
X186500000Y-129070000D01*
X186500000Y-129070000D02*
X187100000Y-129210000D01*
X187100000Y-129210000D02*
X187700000Y-129330000D01*
X187700000Y-129330000D02*
X188300000Y-129450000D01*
X188300000Y-129450000D02*
X188910000Y-129550000D01*
X188910000Y-129550000D02*
X189510000Y-129640000D01*
X189510000Y-129640000D02*
X190120000Y-129730000D01*
X190120000Y-129730000D02*
X190730000Y-129800000D01*
X190730000Y-129800000D02*
X191340000Y-129860000D01*
X191340000Y-129860000D02*
X191950000Y-129910000D01*
X191950000Y-129910000D02*
X192560000Y-129950000D01*
X192560000Y-129950000D02*
X193170000Y-129980000D01*
X193170000Y-129980000D02*
X193780000Y-130000000D01*
X193780000Y-130000000D02*
X194390000Y-130000000D01*
X194390000Y-130000000D02*
X195000000Y-130000000D01*
X195000000Y-130000000D02*
X195610000Y-129990000D01*
X195610000Y-129990000D02*
X196220000Y-129960000D01*
X196220000Y-129960000D02*
X196830000Y-129930000D01*
X196830000Y-129930000D02*
X197440000Y-129880000D01*
X197440000Y-129880000D02*
X198050000Y-129830000D01*
X198050000Y-129830000D02*
X198650000Y-129760000D01*
X198650000Y-129760000D02*
X199260000Y-129680000D01*
X199260000Y-129680000D02*
X199860000Y-129590000D01*
X199860000Y-129590000D02*
X200460000Y-129500000D01*
X200460000Y-129500000D02*
X201060000Y-129390000D01*
X201060000Y-129390000D02*
X201660000Y-129270000D01*
X201660000Y-129270000D02*
X202260000Y-129140000D01*
X202260000Y-129140000D02*
X202850000Y-129000000D01*
X202850000Y-129000000D02*
X203440000Y-128850000D01*
X203440000Y-128850000D02*
X204030000Y-128690000D01*
X204030000Y-128690000D02*
X204610000Y-128520000D01*
X204610000Y-128520000D02*
X205190000Y-128340000D01*
X205190000Y-128340000D02*
X205770000Y-128140000D01*
X205770000Y-128140000D02*
X206340000Y-127940000D01*
X206340000Y-127940000D02*
X206910000Y-127730000D01*
X206910000Y-127730000D02*
X207480000Y-127510000D01*
X207480000Y-127510000D02*
X208040000Y-127280000D01*
X208040000Y-127280000D02*
X208600000Y-127040000D01*
X208600000Y-127040000D02*
X209150000Y-126790000D01*
X209150000Y-126790000D02*
X209700000Y-126530000D01*
X209700000Y-126530000D02*
X210250000Y-126260000D01*
X210250000Y-126260000D02*
X210790000Y-125980000D01*
X210790000Y-125980000D02*
X211320000Y-125700000D01*
X211320000Y-125700000D02*
X211850000Y-125400000D01*
X211850000Y-125400000D02*
X212380000Y-125090000D01*
X212380000Y-125090000D02*
X212890000Y-124780000D01*
X212890000Y-124780000D02*
X213410000Y-124460000D01*
X213410000Y-124460000D02*
X213910000Y-124120000D01*
X213910000Y-124120000D02*
X214410000Y-123780000D01*
X214410000Y-123780000D02*
X214910000Y-123430000D01*
X214910000Y-123430000D02*
X215400000Y-123070000D01*
X215400000Y-123070000D02*
X215880000Y-122710000D01*
X215880000Y-122710000D02*
X216350000Y-122330000D01*
X216350000Y-122330000D02*
X216820000Y-121950000D01*
X216820000Y-121950000D02*
X217280000Y-121560000D01*
X217280000Y-121560000D02*
X217740000Y-121160000D01*
X217740000Y-121160000D02*
X218190000Y-120750000D01*
X218190000Y-120750000D02*
X218630000Y-120340000D01*
X218630000Y-120340000D02*
X219060000Y-119910000D01*
X219060000Y-119910000D02*
X219480000Y-119480000D01*
X219480000Y-119480000D02*
X219900000Y-119050000D01*
X219900000Y-119050000D02*
X220310000Y-118600000D01*
X220310000Y-118600000D02*
X220710000Y-118150000D01*
X220710000Y-118150000D02*
X221110000Y-117690000D01*
X221110000Y-117690000D02*
X221490000Y-117230000D01*
X221490000Y-117230000D02*
X221870000Y-116760000D01*
X221870000Y-116760000D02*
X222240000Y-116280000D01*
X222240000Y-116280000D02*
X222600000Y-115800000D01*
X222600000Y-115800000D02*
X222950000Y-115310000D01*
X222950000Y-115310000D02*
X223290000Y-114810000D01*
X223290000Y-114810000D02*
X223630000Y-114310000D01*
X223630000Y-114310000D02*
X223960000Y-113800000D01*
X223960000Y-113800000D02*
X224270000Y-113290000D01*
X224270000Y-113290000D02*
X224580000Y-112770000D01*
X224580000Y-112770000D02*
X224880000Y-112250000D01*
X224880000Y-112250000D02*
X225170000Y-111720000D01*
X225170000Y-111720000D02*
X225450000Y-111190000D01*
X225450000Y-111190000D02*
X225720000Y-110650000D01*
X225720000Y-110650000D02*
X225980000Y-110110000D01*
X225980000Y-110110000D02*
X226230000Y-109560000D01*
X226230000Y-109560000D02*
X226470000Y-109010000D01*
X226470000Y-109010000D02*
X226700000Y-108460000D01*
X226700000Y-108460000D02*
X226930000Y-107900000D01*
X226930000Y-107900000D02*
X227140000Y-107340000D01*
X227140000Y-107340000D02*
X227340000Y-106770000D01*
X227340000Y-106770000D02*
X227530000Y-106200000D01*
X227530000Y-106200000D02*
X227720000Y-105630000D01*
X227720000Y-105630000D02*
X227890000Y-105060000D01*
X227890000Y-105060000D02*
X228050000Y-104480000D01*
X228050000Y-104480000D02*
X228200000Y-103900000D01*
X228200000Y-103900000D02*
X228350000Y-103310000D01*
X228350000Y-103310000D02*
X228480000Y-102730000D01*
X228480000Y-102730000D02*
X228600000Y-102140000D01*
X228600000Y-102140000D02*
X228710000Y-101550000D01*
X228710000Y-101550000D02*
X228810000Y-100960000D01*
X228810000Y-100960000D02*
X228900000Y-100370000D01*
X228900000Y-100370000D02*
X228980000Y-99780000D01*
X228980000Y-99780000D02*
X229050000Y-99180000D01*
X229050000Y-99180000D02*
X229110000Y-98590000D01*
X229110000Y-98590000D02*
X229160000Y-97990000D01*
X229160000Y-97990000D02*
X229200000Y-97390000D01*
X229200000Y-97390000D02*
X229230000Y-96790000D01*
X229230000Y-96790000D02*
X229250000Y-96200000D01*
X229250000Y-96200000D02*
X229250000Y-95600000D01*
X229250000Y-95600000D02*
X229250000Y-95000000D01*
X229250000Y-95000000D02*
X229240000Y-94400000D01*
X229240000Y-94400000D02*
X229210000Y-93810000D01*
X229210000Y-93810000D02*
X229180000Y-93210000D01*
X229180000Y-93210000D02*
X229130000Y-92610000D01*
X229130000Y-92610000D02*
X229080000Y-92020000D01*
X229080000Y-92020000D02*
X229010000Y-91430000D01*
X229010000Y-91430000D02*
X228940000Y-90830000D01*
X228940000Y-90830000D02*
X228850000Y-90240000D01*
X228850000Y-90240000D02*
X228750000Y-89650000D01*
X228750000Y-89650000D02*
X228650000Y-89070000D01*
X228650000Y-89070000D02*
X228530000Y-88480000D01*
X228530000Y-88480000D02*
X228400000Y-87900000D01*
X228400000Y-87900000D02*
X228270000Y-87320000D01*
X228270000Y-87320000D02*
X228120000Y-86740000D01*
X228120000Y-86740000D02*
X227960000Y-86170000D01*
X227960000Y-86170000D02*
X227800000Y-85600000D01*
X227800000Y-85600000D02*
X227620000Y-85030000D01*
X227620000Y-85030000D02*
X227430000Y-84460000D01*
X227430000Y-84460000D02*
X227230000Y-83900000D01*
X227230000Y-83900000D02*
X227030000Y-83340000D01*
X227030000Y-83340000D02*
X226810000Y-82790000D01*
X226810000Y-82790000D02*
X226590000Y-82240000D01*
X226590000Y-82240000D02*
X226350000Y-81690000D01*
X226350000Y-81690000D02*
X226110000Y-81150000D01*
X226110000Y-81150000D02*
X225850000Y-80610000D01*
X225850000Y-80610000D02*
X225590000Y-80080000D01*
X225590000Y-80080000D02*
X225320000Y-79550000D01*
X225320000Y-79550000D02*
X225030000Y-79030000D01*
X225030000Y-79030000D02*
X224740000Y-78510000D01*
X224740000Y-78510000D02*
X224440000Y-78000000D01*
X224440000Y-78000000D02*
X224140000Y-77490000D01*
X224140000Y-77490000D02*
X223820000Y-76990000D01*
X223820000Y-76990000D02*
X223490000Y-76500000D01*
X223490000Y-76500000D02*
X223160000Y-76010000D01*
X223160000Y-76010000D02*
X222820000Y-75520000D01*
X222820000Y-75520000D02*
X222470000Y-75040000D01*
X222470000Y-75040000D02*
X222110000Y-74570000D01*
X222110000Y-74570000D02*
X221740000Y-74110000D01*
X221740000Y-74110000D02*
X221360000Y-73650000D01*
X221360000Y-73650000D02*
X220980000Y-73200000D01*
X220980000Y-73200000D02*
X220590000Y-72750000D01*
X220590000Y-72750000D02*
X220190000Y-72320000D01*
X220190000Y-72320000D02*
X219790000Y-71890000D01*
X219790000Y-71890000D02*
X219370000Y-71460000D01*
X219370000Y-71460000D02*
X218950000Y-71050000D01*
X218950000Y-71050000D02*
X218530000Y-70640000D01*
X218530000Y-70640000D02*
X218090000Y-70240000D01*
X218090000Y-70240000D02*
X217650000Y-69840000D01*
X217650000Y-69840000D02*
X217200000Y-69460000D01*
X217200000Y-69460000D02*
X216750000Y-69080000D01*
X216750000Y-69080000D02*
X216290000Y-68710000D01*
X216290000Y-68710000D02*
X215820000Y-68350000D01*
X215820000Y-68350000D02*
X215350000Y-68000000D01*
X215350000Y-68000000D02*
X214870000Y-67660000D01*
X214870000Y-67660000D02*
X214380000Y-67320000D01*
X214380000Y-67320000D02*
X213890000Y-66990000D01*
X213890000Y-66990000D02*
X213400000Y-66670000D01*
X213400000Y-66670000D02*
X212890000Y-66360000D01*
X212890000Y-66360000D02*
X212390000Y-66060000D01*
X212390000Y-66060000D02*
X211880000Y-65770000D01*
X211880000Y-65770000D02*
X211360000Y-65490000D01*
X211360000Y-65490000D02*
X210840000Y-65220000D01*
X210840000Y-65220000D02*
X210310000Y-64950000D01*
X210310000Y-64950000D02*
X209780000Y-64700000D01*
X209780000Y-64700000D02*
X209250000Y-64450000D01*
X209250000Y-64450000D02*
X208710000Y-64210000D01*
X208710000Y-64210000D02*
X208160000Y-63990000D01*
X208160000Y-63990000D02*
X207620000Y-63770000D01*
X207620000Y-63770000D02*
X207070000Y-63560000D01*
X207070000Y-63560000D02*
X206510000Y-63360000D01*
X206510000Y-63360000D02*
X205960000Y-63180000D01*
X205960000Y-63180000D02*
X205400000Y-63000000D01*
X205400000Y-63000000D02*
X204840000Y-62830000D01*
X204840000Y-62830000D02*
X204270000Y-62670000D01*
X204270000Y-62670000D02*
X203700000Y-62520000D01*
X203700000Y-62520000D02*
X203130000Y-62380000D01*
X203130000Y-62380000D02*
X202560000Y-62250000D01*
X202560000Y-62250000D02*
X201990000Y-62130000D01*
X201990000Y-62130000D02*
X201410000Y-62030000D01*
X201410000Y-62030000D02*
X200830000Y-61930000D01*
X200830000Y-61930000D02*
X200250000Y-61840000D01*
X200250000Y-61840000D02*
X199670000Y-61760000D01*
X199670000Y-61760000D02*
X199090000Y-61690000D01*
X199090000Y-61690000D02*
X198510000Y-61630000D01*
X198510000Y-61630000D02*
X197920000Y-61590000D01*
X197920000Y-61590000D02*
X197340000Y-61550000D01*
X197340000Y-61550000D02*
X196750000Y-61520000D01*
X196750000Y-61520000D02*
X196170000Y-61500000D01*
X196170000Y-61500000D02*
X195580000Y-61500000D01*
X195580000Y-61500000D02*
X195000000Y-61500000D01*
X195000000Y-61500000D02*
X194420000Y-61510000D01*
X194420000Y-61510000D02*
X193830000Y-61540000D01*
X193830000Y-61540000D02*
X193250000Y-61570000D01*
X193250000Y-61570000D02*
X192670000Y-61610000D01*
X192670000Y-61610000D02*
X192080000Y-61670000D01*
X192080000Y-61670000D02*
X191500000Y-61730000D01*
X191500000Y-61730000D02*
X190920000Y-61810000D01*
X190920000Y-61810000D02*
X190350000Y-61890000D01*
X190350000Y-61890000D02*
X189770000Y-61990000D01*
X189770000Y-61990000D02*
X189200000Y-62090000D01*
X189200000Y-62090000D02*
X188630000Y-62210000D01*
X188630000Y-62210000D02*
X188060000Y-62330000D01*
X188060000Y-62330000D02*
X187490000Y-62460000D01*
X187490000Y-62460000D02*
X186920000Y-62610000D01*
X186920000Y-62610000D02*
X186360000Y-62760000D01*
X186360000Y-62760000D02*
X185800000Y-62930000D01*
X185800000Y-62930000D02*
X185250000Y-63100000D01*
X185250000Y-63100000D02*
X184690000Y-63280000D01*
X184690000Y-63280000D02*
X184150000Y-63470000D01*
X184150000Y-63470000D02*
X183600000Y-63680000D01*
X183600000Y-63680000D02*
X183060000Y-63890000D01*
X183060000Y-63890000D02*
X182520000Y-64110000D01*
X182520000Y-64110000D02*
X181990000Y-64340000D01*
X181990000Y-64340000D02*
X181460000Y-64580000D01*
X181460000Y-64580000D02*
X180930000Y-64830000D01*
X180930000Y-64830000D02*
X180410000Y-65090000D01*
X180410000Y-65090000D02*
X179890000Y-65350000D01*
X179890000Y-65350000D02*
X179380000Y-65630000D01*
X179380000Y-65630000D02*
X178880000Y-65910000D01*
X178880000Y-65910000D02*
X178380000Y-66200000D01*
X178380000Y-66200000D02*
X177880000Y-66510000D01*
X177880000Y-66510000D02*
X177390000Y-66820000D01*
X177390000Y-66820000D02*
X176900000Y-67140000D01*
X176900000Y-67140000D02*
X176430000Y-67460000D01*
X176430000Y-67460000D02*
X175950000Y-67800000D01*
X175950000Y-67800000D02*
X175490000Y-68140000D01*
X175490000Y-68140000D02*
X175020000Y-68490000D01*
X175020000Y-68490000D02*
X174570000Y-68850000D01*
X174570000Y-68850000D02*
X174120000Y-69220000D01*
X174120000Y-69220000D02*
X173680000Y-69590000D01*
X173680000Y-69590000D02*
X173250000Y-69980000D01*
X173250000Y-69980000D02*
X172820000Y-70360000D01*
X172820000Y-70360000D02*
X172400000Y-70760000D01*
X172400000Y-70760000D02*
X171980000Y-71170000D01*
X171980000Y-71170000D02*
X171580000Y-71580000D01*
X171580000Y-71580000D02*
X171180000Y-72000000D01*
X171180000Y-72000000D02*
X170790000Y-72420000D01*
X170790000Y-72420000D02*
X170400000Y-72850000D01*
X170400000Y-72850000D02*
X170030000Y-73290000D01*
X170030000Y-73290000D02*
X169660000Y-73730000D01*
X169660000Y-73730000D02*
X169300000Y-74190000D01*
X169300000Y-74190000D02*
X168940000Y-74640000D01*
X168940000Y-74640000D02*
X168600000Y-75100000D01*
X168600000Y-75100000D02*
X168260000Y-75570000D01*
X168260000Y-75570000D02*
X167930000Y-76050000D01*
X167930000Y-76050000D02*
X167610000Y-76530000D01*
X167610000Y-76530000D02*
X167300000Y-77010000D01*
X167300000Y-77010000D02*
X167000000Y-77500000D01*
X167000000Y-77500000D02*
X166710000Y-78000000D01*
X166710000Y-78000000D02*
X166420000Y-78500000D01*
X166420000Y-78500000D02*
X166140000Y-79010000D01*
X166140000Y-79010000D02*
X165880000Y-79520000D01*
X165880000Y-79520000D02*
X165620000Y-80030000D01*
X165620000Y-80030000D02*
X165370000Y-80550000D01*
X165370000Y-80550000D02*
X165130000Y-81070000D01*
X165130000Y-81070000D02*
X164900000Y-81600000D01*
X164900000Y-81600000D02*
X164680000Y-82130000D01*
X164680000Y-82130000D02*
X164460000Y-82660000D01*
X164460000Y-82660000D02*
X164260000Y-83200000D01*
X164260000Y-83200000D02*
X164070000Y-83740000D01*
X164070000Y-83740000D02*
X163880000Y-84290000D01*
X163880000Y-84290000D02*
X163710000Y-84830000D01*
X163710000Y-84830000D02*
X163550000Y-85380000D01*
X163550000Y-85380000D02*
X163390000Y-85940000D01*
X163390000Y-85940000D02*
X163250000Y-86490000D01*
X163250000Y-86490000D02*
X163110000Y-87050000D01*
X163110000Y-87050000D02*
X162980000Y-87610000D01*
X162980000Y-87610000D02*
X162870000Y-88170000D01*
X162870000Y-88170000D02*
X162760000Y-88730000D01*
X162760000Y-88730000D02*
X162670000Y-89300000D01*
X162670000Y-89300000D02*
X162580000Y-89870000D01*
X162580000Y-89870000D02*
X162500000Y-90430000D01*
X162500000Y-90430000D02*
X162440000Y-91000000D01*
X162440000Y-91000000D02*
X162380000Y-91570000D01*
X162380000Y-91570000D02*
X162330000Y-92140000D01*
X162330000Y-92140000D02*
X162300000Y-92710000D01*
X162300000Y-92710000D02*
X162270000Y-93280000D01*
X162270000Y-93280000D02*
X162250000Y-93860000D01*
X162250000Y-93860000D02*
X162250000Y-94430000D01*
X162250000Y-94430000D02*
X162250000Y-95000000D01*
X162250000Y-95000000D02*
X162260000Y-95570000D01*
X162260000Y-95570000D02*
X162290000Y-96140000D01*
X162290000Y-96140000D02*
X162320000Y-96710000D01*
X162320000Y-96710000D02*
X162360000Y-97280000D01*
X162360000Y-97280000D02*
X162420000Y-97850000D01*
X162420000Y-97850000D02*
X162480000Y-98420000D01*
X162480000Y-98420000D02*
X162550000Y-98980000D01*
X162550000Y-98980000D02*
X162630000Y-99550000D01*
X162630000Y-99550000D02*
X162730000Y-100110000D01*
X162730000Y-100110000D02*
X162830000Y-100670000D01*
X162830000Y-100670000D02*
X162940000Y-101230000D01*
X162940000Y-101230000D02*
X163060000Y-101790000D01*
X163060000Y-101790000D02*
X163190000Y-102340000D01*
X163190000Y-102340000D02*
X163340000Y-102890000D01*
X163340000Y-102890000D02*
X163490000Y-103440000D01*
X163490000Y-103440000D02*
X163650000Y-103990000D01*
X163650000Y-103990000D02*
X163820000Y-104530000D01*
X163820000Y-104530000D02*
X164000000Y-105070000D01*
X164000000Y-105070000D02*
X164180000Y-105610000D01*
X164180000Y-105610000D02*
X164380000Y-106140000D01*
X164380000Y-106140000D02*
X164590000Y-106670000D01*
X164590000Y-106670000D02*
X164800000Y-107200000D01*
X164800000Y-107200000D02*
X165030000Y-107720000D01*
X165030000Y-107720000D02*
X165260000Y-108240000D01*
X165260000Y-108240000D02*
X165510000Y-108750000D01*
X165510000Y-108750000D02*
X165760000Y-109260000D01*
X165760000Y-109260000D02*
X166020000Y-109770000D01*
X166020000Y-109770000D02*
X166290000Y-110270000D01*
X166290000Y-110270000D02*
X166570000Y-110760000D01*
X166570000Y-110760000D02*
X166850000Y-111250000D01*
X166850000Y-111250000D02*
X167150000Y-111730000D01*
X167150000Y-111730000D02*
X167450000Y-112210000D01*
X167450000Y-112210000D02*
X167760000Y-112690000D01*
X167760000Y-112690000D02*
X168080000Y-113160000D01*
X168080000Y-113160000D02*
X168410000Y-113620000D01*
X168410000Y-113620000D02*
X168750000Y-114070000D01*
X168750000Y-114070000D02*
X169090000Y-114520000D01*
X169090000Y-114520000D02*
X169440000Y-114970000D01*
X169440000Y-114970000D02*
X169800000Y-115410000D01*
X169800000Y-115410000D02*
X170170000Y-115840000D01*
X170170000Y-115840000D02*
X170540000Y-116260000D01*
X170540000Y-116260000D02*
X170920000Y-116680000D01*
X170920000Y-116680000D02*
X171310000Y-117090000D01*
X171310000Y-117090000D02*
X171710000Y-117500000D01*
X171710000Y-117500000D02*
X172110000Y-117890000D01*
X172110000Y-117890000D02*
X172520000Y-118280000D01*
X172520000Y-118280000D02*
X172930000Y-118670000D01*
X172930000Y-118670000D02*
X173350000Y-119040000D01*
X173350000Y-119040000D02*
X173780000Y-119410000D01*
X173780000Y-119410000D02*
X174220000Y-119770000D01*
X174220000Y-119770000D02*
X174660000Y-120120000D01*
X174660000Y-120120000D02*
X175100000Y-120470000D01*
X175100000Y-120470000D02*
X175560000Y-120800000D01*
X175560000Y-120800000D02*
X176010000Y-121130000D01*
X176010000Y-121130000D02*
X176480000Y-121450000D01*
X176480000Y-121450000D02*
X176950000Y-121760000D01*
X176950000Y-121760000D02*
X177420000Y-122070000D01*
X177420000Y-122070000D02*
X177900000Y-122360000D01*
X177900000Y-122360000D02*
X178390000Y-122650000D01*
X178390000Y-122650000D02*
X178880000Y-122930000D01*
X178880000Y-122930000D02*
X179370000Y-123200000D01*
X179370000Y-123200000D02*
X179870000Y-123460000D01*
X179870000Y-123460000D02*
X180370000Y-123710000D01*
X180370000Y-123710000D02*
X180880000Y-123960000D01*
X180880000Y-123960000D02*
X181390000Y-124190000D01*
X181390000Y-124190000D02*
X181900000Y-124420000D01*
X181900000Y-124420000D02*
X182420000Y-124630000D01*
X182420000Y-124630000D02*
X182940000Y-124840000D01*
X182940000Y-124840000D02*
X183470000Y-125040000D01*
X183470000Y-125040000D02*
X184000000Y-125230000D01*
X184000000Y-125230000D02*
X184530000Y-125410000D01*
X184530000Y-125410000D02*
X185070000Y-125580000D01*
X185070000Y-125580000D02*
X185600000Y-125740000D01*
X185600000Y-125740000D02*
X186140000Y-125890000D01*
X186140000Y-125890000D02*
X186690000Y-126030000D01*
X186690000Y-126030000D02*
X187230000Y-126160000D01*
X187230000Y-126160000D02*
X187780000Y-126290000D01*
X187780000Y-126290000D02*
X188330000Y-126400000D01*
X188330000Y-126400000D02*
X188880000Y-126500000D01*
X188880000Y-126500000D02*
X189430000Y-126600000D01*
X189430000Y-126600000D02*
X189980000Y-126680000D01*
X189980000Y-126680000D02*
X190540000Y-126750000D01*
X190540000Y-126750000D02*
X191090000Y-126820000D01*
X191090000Y-126820000D02*
X191650000Y-126870000D01*
X191650000Y-126870000D02*
X192210000Y-126920000D01*
X192210000Y-126920000D02*
X192770000Y-126960000D01*
X192770000Y-126960000D02*
X193320000Y-126980000D01*
X193320000Y-126980000D02*
X193880000Y-127000000D01*
X193880000Y-127000000D02*
X194440000Y-127000000D01*
X194440000Y-127000000D02*
X195000000Y-127000000D01*
X198650000Y-136690000D02*
X199370000Y-136600000D01*
X199370000Y-136600000D02*
X200090000Y-136440000D01*
X200090000Y-136440000D02*
X200790000Y-136230000D01*
X200790000Y-136230000D02*
X201490000Y-135960000D01*
X201490000Y-135960000D02*
X202170000Y-135640000D01*
X202170000Y-135640000D02*
X202830000Y-135270000D01*
X202830000Y-135270000D02*
X203470000Y-134870000D01*
X203470000Y-134870000D02*
X204100000Y-134430000D01*
X204100000Y-134430000D02*
X204720000Y-133970000D01*
X204720000Y-133970000D02*
X205310000Y-133490000D01*
X205310000Y-133490000D02*
X205900000Y-133000000D01*
X205900000Y-133000000D02*
X206470000Y-132510000D01*
X206470000Y-132510000D02*
X207030000Y-132030000D01*
X207030000Y-132030000D02*
X207590000Y-131560000D01*
X207590000Y-131560000D02*
X208140000Y-131110000D01*
X208140000Y-131110000D02*
X208700000Y-130690000D01*
X208700000Y-130690000D02*
X209260000Y-130290000D01*
X209260000Y-130290000D02*
X209830000Y-129930000D01*
X209830000Y-129930000D02*
X210400000Y-129590000D01*
X210400000Y-129590000D02*
X210990000Y-129300000D01*
X198650000Y-136690000D02*
X197920000Y-136750000D01*
X197920000Y-136750000D02*
X197190000Y-136790000D01*
X197190000Y-136790000D02*
X196460000Y-136820000D01*
X196460000Y-136820000D02*
X195730000Y-136840000D01*
X195730000Y-136840000D02*
X195000000Y-136850000D01*
X195000000Y-136850000D02*
X194270000Y-136840000D01*
X194270000Y-136840000D02*
X193540000Y-136820000D01*
X193540000Y-136820000D02*
X192810000Y-136790000D01*
X192810000Y-136790000D02*
X192080000Y-136750000D01*
X192080000Y-136750000D02*
X191350000Y-136690000D01*
X96580000Y-138310000D02*
X95790000Y-138330000D01*
X95790000Y-138330000D02*
X94990000Y-138340000D01*
X94990000Y-138340000D02*
X94190000Y-138350000D01*
X94190000Y-138350000D02*
X93390000Y-138350000D01*
X93390000Y-138350000D02*
X92580000Y-138330000D01*
X92580000Y-138330000D02*
X91760000Y-138290000D01*
X91760000Y-138290000D02*
X90950000Y-138230000D01*
X90950000Y-138230000D02*
X90150000Y-138140000D01*
X90150000Y-138140000D02*
X89340000Y-138020000D01*
X120660000Y-138020000D02*
X119850000Y-138140000D01*
X119850000Y-138140000D02*
X119050000Y-138230000D01*
X119050000Y-138230000D02*
X118240000Y-138290000D01*
X118240000Y-138290000D02*
X117420000Y-138330000D01*
X117420000Y-138330000D02*
X116610000Y-138350000D01*
X116610000Y-138350000D02*
X115810000Y-138350000D01*
X115810000Y-138350000D02*
X115010000Y-138340000D01*
X115010000Y-138340000D02*
X114210000Y-138330000D01*
X114210000Y-138330000D02*
X113420000Y-138310000D01*
X113420000Y-138310000D02*
X112640000Y-138310000D01*
X112640000Y-138310000D02*
X111860000Y-138300000D01*
X111860000Y-138300000D02*
X111090000Y-138310000D01*
X111090000Y-138310000D02*
X110320000Y-138340000D01*
X110320000Y-138340000D02*
X109560000Y-138380000D01*
X186580000Y-138310000D02*
X185790000Y-138330000D01*
X185790000Y-138330000D02*
X184990000Y-138340000D01*
X184990000Y-138340000D02*
X184190000Y-138350000D01*
X184190000Y-138350000D02*
X183390000Y-138350000D01*
X183390000Y-138350000D02*
X182580000Y-138330000D01*
X182580000Y-138330000D02*
X181760000Y-138290000D01*
X181760000Y-138290000D02*
X180950000Y-138230000D01*
X180950000Y-138230000D02*
X180150000Y-138140000D01*
X180150000Y-138140000D02*
X179340000Y-138020000D01*
X210660000Y-138020000D02*
X209850000Y-138140000D01*
X209850000Y-138140000D02*
X209050000Y-138230000D01*
X209050000Y-138230000D02*
X208240000Y-138290000D01*
X208240000Y-138290000D02*
X207420000Y-138330000D01*
X207420000Y-138330000D02*
X206610000Y-138350000D01*
X206610000Y-138350000D02*
X205810000Y-138350000D01*
X205810000Y-138350000D02*
X205010000Y-138340000D01*
X205010000Y-138340000D02*
X204210000Y-138330000D01*
X204210000Y-138330000D02*
X203420000Y-138310000D01*
X203420000Y-138310000D02*
X202640000Y-138310000D01*
X202640000Y-138310000D02*
X201860000Y-138300000D01*
X201860000Y-138300000D02*
X201090000Y-138310000D01*
X201090000Y-138310000D02*
X200320000Y-138340000D01*
X200320000Y-138340000D02*
X199560000Y-138380000D01*
X101200000Y-138430000D02*
X100440000Y-138380000D01*
X100440000Y-138380000D02*
X99680000Y-138340000D01*
X99680000Y-138340000D02*
X98910000Y-138310000D01*
X98910000Y-138310000D02*
X98140000Y-138300000D01*
X98140000Y-138300000D02*
X97360000Y-138310000D01*
X97360000Y-138310000D02*
X96580000Y-138310000D01*
X109560000Y-138380000D02*
X108800000Y-138430000D01*
X191200000Y-138430000D02*
X190440000Y-138380000D01*
X190440000Y-138380000D02*
X189680000Y-138340000D01*
X189680000Y-138340000D02*
X188910000Y-138310000D01*
X188910000Y-138310000D02*
X188140000Y-138300000D01*
X188140000Y-138300000D02*
X187360000Y-138310000D01*
X187360000Y-138310000D02*
X186580000Y-138310000D01*
X199560000Y-138380000D02*
X198800000Y-138430000D01*
M02*
