G04 #@! TF.FileFunction,Copper,L2,Bot,Signal*
%FSLAX46Y46*%
G04 Gerber Fmt 4.6, Leading zero omitted, Abs format (unit mm)*
G04 Created by KiCad (PCBNEW 4.0.2-1.fc23-product) date Sat 04 Jun 2016 12:08:20 BST*
%MOMM*%
G01*
G04 APERTURE LIST*
%ADD10C,0.150000*%
%ADD11C,1.100000*%
%ADD12C,0.600000*%
G04 APERTURE END LIST*
D10*
G36*
X161239552Y-146238483D02*
X159326135Y-141619085D01*
X172260448Y-136261517D01*
X174173865Y-140880915D01*
X161239552Y-146238483D01*
X161239552Y-146238483D01*
G37*
G36*
X115326135Y-140880915D02*
X117239552Y-136261517D01*
X130173865Y-141619085D01*
X128260448Y-146238483D01*
X115326135Y-140880915D01*
X115326135Y-140880915D01*
G37*
D11*
X144740000Y-121250000D03*
X142750000Y-127250000D03*
X148750000Y-145250000D03*
D12*
X141950000Y-127120000D02*
X142750000Y-127250000D01*
X141020000Y-127030000D02*
X141950000Y-127120000D01*
X140100000Y-126910000D02*
X141020000Y-127030000D01*
X139180000Y-126770000D02*
X140100000Y-126910000D01*
X138260000Y-126610000D02*
X139180000Y-126770000D01*
X137350000Y-126430000D02*
X138260000Y-126610000D01*
X136440000Y-126230000D02*
X137350000Y-126430000D01*
X135540000Y-126000000D02*
X136440000Y-126230000D01*
X134640000Y-125750000D02*
X135540000Y-126000000D01*
X133760000Y-125480000D02*
X134640000Y-125750000D01*
X132870000Y-125190000D02*
X133760000Y-125480000D01*
X132000000Y-124880000D02*
X132870000Y-125190000D01*
X131130000Y-124540000D02*
X132000000Y-124880000D01*
X130270000Y-124190000D02*
X131130000Y-124540000D01*
X129430000Y-123810000D02*
X130270000Y-124190000D01*
X128590000Y-123420000D02*
X129430000Y-123810000D01*
X127760000Y-123000000D02*
X128590000Y-123420000D01*
X126940000Y-122560000D02*
X127760000Y-123000000D01*
X126140000Y-122100000D02*
X126940000Y-122560000D01*
X125340000Y-121630000D02*
X126140000Y-122100000D01*
X124560000Y-121130000D02*
X125340000Y-121630000D01*
X123790000Y-120620000D02*
X124560000Y-121130000D01*
X123030000Y-120080000D02*
X123790000Y-120620000D01*
X122290000Y-119530000D02*
X123030000Y-120080000D01*
X121560000Y-118960000D02*
X122290000Y-119530000D01*
X120850000Y-118380000D02*
X121560000Y-118960000D01*
X120150000Y-117770000D02*
X120850000Y-118380000D01*
X119460000Y-117150000D02*
X120150000Y-117770000D01*
X118790000Y-116510000D02*
X119460000Y-117150000D01*
X118140000Y-115860000D02*
X118790000Y-116510000D01*
X117500000Y-115190000D02*
X118140000Y-115860000D01*
X116880000Y-114510000D02*
X117500000Y-115190000D01*
X116280000Y-113810000D02*
X116880000Y-114510000D01*
X115700000Y-113090000D02*
X116280000Y-113810000D01*
X115130000Y-112370000D02*
X115700000Y-113090000D01*
X114580000Y-111630000D02*
X115130000Y-112370000D01*
X114050000Y-110870000D02*
X114580000Y-111630000D01*
X113540000Y-110110000D02*
X114050000Y-110870000D01*
X113050000Y-109330000D02*
X113540000Y-110110000D01*
X112570000Y-108540000D02*
X113050000Y-109330000D01*
X112120000Y-107740000D02*
X112570000Y-108540000D01*
X111690000Y-106930000D02*
X112120000Y-107740000D01*
X111270000Y-106100000D02*
X111690000Y-106930000D01*
X110880000Y-105270000D02*
X111270000Y-106100000D01*
X110510000Y-104430000D02*
X110880000Y-105270000D01*
X110160000Y-103580000D02*
X110510000Y-104430000D01*
X109830000Y-102720000D02*
X110160000Y-103580000D01*
X109520000Y-101860000D02*
X109830000Y-102720000D01*
X109230000Y-100990000D02*
X109520000Y-101860000D01*
X108960000Y-100110000D02*
X109230000Y-100990000D01*
X108720000Y-99220000D02*
X108960000Y-100110000D01*
X108500000Y-98330000D02*
X108720000Y-99220000D01*
X108300000Y-97440000D02*
X108500000Y-98330000D01*
X108120000Y-96540000D02*
X108300000Y-97440000D01*
X107960000Y-95640000D02*
X108120000Y-96540000D01*
X107830000Y-94730000D02*
X107960000Y-95640000D01*
X107720000Y-93820000D02*
X107830000Y-94730000D01*
X107630000Y-92910000D02*
X107720000Y-93820000D01*
X107560000Y-92000000D02*
X107630000Y-92910000D01*
X107520000Y-91080000D02*
X107560000Y-92000000D01*
X107490000Y-90170000D02*
X107520000Y-91080000D01*
X107500000Y-89240000D02*
X107490000Y-90170000D01*
X107520000Y-88330000D02*
X107500000Y-89240000D01*
X107560000Y-87420000D02*
X107520000Y-88330000D01*
X107630000Y-86510000D02*
X107560000Y-87420000D01*
X107720000Y-85600000D02*
X107630000Y-86510000D01*
X107830000Y-84690000D02*
X107720000Y-85600000D01*
X107970000Y-83790000D02*
X107830000Y-84690000D01*
X108120000Y-82890000D02*
X107970000Y-83790000D01*
X108300000Y-82000000D02*
X108120000Y-82890000D01*
X108500000Y-81110000D02*
X108300000Y-82000000D01*
X108730000Y-80220000D02*
X108500000Y-81110000D01*
X108970000Y-79340000D02*
X108730000Y-80220000D01*
X109230000Y-78470000D02*
X108970000Y-79340000D01*
X109520000Y-77610000D02*
X109230000Y-78470000D01*
X109830000Y-76750000D02*
X109520000Y-77610000D01*
X110160000Y-75900000D02*
X109830000Y-76750000D01*
X110500000Y-75060000D02*
X110160000Y-75900000D01*
X110870000Y-74230000D02*
X110500000Y-75060000D01*
X111260000Y-73410000D02*
X110870000Y-74230000D01*
X111670000Y-72600000D02*
X111260000Y-73410000D01*
X112100000Y-71800000D02*
X111670000Y-72600000D01*
X112550000Y-71010000D02*
X112100000Y-71800000D01*
X113020000Y-70230000D02*
X112550000Y-71010000D01*
X113500000Y-69460000D02*
X113020000Y-70230000D01*
X114010000Y-68710000D02*
X113500000Y-69460000D01*
X114530000Y-67960000D02*
X114010000Y-68710000D01*
X115070000Y-67240000D02*
X114530000Y-67960000D01*
X115630000Y-66520000D02*
X115070000Y-67240000D01*
X116200000Y-65820000D02*
X115630000Y-66520000D01*
X116800000Y-65140000D02*
X116200000Y-65820000D01*
X117410000Y-64470000D02*
X116800000Y-65140000D01*
X118030000Y-63810000D02*
X117410000Y-64470000D01*
X118670000Y-63170000D02*
X118030000Y-63810000D01*
X119330000Y-62550000D02*
X118670000Y-63170000D01*
X120000000Y-61940000D02*
X119330000Y-62550000D01*
X120680000Y-61350000D02*
X120000000Y-61940000D01*
X121380000Y-60780000D02*
X120680000Y-61350000D01*
X122090000Y-60220000D02*
X121380000Y-60780000D01*
X122820000Y-59680000D02*
X122090000Y-60220000D01*
X123560000Y-59160000D02*
X122820000Y-59680000D01*
X124310000Y-58660000D02*
X123560000Y-59160000D01*
X125070000Y-58180000D02*
X124310000Y-58660000D01*
X125850000Y-57720000D02*
X125070000Y-58180000D01*
X126630000Y-57270000D02*
X125850000Y-57720000D01*
X127430000Y-56850000D02*
X126630000Y-57270000D01*
X128230000Y-56440000D02*
X127430000Y-56850000D01*
X129050000Y-56060000D02*
X128230000Y-56440000D01*
X129870000Y-55690000D02*
X129050000Y-56060000D01*
X130710000Y-55350000D02*
X129870000Y-55690000D01*
X131550000Y-55030000D02*
X130710000Y-55350000D01*
X132390000Y-54720000D02*
X131550000Y-55030000D01*
X133250000Y-54440000D02*
X132390000Y-54720000D01*
X134110000Y-54180000D02*
X133250000Y-54440000D01*
X134980000Y-53940000D02*
X134110000Y-54180000D01*
X135850000Y-53730000D02*
X134980000Y-53940000D01*
X136720000Y-53530000D02*
X135850000Y-53730000D01*
X137610000Y-53350000D02*
X136720000Y-53530000D01*
X138490000Y-53200000D02*
X137610000Y-53350000D01*
X139380000Y-53070000D02*
X138490000Y-53200000D01*
X140270000Y-52960000D02*
X139380000Y-53070000D01*
X141160000Y-52870000D02*
X140270000Y-52960000D01*
X142060000Y-52810000D02*
X141160000Y-52870000D01*
X142950000Y-52770000D02*
X142060000Y-52810000D01*
X143850000Y-52740000D02*
X142950000Y-52770000D01*
X144760000Y-52750000D02*
X143850000Y-52740000D01*
X145650000Y-52770000D02*
X144760000Y-52750000D01*
X146540000Y-52810000D02*
X145650000Y-52770000D01*
X147440000Y-52880000D02*
X146540000Y-52810000D01*
X148330000Y-52970000D02*
X147440000Y-52880000D01*
X149220000Y-53080000D02*
X148330000Y-52970000D01*
X150100000Y-53210000D02*
X149220000Y-53080000D01*
X150980000Y-53360000D02*
X150100000Y-53210000D01*
X151860000Y-53540000D02*
X150980000Y-53360000D01*
X152730000Y-53730000D02*
X151860000Y-53540000D01*
X153600000Y-53950000D02*
X152730000Y-53730000D01*
X154460000Y-54190000D02*
X153600000Y-53950000D01*
X155310000Y-54450000D02*
X154460000Y-54190000D01*
X156160000Y-54730000D02*
X155310000Y-54450000D01*
X157000000Y-55030000D02*
X156160000Y-54730000D01*
X157830000Y-55350000D02*
X157000000Y-55030000D01*
X158650000Y-55700000D02*
X157830000Y-55350000D01*
X159470000Y-56060000D02*
X158650000Y-55700000D01*
X160270000Y-56440000D02*
X159470000Y-56060000D01*
X161070000Y-56840000D02*
X160270000Y-56440000D01*
X161850000Y-57260000D02*
X161070000Y-56840000D01*
X162620000Y-57700000D02*
X161850000Y-57260000D01*
X163390000Y-58160000D02*
X162620000Y-57700000D01*
X164140000Y-58640000D02*
X163390000Y-58160000D01*
X164880000Y-59130000D02*
X164140000Y-58640000D01*
X165600000Y-59640000D02*
X164880000Y-59130000D01*
X166320000Y-60170000D02*
X165600000Y-59640000D01*
X167020000Y-60720000D02*
X166320000Y-60170000D01*
X167700000Y-61280000D02*
X167020000Y-60720000D01*
X168370000Y-61860000D02*
X167700000Y-61280000D01*
X169030000Y-62460000D02*
X168370000Y-61860000D01*
X169670000Y-63070000D02*
X169030000Y-62460000D01*
X170300000Y-63700000D02*
X169670000Y-63070000D01*
X170910000Y-64340000D02*
X170300000Y-63700000D01*
X171500000Y-65000000D02*
X170910000Y-64340000D01*
X172080000Y-65670000D02*
X171500000Y-65000000D01*
X172640000Y-66360000D02*
X172080000Y-65670000D01*
X173190000Y-67060000D02*
X172640000Y-66360000D01*
X173710000Y-67770000D02*
X173190000Y-67060000D01*
X174220000Y-68490000D02*
X173710000Y-67770000D01*
X174710000Y-69230000D02*
X174220000Y-68490000D01*
X175190000Y-69970000D02*
X174710000Y-69230000D01*
X175640000Y-70730000D02*
X175190000Y-69970000D01*
X176070000Y-71500000D02*
X175640000Y-70730000D01*
X176490000Y-72280000D02*
X176070000Y-71500000D01*
X176890000Y-73070000D02*
X176490000Y-72280000D01*
X177260000Y-73870000D02*
X176890000Y-73070000D01*
X177620000Y-74680000D02*
X177260000Y-73870000D01*
X177960000Y-75490000D02*
X177620000Y-74680000D01*
X178270000Y-76320000D02*
X177960000Y-75490000D01*
X178570000Y-77150000D02*
X178270000Y-76320000D01*
X178850000Y-77980000D02*
X178570000Y-77150000D01*
X179100000Y-78830000D02*
X178850000Y-77980000D01*
X179330000Y-79680000D02*
X179100000Y-78830000D01*
X179550000Y-80530000D02*
X179330000Y-79680000D01*
X179740000Y-81390000D02*
X179550000Y-80530000D01*
X179910000Y-82250000D02*
X179740000Y-81390000D01*
X180060000Y-83120000D02*
X179910000Y-82250000D01*
X180190000Y-83990000D02*
X180060000Y-83120000D01*
X180290000Y-84860000D02*
X180190000Y-83990000D01*
X180380000Y-85740000D02*
X180290000Y-84860000D01*
X180440000Y-86610000D02*
X180380000Y-85740000D01*
X180490000Y-87490000D02*
X180440000Y-86610000D01*
X180510000Y-88370000D02*
X180490000Y-87490000D01*
X180500000Y-89260000D02*
X180510000Y-88370000D01*
X180480000Y-90130000D02*
X180500000Y-89260000D01*
X180440000Y-91010000D02*
X180480000Y-90130000D01*
X180370000Y-91880000D02*
X180440000Y-91010000D01*
X180290000Y-92750000D02*
X180370000Y-91880000D01*
X180180000Y-93620000D02*
X180290000Y-92750000D01*
X180050000Y-94490000D02*
X180180000Y-93620000D01*
X179900000Y-95350000D02*
X180050000Y-94490000D01*
X179730000Y-96210000D02*
X179900000Y-95350000D01*
X179530000Y-97060000D02*
X179730000Y-96210000D01*
X179320000Y-97910000D02*
X179530000Y-97060000D01*
X179090000Y-98760000D02*
X179320000Y-97910000D01*
X178830000Y-99590000D02*
X179090000Y-98760000D01*
X178560000Y-100420000D02*
X178830000Y-99590000D01*
X178260000Y-101240000D02*
X178560000Y-100420000D01*
X177950000Y-102060000D02*
X178260000Y-101240000D01*
X177610000Y-102860000D02*
X177950000Y-102060000D01*
X177260000Y-103660000D02*
X177610000Y-102860000D01*
X176880000Y-104450000D02*
X177260000Y-103660000D01*
X176490000Y-105230000D02*
X176880000Y-104450000D01*
X176080000Y-106000000D02*
X176490000Y-105230000D01*
X175650000Y-106750000D02*
X176080000Y-106000000D01*
X175200000Y-107500000D02*
X175650000Y-106750000D01*
X174730000Y-108240000D02*
X175200000Y-107500000D01*
X174250000Y-108960000D02*
X174730000Y-108240000D01*
X173740000Y-109670000D02*
X174250000Y-108960000D01*
X173220000Y-110370000D02*
X173740000Y-109670000D01*
X172690000Y-111050000D02*
X173220000Y-110370000D01*
X172140000Y-111730000D02*
X172690000Y-111050000D01*
X171570000Y-112380000D02*
X172140000Y-111730000D01*
X170980000Y-113030000D02*
X171570000Y-112380000D01*
X170380000Y-113660000D02*
X170980000Y-113030000D01*
X169770000Y-114270000D02*
X170380000Y-113660000D01*
X169140000Y-114870000D02*
X169770000Y-114270000D01*
X168500000Y-115450000D02*
X169140000Y-114870000D01*
X167840000Y-116010000D02*
X168500000Y-115450000D01*
X167170000Y-116560000D02*
X167840000Y-116010000D01*
X166480000Y-117100000D02*
X167170000Y-116560000D01*
X165790000Y-117610000D02*
X166480000Y-117100000D01*
X165080000Y-118110000D02*
X165790000Y-117610000D01*
X164360000Y-118590000D02*
X165080000Y-118110000D01*
X163620000Y-119050000D02*
X164360000Y-118590000D01*
X162880000Y-119500000D02*
X163620000Y-119050000D01*
X162130000Y-119920000D02*
X162880000Y-119500000D01*
X161360000Y-120330000D02*
X162130000Y-119920000D01*
X160590000Y-120720000D02*
X161360000Y-120330000D01*
X159810000Y-121090000D02*
X160590000Y-120720000D01*
X159020000Y-121430000D02*
X159810000Y-121090000D01*
X158220000Y-121760000D02*
X159020000Y-121430000D01*
X157410000Y-122070000D02*
X158220000Y-121760000D01*
X156600000Y-122360000D02*
X157410000Y-122070000D01*
X155780000Y-122630000D02*
X156600000Y-122360000D01*
X154960000Y-122880000D02*
X155780000Y-122630000D01*
X154120000Y-123110000D02*
X154960000Y-122880000D01*
X153290000Y-123320000D02*
X154120000Y-123110000D01*
X152450000Y-123510000D02*
X153290000Y-123320000D01*
X151600000Y-123670000D02*
X152450000Y-123510000D01*
X150750000Y-123820000D02*
X151600000Y-123670000D01*
X149900000Y-123950000D02*
X150750000Y-123820000D01*
X149050000Y-124050000D02*
X149900000Y-123950000D01*
X148190000Y-124130000D02*
X149050000Y-124050000D01*
X147330000Y-124200000D02*
X148190000Y-124130000D01*
X146470000Y-124240000D02*
X147330000Y-124200000D01*
X145610000Y-124260000D02*
X146470000Y-124240000D01*
X144740000Y-124250000D02*
X145610000Y-124260000D01*
X143890000Y-124230000D02*
X144740000Y-124250000D01*
X143030000Y-124190000D02*
X143890000Y-124230000D01*
X142170000Y-124130000D02*
X143030000Y-124190000D01*
X141320000Y-124040000D02*
X142170000Y-124130000D01*
X140470000Y-123930000D02*
X141320000Y-124040000D01*
X139620000Y-123810000D02*
X140470000Y-123930000D01*
X138780000Y-123660000D02*
X139620000Y-123810000D01*
X137940000Y-123490000D02*
X138780000Y-123660000D01*
X137100000Y-123300000D02*
X137940000Y-123490000D01*
X136270000Y-123090000D02*
X137100000Y-123300000D01*
X135440000Y-122860000D02*
X136270000Y-123090000D01*
X134630000Y-122610000D02*
X135440000Y-122860000D01*
X133810000Y-122340000D02*
X134630000Y-122610000D01*
X133010000Y-122050000D02*
X133810000Y-122340000D01*
X132210000Y-121750000D02*
X133010000Y-122050000D01*
X131420000Y-121420000D02*
X132210000Y-121750000D01*
X130640000Y-121070000D02*
X131420000Y-121420000D01*
X129870000Y-120700000D02*
X130640000Y-121070000D01*
X129110000Y-120320000D02*
X129870000Y-120700000D01*
X128360000Y-119920000D02*
X129110000Y-120320000D01*
X127610000Y-119490000D02*
X128360000Y-119920000D01*
X126880000Y-119050000D02*
X127610000Y-119490000D01*
X126160000Y-118600000D02*
X126880000Y-119050000D01*
X125460000Y-118120000D02*
X126160000Y-118600000D01*
X124760000Y-117630000D02*
X125460000Y-118120000D01*
X124080000Y-117120000D02*
X124760000Y-117630000D01*
X123410000Y-116600000D02*
X124080000Y-117120000D01*
X122750000Y-116060000D02*
X123410000Y-116600000D01*
X122110000Y-115500000D02*
X122750000Y-116060000D01*
X121480000Y-114930000D02*
X122110000Y-115500000D01*
X120860000Y-114340000D02*
X121480000Y-114930000D01*
X120260000Y-113740000D02*
X120860000Y-114340000D01*
X119680000Y-113120000D02*
X120260000Y-113740000D01*
X119110000Y-112490000D02*
X119680000Y-113120000D01*
X118550000Y-111850000D02*
X119110000Y-112490000D01*
X118020000Y-111190000D02*
X118550000Y-111850000D01*
X117490000Y-110520000D02*
X118020000Y-111190000D01*
X116990000Y-109840000D02*
X117490000Y-110520000D01*
X116500000Y-109150000D02*
X116990000Y-109840000D01*
X116030000Y-108440000D02*
X116500000Y-109150000D01*
X115580000Y-107720000D02*
X116030000Y-108440000D01*
X115150000Y-107000000D02*
X115580000Y-107720000D01*
X114730000Y-106260000D02*
X115150000Y-107000000D01*
X114330000Y-105510000D02*
X114730000Y-106260000D01*
X113950000Y-104750000D02*
X114330000Y-105510000D01*
X113590000Y-103990000D02*
X113950000Y-104750000D01*
X113250000Y-103220000D02*
X113590000Y-103990000D01*
X112930000Y-102430000D02*
X113250000Y-103220000D01*
X112630000Y-101640000D02*
X112930000Y-102430000D01*
X112340000Y-100850000D02*
X112630000Y-101640000D01*
X112080000Y-100050000D02*
X112340000Y-100850000D01*
X111840000Y-99240000D02*
X112080000Y-100050000D01*
X111610000Y-98420000D02*
X111840000Y-99240000D01*
X111410000Y-97610000D02*
X111610000Y-98420000D01*
X111220000Y-96780000D02*
X111410000Y-97610000D01*
X111060000Y-95960000D02*
X111220000Y-96780000D01*
X110920000Y-95120000D02*
X111060000Y-95960000D01*
X110800000Y-94290000D02*
X110920000Y-95120000D01*
X110690000Y-93450000D02*
X110800000Y-94290000D01*
X110610000Y-92620000D02*
X110690000Y-93450000D01*
X110550000Y-91780000D02*
X110610000Y-92620000D01*
X110510000Y-90940000D02*
X110550000Y-91780000D01*
X110490000Y-90100000D02*
X110510000Y-90940000D01*
X110500000Y-89240000D02*
X110490000Y-90100000D01*
X110520000Y-88400000D02*
X110500000Y-89240000D01*
X110560000Y-87570000D02*
X110520000Y-88400000D01*
X110620000Y-86730000D02*
X110560000Y-87570000D01*
X110710000Y-85890000D02*
X110620000Y-86730000D01*
X110810000Y-85060000D02*
X110710000Y-85890000D01*
X110940000Y-84230000D02*
X110810000Y-85060000D01*
X111080000Y-83400000D02*
X110940000Y-84230000D01*
X111250000Y-82580000D02*
X111080000Y-83400000D01*
X111430000Y-81760000D02*
X111250000Y-82580000D01*
X111640000Y-80950000D02*
X111430000Y-81760000D01*
X111860000Y-80140000D02*
X111640000Y-80950000D01*
X112100000Y-79340000D02*
X111860000Y-80140000D01*
X112370000Y-78550000D02*
X112100000Y-79340000D01*
X112650000Y-77760000D02*
X112370000Y-78550000D01*
X112950000Y-76980000D02*
X112650000Y-77760000D01*
X113280000Y-76210000D02*
X112950000Y-76980000D01*
X113620000Y-75450000D02*
X113280000Y-76210000D01*
X113970000Y-74690000D02*
X113620000Y-75450000D01*
X114350000Y-73950000D02*
X113970000Y-74690000D01*
X114750000Y-73210000D02*
X114350000Y-73950000D01*
X115160000Y-72480000D02*
X114750000Y-73210000D01*
X115590000Y-71770000D02*
X115160000Y-72480000D01*
X116040000Y-71070000D02*
X115590000Y-71770000D01*
X116500000Y-70370000D02*
X116040000Y-71070000D01*
X116980000Y-69690000D02*
X116500000Y-70370000D01*
X117480000Y-69020000D02*
X116980000Y-69690000D01*
X117990000Y-68370000D02*
X117480000Y-69020000D01*
X118520000Y-67730000D02*
X117990000Y-68370000D01*
X119070000Y-67100000D02*
X118520000Y-67730000D01*
X119630000Y-66480000D02*
X119070000Y-67100000D01*
X120200000Y-65880000D02*
X119630000Y-66480000D01*
X120790000Y-65290000D02*
X120200000Y-65880000D01*
X121390000Y-64720000D02*
X120790000Y-65290000D01*
X122010000Y-64160000D02*
X121390000Y-64720000D01*
X122640000Y-63620000D02*
X122010000Y-64160000D01*
X123280000Y-63100000D02*
X122640000Y-63620000D01*
X123940000Y-62590000D02*
X123280000Y-63100000D01*
X124610000Y-62090000D02*
X123940000Y-62590000D01*
X125290000Y-61620000D02*
X124610000Y-62090000D01*
X125980000Y-61160000D02*
X125290000Y-61620000D01*
X126680000Y-60710000D02*
X125980000Y-61160000D01*
X127390000Y-60290000D02*
X126680000Y-60710000D01*
X128110000Y-59880000D02*
X127390000Y-60290000D01*
X128840000Y-59490000D02*
X128110000Y-59880000D01*
X129580000Y-59120000D02*
X128840000Y-59490000D01*
X130330000Y-58770000D02*
X129580000Y-59120000D01*
X131090000Y-58440000D02*
X130330000Y-58770000D01*
X131850000Y-58120000D02*
X131090000Y-58440000D01*
X132630000Y-57830000D02*
X131850000Y-58120000D01*
X133400000Y-57550000D02*
X132630000Y-57830000D01*
X134190000Y-57290000D02*
X133400000Y-57550000D01*
X134980000Y-57050000D02*
X134190000Y-57290000D01*
X135780000Y-56830000D02*
X134980000Y-57050000D01*
X136580000Y-56640000D02*
X135780000Y-56830000D01*
X137380000Y-56460000D02*
X136580000Y-56640000D01*
X138190000Y-56300000D02*
X137380000Y-56460000D01*
X139000000Y-56160000D02*
X138190000Y-56300000D01*
X139820000Y-56040000D02*
X139000000Y-56160000D01*
X140640000Y-55940000D02*
X139820000Y-56040000D01*
X141460000Y-55860000D02*
X140640000Y-55940000D01*
X142280000Y-55800000D02*
X141460000Y-55860000D01*
X143100000Y-55760000D02*
X142280000Y-55800000D01*
X143920000Y-55740000D02*
X143100000Y-55760000D01*
X144760000Y-55750000D02*
X143920000Y-55740000D01*
X145580000Y-55770000D02*
X144760000Y-55750000D01*
X146400000Y-55810000D02*
X145580000Y-55770000D01*
X147220000Y-55870000D02*
X146400000Y-55810000D01*
X148030000Y-55950000D02*
X147220000Y-55870000D01*
X148850000Y-56060000D02*
X148030000Y-55950000D01*
X149660000Y-56180000D02*
X148850000Y-56060000D01*
X150470000Y-56320000D02*
X149660000Y-56180000D01*
X151270000Y-56480000D02*
X150470000Y-56320000D01*
X152070000Y-56660000D02*
X151270000Y-56480000D01*
X152870000Y-56860000D02*
X152070000Y-56660000D01*
X153660000Y-57080000D02*
X152870000Y-56860000D01*
X154440000Y-57320000D02*
X153660000Y-57080000D01*
X155220000Y-57580000D02*
X154440000Y-57320000D01*
X155990000Y-57860000D02*
X155220000Y-57580000D01*
X156750000Y-58150000D02*
X155990000Y-57860000D01*
X157500000Y-58470000D02*
X156750000Y-58150000D01*
X158250000Y-58800000D02*
X157500000Y-58470000D01*
X158990000Y-59150000D02*
X158250000Y-58800000D01*
X159720000Y-59520000D02*
X158990000Y-59150000D01*
X160440000Y-59910000D02*
X159720000Y-59520000D01*
X161150000Y-60310000D02*
X160440000Y-59910000D01*
X161840000Y-60730000D02*
X161150000Y-60310000D01*
X162530000Y-61170000D02*
X161840000Y-60730000D01*
X163210000Y-61620000D02*
X162530000Y-61170000D01*
X163880000Y-62100000D02*
X163210000Y-61620000D01*
X164530000Y-62580000D02*
X163880000Y-62100000D01*
X165170000Y-63080000D02*
X164530000Y-62580000D01*
X165800000Y-63600000D02*
X165170000Y-63080000D01*
X166410000Y-64140000D02*
X165800000Y-63600000D01*
X167020000Y-64680000D02*
X166410000Y-64140000D01*
X167600000Y-65250000D02*
X167020000Y-64680000D01*
X168180000Y-65820000D02*
X167600000Y-65250000D01*
X168740000Y-66410000D02*
X168180000Y-65820000D01*
X169280000Y-67020000D02*
X168740000Y-66410000D01*
X169810000Y-67630000D02*
X169280000Y-67020000D01*
X170320000Y-68260000D02*
X169810000Y-67630000D01*
X170820000Y-68900000D02*
X170320000Y-68260000D01*
X171300000Y-69550000D02*
X170820000Y-68900000D01*
X171770000Y-70220000D02*
X171300000Y-69550000D01*
X172220000Y-70890000D02*
X171770000Y-70220000D01*
X172650000Y-71580000D02*
X172220000Y-70890000D01*
X173070000Y-72280000D02*
X172650000Y-71580000D01*
X173460000Y-72980000D02*
X173070000Y-72280000D01*
X173840000Y-73700000D02*
X173460000Y-72980000D01*
X174210000Y-74420000D02*
X173840000Y-73700000D01*
X174550000Y-75150000D02*
X174210000Y-74420000D01*
X174880000Y-75890000D02*
X174550000Y-75150000D01*
X175190000Y-76640000D02*
X174880000Y-75890000D01*
X175470000Y-77400000D02*
X175190000Y-76640000D01*
X175750000Y-78160000D02*
X175470000Y-77400000D01*
X176000000Y-78920000D02*
X175750000Y-78160000D01*
X176230000Y-79700000D02*
X176000000Y-78920000D01*
X176440000Y-80480000D02*
X176230000Y-79700000D01*
X176640000Y-81260000D02*
X176440000Y-80480000D01*
X176810000Y-82050000D02*
X176640000Y-81260000D01*
X176970000Y-82840000D02*
X176810000Y-82050000D01*
X177100000Y-83630000D02*
X176970000Y-82840000D01*
X177220000Y-84430000D02*
X177100000Y-83630000D01*
X177320000Y-85230000D02*
X177220000Y-84430000D01*
X177390000Y-86030000D02*
X177320000Y-85230000D01*
X177450000Y-86830000D02*
X177390000Y-86030000D01*
X177490000Y-87640000D02*
X177450000Y-86830000D01*
X177510000Y-88440000D02*
X177490000Y-87640000D01*
X177500000Y-89260000D02*
X177510000Y-88440000D01*
X177480000Y-90060000D02*
X177500000Y-89260000D01*
X177440000Y-90860000D02*
X177480000Y-90060000D01*
X177380000Y-91660000D02*
X177440000Y-90860000D01*
X177300000Y-92460000D02*
X177380000Y-91660000D01*
X177200000Y-93260000D02*
X177300000Y-92460000D01*
X177080000Y-94050000D02*
X177200000Y-93260000D01*
X176940000Y-94840000D02*
X177080000Y-94050000D01*
X176780000Y-95630000D02*
X176940000Y-94840000D01*
X176610000Y-96410000D02*
X176780000Y-95630000D01*
X176410000Y-97180000D02*
X176610000Y-96410000D01*
X176190000Y-97960000D02*
X176410000Y-97180000D01*
X175960000Y-98720000D02*
X176190000Y-97960000D01*
X175710000Y-99480000D02*
X175960000Y-98720000D01*
X175440000Y-100230000D02*
X175710000Y-99480000D01*
X175150000Y-100980000D02*
X175440000Y-100230000D01*
X174840000Y-101720000D02*
X175150000Y-100980000D01*
X174510000Y-102450000D02*
X174840000Y-101720000D01*
X174170000Y-103170000D02*
X174510000Y-102450000D01*
X173810000Y-103880000D02*
X174170000Y-103170000D01*
X173430000Y-104580000D02*
X173810000Y-103880000D01*
X173040000Y-105280000D02*
X173430000Y-104580000D01*
X172620000Y-105960000D02*
X173040000Y-105280000D01*
X172200000Y-106630000D02*
X172620000Y-105960000D01*
X171750000Y-107290000D02*
X172200000Y-106630000D01*
X171290000Y-107940000D02*
X171750000Y-107290000D01*
X170820000Y-108580000D02*
X171290000Y-107940000D01*
X170320000Y-109210000D02*
X170820000Y-108580000D01*
X169820000Y-109820000D02*
X170320000Y-109210000D01*
X169300000Y-110420000D02*
X169820000Y-109820000D01*
X168760000Y-111010000D02*
X169300000Y-110420000D01*
X168210000Y-111590000D02*
X168760000Y-111010000D01*
X167650000Y-112150000D02*
X168210000Y-111590000D01*
X167070000Y-112690000D02*
X167650000Y-112150000D01*
X166480000Y-113230000D02*
X167070000Y-112690000D01*
X165880000Y-113740000D02*
X166480000Y-113230000D01*
X165260000Y-114240000D02*
X165880000Y-113740000D01*
X164640000Y-114730000D02*
X165260000Y-114240000D01*
X164000000Y-115200000D02*
X164640000Y-114730000D01*
X163350000Y-115660000D02*
X164000000Y-115200000D01*
X162690000Y-116100000D02*
X163350000Y-115660000D01*
X162020000Y-116520000D02*
X162690000Y-116100000D01*
X161340000Y-116920000D02*
X162020000Y-116520000D01*
X160650000Y-117310000D02*
X161340000Y-116920000D01*
X159950000Y-117680000D02*
X160650000Y-117310000D01*
X159240000Y-118040000D02*
X159950000Y-117680000D01*
X158530000Y-118370000D02*
X159240000Y-118040000D01*
X157800000Y-118690000D02*
X158530000Y-118370000D01*
X157070000Y-118990000D02*
X157800000Y-118690000D01*
X156330000Y-119270000D02*
X157070000Y-118990000D01*
X155590000Y-119540000D02*
X156330000Y-119270000D01*
X154840000Y-119780000D02*
X155590000Y-119540000D01*
X154080000Y-120010000D02*
X154840000Y-119780000D01*
X153320000Y-120220000D02*
X154080000Y-120010000D01*
X152560000Y-120410000D02*
X153320000Y-120220000D01*
X151790000Y-120580000D02*
X152560000Y-120410000D01*
X151020000Y-120730000D02*
X151790000Y-120580000D01*
X150240000Y-120860000D02*
X151020000Y-120730000D01*
X149460000Y-120980000D02*
X150240000Y-120860000D01*
X148680000Y-121070000D02*
X149460000Y-120980000D01*
X147900000Y-121150000D02*
X148680000Y-121070000D01*
X147110000Y-121200000D02*
X147900000Y-121150000D01*
X146330000Y-121240000D02*
X147110000Y-121200000D01*
X145540000Y-121260000D02*
X146330000Y-121240000D01*
X144740000Y-121250000D02*
X145540000Y-121260000D01*
X157750000Y-145250000D02*
X148750000Y-145250000D01*
X161750000Y-141250000D02*
X157750000Y-145250000D01*
X166750000Y-141250000D02*
X161750000Y-141250000D01*
M02*
