G04 #@! TF.FileFunction,Legend,Bot*
%FSLAX46Y46*%
G04 Gerber Fmt 4.6, Leading zero omitted, Abs format (unit mm)*
G04 Created by KiCad (PCBNEW 4.0.2-1.fc23-product) date Sat 04 Jun 2016 12:08:20 BST*
%MOMM*%
G01*
G04 APERTURE LIST*
%ADD10C,0.150000*%
%ADD11C,13.000000*%
%ADD12C,0.500000*%
%ADD13C,1.100000*%
G04 APERTURE END LIST*
D10*
%LPC*%
D11*
X179250000Y-89250000D02*
G75*
G03X179250000Y-89250000I-34500000J0D01*
G01*
D10*
G36*
X161239552Y-146238483D02*
X159326135Y-141619085D01*
X172260448Y-136261517D01*
X174173865Y-140880915D01*
X161239552Y-146238483D01*
X161239552Y-146238483D01*
G37*
G36*
X115326135Y-140880915D02*
X117239552Y-136261517D01*
X130173865Y-141619085D01*
X128260448Y-146238483D01*
X115326135Y-140880915D01*
X115326135Y-140880915D01*
G37*
D12*
X144750000Y-49500000D03*
X143750000Y-49500000D03*
X142750000Y-49500000D03*
X145750000Y-49500000D03*
X146750000Y-49500000D03*
X129540000Y-52530000D03*
X128616120Y-52912683D03*
X127692241Y-53295367D03*
X130463880Y-52147317D03*
X131387759Y-51764633D03*
X116640000Y-61140000D03*
X115932893Y-61847107D03*
X115225786Y-62554214D03*
X117347107Y-60432893D03*
X118054214Y-59725786D03*
X108030000Y-74040000D03*
X107647317Y-74963880D03*
X107264633Y-75887759D03*
X108412683Y-73116120D03*
X108795367Y-72192241D03*
X105000000Y-89250000D03*
X105000000Y-90250000D03*
X105000000Y-91250000D03*
X105000000Y-88250000D03*
X105000000Y-87250000D03*
X108030000Y-104460000D03*
X108412683Y-105383880D03*
X108795367Y-106307759D03*
X107647317Y-103536120D03*
X107264633Y-102612241D03*
X116640000Y-117360000D03*
X117347107Y-118067107D03*
X118054214Y-118774214D03*
X115932893Y-116652893D03*
X115225786Y-115945786D03*
X121120000Y-146300000D03*
X122043880Y-146682683D03*
X122967759Y-147065367D03*
X120196120Y-145917317D03*
X119272241Y-145534633D03*
X144750000Y-151000000D03*
X145750000Y-151000000D03*
X146750000Y-151000000D03*
X143750000Y-151000000D03*
X142750000Y-151000000D03*
X168380000Y-146300000D03*
X169303880Y-145917317D03*
X170227759Y-145534633D03*
X167456120Y-146682683D03*
X166532241Y-147065367D03*
X172860000Y-117360000D03*
X173567107Y-116652893D03*
X174274214Y-115945786D03*
X172152893Y-118067107D03*
X171445786Y-118774214D03*
X181470000Y-104460000D03*
X181852683Y-103536120D03*
X182235367Y-102612241D03*
X181087317Y-105383880D03*
X180704633Y-106307759D03*
X184500000Y-89250000D03*
X184500000Y-88250000D03*
X184500000Y-87250000D03*
X184500000Y-90250000D03*
X184500000Y-91250000D03*
X181470000Y-74040000D03*
X181087317Y-73116120D03*
X180704633Y-72192241D03*
X181852683Y-74963880D03*
X182235367Y-75887759D03*
X172860000Y-61140000D03*
X172152893Y-60432893D03*
X171445786Y-59725786D03*
X173567107Y-61847107D03*
X174274214Y-62554214D03*
X159960000Y-52530000D03*
X159036120Y-52147317D03*
X158112241Y-51764633D03*
X160883880Y-52912683D03*
X161807759Y-53295367D03*
D13*
X144740000Y-121250000D03*
X142750000Y-127250000D03*
X148750000Y-145250000D03*
M02*
